<?xml version="1.0" encoding="UTF-8"?>
<svg id="_레이어_2" data-name="레이어 2" xmlns="http://www.w3.org/2000/svg" viewBox="0 0 640 400">
  <defs>
    <style>
      .cls-1 {
        fill: #c5d0d8;
      }

      .cls-2 {
        fill: #fff;
      }

      .cls-3 {
        fill: #e0e2e2;
      }

      .cls-4 {
        fill: #b6bbbf;
      }

      .cls-5 {
        fill: #a2a7aa;
      }

      .cls-6 {
        fill: #5590e5;
      }

      .cls-7 {
        fill: #edefef;
      }

      .cls-8 {
        fill: #275ead;
      }

      .cls-9 {
        stroke: #484849;
        stroke-linecap: round;
        stroke-linejoin: round;
        stroke-width: 4px;
      }

      .cls-9, .cls-10 {
        fill: none;
      }

      .cls-11 {
        fill: #fcd23d;
      }

      .cls-12 {
        fill: #646566;
      }

      .cls-13 {
        fill: #396bc4;
      }

      .cls-14 {
        fill: #fcbb3d;
      }

      .cls-15 {
        opacity: .1;
      }

      .cls-16 {
        fill: #2d2d2d;
      }

      .cls-17 {
        fill: #858889;
      }

      .cls-18 {
        fill: #191919;
      }

      .cls-19 {
        fill: #959999;
      }

      .cls-20 {
        fill: #adb6bc;
      }
    </style>
  </defs>
  <g id="_레이어_1-2" data-name="레이어 1">
    <g>
      <rect class="cls-10" width="640" height="400"/>
      <g>
        <path class="cls-19" d="M58.74,280.61h103.37v1.92c0,3.73-3.03,6.76-6.76,6.76H65.49c-3.73,0-6.76-3.03-6.76-6.76v-1.92h0Z"/>
        <path class="cls-19" d="M460.65,280.61h103.37v1.92c0,3.73-3.03,6.76-6.76,6.76h-89.85c-3.73,0-6.76-3.03-6.76-6.76v-1.92h0Z"/>
        <path class="cls-19" d="M352.22,280.61h91.08v2.33c0,3.5-2.84,6.34-6.34,6.34h-78.39c-3.5,0-6.34-2.84-6.34-6.34v-2.33h0Z"/>
        <g>
          <polygon class="cls-11" points="104.77 359.13 64.88 359.13 63.01 315.5 106.64 315.5 104.77 359.13"/>
          <ellipse class="cls-14" cx="84.83" cy="315.5" rx="21.81" ry="4.99"/>
          <path class="cls-13" d="M137.95,225.43h-57.26c-4.54,0-8.44,3.18-9.27,7.57l-7.91,41.48,33.88,10.05c7.84,2.32,16.02,2.32,23.86,0l33.88-10.05-7.91-41.48c-.84-4.39-4.73-7.57-9.27-7.57Z"/>
          <path class="cls-6" d="M107.14,274.67c0-12.05-9.77-21.81-21.81-21.81h0c-12.05,0-21.81,9.77-21.81,21.81v3.84c0,.06,0,.11,0,.17,.19-11.89,9.87-21.47,21.81-21.47h0c11.93,0,21.62,11.06,21.81,22.95,0-.06,0-1.59,0-1.65v-3.84Z"/>
          <path class="cls-13" d="M83.74,253.48h3.17c11.17,0,20.23,9.07,20.23,20.23v5.83c0,2.82-2.29,5.1-5.1,5.1h-33.42c-2.82,0-5.1-2.29-5.1-5.1v-5.83c0-11.17,9.07-20.23,20.23-20.23Z"/>
          <path class="cls-1" d="M85.32,257.08c-10.33,0-18.7,7.69-18.7,18.7l.56,12.19,1.65,24.15,.47,6.89c3.96,.92,9.45,1.48,15.52,1.48,6.61,0,12.52-.67,16.52-1.73l.44-6.39,1.67-24.4,.56-12.19c0-10.33-8.37-18.7-18.7-18.7Z"/>
          <path class="cls-8" d="M137.95,225.43h-57.26c-4.54,0-8.44,3.18-9.27,7.57l-3.06,16.06c3.83,1.62,8.5,2.32,13.32,1.69l7.97-1.05c6.81-.9,13.71,2.39,20.61,2.39s13.8-3.29,20.61-2.39l7.97,1.05c4.11,.54,8.11,.11,11.58-1.03l-3.19-16.72c-.84-4.39-4.73-7.57-9.27-7.57Z"/>
          <path class="cls-6" d="M155.13,274.67c0-12.05-9.77-21.81-21.81-21.81h0c-12.05,0-21.81,9.77-21.81,21.81v3.84c0,.06,0,.11,0,.17,.19-11.89,9.87-21.47,21.81-21.47h0c11.93,0,21.62,9.58,21.81,21.47,0-.06,0-.11,0-.17v-3.84Z"/>
          <path class="cls-2" d="M138.83,248.88l-7.97-1.05c-6.81-.9-13.71,2.39-20.61,2.39-6.9,0-13.8-3.29-20.61-2.39l-7.97,1.05c-11.71,1.54-22.53-4.77-22.53-13.13v-37.74h102.22v37.74c0,8.37-10.82,14.67-22.53,13.13Z"/>
          <path class="cls-13" d="M131.73,253.48h3.17c11.17,0,20.23,9.07,20.23,20.23v5.83c0,2.82-2.29,5.1-5.1,5.1h-33.42c-2.82,0-5.1-2.29-5.1-5.1v-5.83c0-11.17,9.07-20.23,20.23-20.23Z"/>
          <path class="cls-2" d="M117.41,157.05h-14.31c-24.28,0-43.95,19.68-43.95,43.95v24.79c0,2.14,.22,4.2,.62,6.16,1.44-.15,2.98-.23,4.63-.23,23.45,0,23.45,16.15,46.9,16.15s23.45-16.15,46.9-16.15c.89,0,1.75,.02,2.58,.07,.38-1.91,.58-3.92,.58-5.99v-24.79c0-24.28-19.68-43.95-43.95-43.95Z"/>
          <ellipse class="cls-20" cx="72.45" cy="208.55" rx="19.22" ry="5.49" transform="translate(-35.11 15.75) rotate(-10)"/>
          <path class="cls-1" d="M86.33,197.93l6.25,48.41c-1.89-1.18-4.2-1.7-6.56-1.28l-12.28,2.16c-2.36,.42-4.35,1.69-5.73,3.45l-10.25-46.34,28.57-6.4Z"/>
          <path class="cls-15" d="M93.57,265.43c1.44-1.18,2.5-2.78,3.03-4.57-3.14-2.37-7.04-3.79-11.28-3.79-7.24,0-13.52,3.79-16.63,9.85,1,1.01,2.22,1.79,3.56,2.26,2.3,.81,4.87,.26,6.71-1.33h0c2.16-1.87,5.17-2.41,7.84-1.38,2.28,.87,4.88,.51,6.76-1.04Z"/>
          <path class="cls-15" d="M87.26,205.15l-.93-7.22-28.57,6.4,1.11,5c3.22-1.49,7.65-2.84,12.63-3.72,6.33-1.12,12.08-1.21,15.76-.46Z"/>
          <ellipse class="cls-20" cx="146.54" cy="208.55" rx="5.49" ry="19.22" transform="translate(-84.29 316.65) rotate(-80)"/>
          <path class="cls-1" d="M132.66,197.93l-6.25,48.41c1.89-1.18,4.2-1.7,6.56-1.28l12.28,2.16c2.36,.42,4.35,1.69,5.73,3.45l10.25-46.34-28.57-6.4Z"/>
          <path class="cls-2" d="M53.52,211.89c-.53-2.99,7.52-6.9,17.97-8.75,10.45-1.84,19.35-.92,19.88,2.07,0,.05,0,.09,.01,.14l.13-.02-5.74-27.26-7.47-14.16c-14.2,1.03-21.37,8.9-25,16.52-3.08,6.47-3.91,13.78-2.67,20.84l2.84,10.77h.08c-.01-.06-.03-.1-.04-.15Z"/>
          <path class="cls-15" d="M131.64,205.15l.93-7.22,28.57,6.4-1.11,5c-3.22-1.49-7.65-2.84-12.63-3.72-6.33-1.12-12.08-1.21-15.76-.46Z"/>
          <path class="cls-2" d="M165.47,211.89c.53-2.99-7.52-6.9-17.97-8.75-10.45-1.84-19.35-.92-19.88,2.07,0,.05,0,.09-.01,.14l-.13-.02,5.74-27.26,7.47-14.16c14.2,1.03,21.37,8.9,25,16.52,3.08,6.47,3.91,13.78,2.67,20.84l-2.84,10.77h-.08c.01-.06,.03-.1,.04-.15Z"/>
          <path class="cls-15" d="M85.32,263.33h0c7.86,0,14.74,4.16,18.58,10.39-1.03-9.36-8.95-16.64-18.58-16.64s-17.64,6.76-18.6,16.67c3.84-6.25,10.73-10.42,18.6-10.42Z"/>
          <path class="cls-1" d="M86.81,262.53h0c-2.67-1.02-5.68-.49-7.84,1.38h0c-1.84,1.6-4.41,2.15-6.71,1.33-3.08-1.09-5.5-3.75-6.1-7.2h0c-.9-5.08,2.5-9.93,7.58-10.83l12.28-2.16c5.08-.9,9.93,2.5,10.83,7.58h0c.61,3.44-.75,6.78-3.27,8.85-1.88,1.55-4.48,1.91-6.76,1.04Z"/>
          <path class="cls-15" d="M86.01,242.1l-12.28,2.16c-2.67,.47-4.86,2.04-6.23,4.15l.5,2.25c1.37-1.75,3.36-3.03,5.73-3.45l12.28-2.16c2.36-.42,4.67,.1,6.56,1.28l-.41-3.21c-1.81-1-3.95-1.42-6.15-1.03Z"/>
          <path class="cls-15" d="M145.25,244.27l-12.28-2.16c-2.19-.39-4.34,.03-6.15,1.03l-.41,3.21c1.89-1.18,4.2-1.7,6.56-1.28l12.28,2.16c2.36,.42,4.35,1.69,5.73,3.45l.5-2.25c-1.36-2.11-3.56-3.68-6.23-4.15Z"/>
          <circle class="cls-1" cx="109.77" cy="137.12" r="32.46"/>
          <path class="cls-15" d="M109.28,104.66c-17.93,0-32.46,14.53-32.46,32.46,0,12.21,6.74,22.84,16.71,28.38,5.1-5.34,8.74-12.09,10.29-19.6,3.02-.5,5.95-1.26,8.76-2.26,2.71,8.18,7.43,15.45,13.59,21.2,9.34-5.7,15.57-15.98,15.57-27.73,0-17.93-14.53-32.46-32.46-32.46Z"/>
          <path class="cls-15" d="M64.88,359.13h39.89l.42-9.7c-3.86-6.15-10.69-10.24-18.49-10.24h-3.12c-8.2,0-15.35,4.53-19.07,11.23l.37,8.72Z"/>
          <path class="cls-11" d="M82.62,342.93h5.04c11.17,0,20.23,9.07,20.23,20.23v2.49c0,6.38-5.18,11.56-11.56,11.56h-22.38c-6.38,0-11.56-5.18-11.56-11.56v-2.49c0-11.17,9.07-20.23,20.23-20.23Z"/>
          <path class="cls-15" d="M69.1,316l.21,3c3.96,.92,9.45,1.48,15.52,1.48,6.61,0,12.52-.67,16.52-1.73l.21-3.01c-4,1.09-10.01,1.79-16.73,1.79-6.18,0-11.76-.59-15.73-1.53Z"/>
          <polygon class="cls-11" points="153.04 360.12 113.15 360.12 111.28 316.49 154.91 316.49 153.04 360.12"/>
          <ellipse class="cls-14" cx="133.1" cy="316.49" rx="21.81" ry="4.99"/>
          <path class="cls-1" d="M133.59,258.07c-10.33,0-18.7,7.69-18.7,18.7l.56,12.19,1.65,24.15,.47,6.89c3.96,.92,9.45,1.48,15.52,1.48,6.61,0,12.52-.67,16.52-1.73l.44-6.39,1.67-24.4,.56-12.19c0-10.33-8.37-18.7-18.7-18.7Z"/>
          <path class="cls-15" d="M113.15,360.12h39.89l.42-9.7c-3.86-6.15-10.69-10.24-18.49-10.24h-3.12c-8.2,0-15.35,4.53-19.07,11.23l.37,8.72Z"/>
          <path class="cls-11" d="M130.89,343.91h5.04c11.17,0,20.23,9.07,20.23,20.23v2.49c0,6.38-5.18,11.56-11.56,11.56h-22.38c-6.38,0-11.56-5.18-11.56-11.56v-2.49c0-11.17,9.07-20.23,20.23-20.23Z"/>
          <path class="cls-15" d="M117.37,316.99l.21,3c3.96,.92,9.45,1.48,15.52,1.48,6.61,0,12.52-.67,16.52-1.73l.21-3.01c-4,1.09-10.01,1.79-16.73,1.79-6.18,0-11.76-.59-15.73-1.53Z"/>
          <path class="cls-15" d="M133.31,263.82h0c8.05,0,15.07,4.36,18.85,10.84-1.04-9.34-8.96-16.6-18.58-16.6s-17.01,6.24-18.45,15.51c3.91-5.88,10.59-9.75,18.18-9.75Z"/>
          <path class="cls-15" d="M133.59,258.07c-3.89,0-7.5,1.09-10.49,3.04,.58,1.09,1.37,2.06,2.33,2.85,1.88,1.55,4.48,1.91,6.76,1.04,2.67-1.02,5.68-.49,7.84,1.38h0c1.84,1.6,4.41,2.15,6.71,1.33,.87-.31,1.69-.75,2.43-1.29-3.35-5.04-9.07-8.36-15.58-8.36Z"/>
          <path class="cls-1" d="M132.18,262.53h0c2.67-1.02,5.68-.49,7.84,1.38h0c1.84,1.6,4.41,2.15,6.71,1.33,3.08-1.09,5.5-3.75,6.1-7.2h0c.9-5.08-2.5-9.93-7.58-10.83l-12.28-2.16c-5.08-.9-9.93,2.5-10.83,7.58h0c-.61,3.44,.75,6.78,3.27,8.85,1.88,1.55,4.48,1.91,6.76,1.04Z"/>
          <circle class="cls-5" cx="95.97" cy="87.21" r="51.01"/>
          <circle class="cls-5" cx="137.55" cy="80.71" r="35.95"/>
          <circle cx="109.76" cy="159.97" r="2.97"/>
          <circle class="cls-5" cx="161.5" cy="119.23" r="51.01"/>
          <circle class="cls-5" cx="64.95" cy="129.39" r="40.19"/>
        </g>
        <g>
          <path class="cls-13" d="M421.38,243.57h-48.6c-3.85,0-7.16,2.7-7.87,6.43l-6.71,35.21,28.76,8.53c6.65,1.97,13.6,1.97,20.25,0l28.76-8.53-6.71-35.21c-.71-3.73-4.02-6.43-7.87-6.43Z"/>
          <path class="cls-6" d="M395.22,285.36c0-10.23-8.29-18.52-18.52-18.52h0c-10.23,0-18.52,8.29-18.52,18.52v3.26s0,.1,0,.15c.16-10.09,8.38-18.22,18.51-18.22h0c10.13,0,18.35,9.39,18.51,19.48,0-.05,0-1.35,0-1.4v-3.26Z"/>
          <path class="cls-13" d="M375.37,267.38h2.69c9.48,0,17.17,7.69,17.17,17.17v4.95c0,2.39-1.94,4.33-4.33,4.33h-28.36c-2.39,0-4.33-1.94-4.33-4.33v-4.95c0-9.48,7.69-17.17,17.17-17.17Z"/>
          <path class="cls-1" d="M376.71,270.43c-8.76,0-15.87,6.53-15.87,15.87l.48,10.34,2.73,39.89c3.35,1.09,6.39,1.81,12.66,1.81s9.32-.72,12.66-1.81l2.73-39.89,.48-10.34c0-8.76-7.11-15.87-15.87-15.87Z"/>
          <path class="cls-5" d="M376.81,336.21c4.77,0,9.15-.24,12.63-.65l1.03-15.08c-3.46-.4-7.87,1.33-12.68,1.33h-2.3c-4.75,0-9.11-1.86-12.56-1.47l1.04,15.2c3.51,.42,7.97,.67,12.84,.67Z"/>
          <path class="cls-1" d="M376.81,338.83c6.93,0,13.04-.51,16.74-1.29l.07-13.18c-3.69-3.02-9.4,.06-15.83,.06h-2.3c-6.23,0-11.79-3.19-15.49-.33l.07,13.45c3.69,.78,9.81,1.29,16.74,1.29Z"/>
          <path class="cls-18" d="M360.03,328.64l.05,8.91c3.69,.78,9.81,1.29,16.74,1.29s13.04-.51,16.74-1.29l.04-8.19c-1.94-2.9-4.89-4.99-8.28-5.85-2.32,.4-4.86,.93-7.52,.93h-2.3c-2.61,0-5.11-.56-7.4-1-3.23,.75-6.08,2.6-8.07,5.21Z"/>
          <path class="cls-8" d="M421.38,243.57h-48.6c-3.85,0-7.16,2.7-7.87,6.43l-2.6,13.63c3.25,1.38,7.21,1.97,11.31,1.43l6.77-.89c5.78-.76,11.64,2.03,17.49,2.03s11.71-2.79,17.49-2.03l6.77,.89c3.49,.46,6.89,.09,9.82-.88l-2.7-14.19c-.71-3.73-4.02-6.43-7.87-6.43Z"/>
          <path class="cls-6" d="M435.96,285.36c0-10.23-8.29-18.52-18.52-18.52h0c-10.23,0-18.52,8.29-18.52,18.52v3.26s0,.1,0,.15c.16-10.09,8.38-18.22,18.51-18.22h0c10.13,0,18.35,8.13,18.51,18.22,0-.05,0-.1,0-.15v-3.26Z"/>
          <path class="cls-2" d="M422.13,263.47l-6.77-.89c-5.78-.76-11.64,2.03-17.49,2.03-5.86,0-11.71-2.79-17.49-2.03l-6.77,.89c-9.94,1.31-19.12-4.05-19.12-11.15v-32.04h86.76v32.04c0,7.1-9.18,12.45-19.12,11.15Z"/>
          <path class="cls-13" d="M416.1,267.38h2.69c9.48,0,17.17,7.69,17.17,17.17v4.95c0,2.39-1.94,4.33-4.33,4.33h-28.36c-2.39,0-4.33-1.94-4.33-4.33v-4.95c0-9.48,7.69-17.17,17.17-17.17Z"/>
          <path class="cls-2" d="M403.94,185.53h-12.15c-20.6,0-37.31,16.7-37.31,37.31v21.04c0,1.81,.19,3.56,.52,5.23,1.22-.13,2.53-.2,3.93-.2,19.9,0,19.9,13.7,39.81,13.7s19.9-13.7,39.81-13.7c.76,0,1.48,.02,2.19,.06,.32-1.62,.5-3.32,.5-5.09v-21.04c0-20.6-16.7-37.31-37.31-37.31Z"/>
          <ellipse class="cls-20" cx="365.79" cy="229.24" rx="16.31" ry="4.66" transform="translate(-34.25 67) rotate(-10)"/>
          <path class="cls-1" d="M377.56,220.23l5.3,41.09c-1.6-1-3.56-1.44-5.57-1.09l-10.42,1.84c-2.01,.35-3.7,1.44-4.86,2.92l-8.7-39.33,24.25-5.43Z"/>
          <path class="cls-5" d="M383.71,277.52c1.22-1,2.12-2.36,2.57-3.88-2.66-2.02-5.98-3.21-9.57-3.21-6.15,0-11.48,3.22-14.11,8.36,.85,.86,1.88,1.52,3.02,1.92,1.95,.69,4.13,.22,5.69-1.13h0c1.83-1.59,4.39-2.04,6.66-1.17,1.93,.74,4.14,.43,5.74-.88Z"/>
          <path class="cls-5" d="M378.35,226.35l-.79-6.13-24.25,5.43,.94,4.24c2.73-1.27,6.5-2.41,10.72-3.16,5.37-.95,10.25-1.03,13.37-.39Z"/>
          <ellipse class="cls-20" cx="428.67" cy="229.24" rx="4.66" ry="16.31" transform="translate(128.47 611.59) rotate(-80)"/>
          <path class="cls-1" d="M416.89,220.23l-5.3,41.09c1.6-1,3.56-1.44,5.57-1.09l10.42,1.84c2.01,.35,3.7,1.44,4.86,2.92l8.7-39.33-24.25-5.43Z"/>
          <path class="cls-2" d="M349.72,232.08c-.45-2.53,6.38-5.86,15.26-7.42,8.87-1.56,16.43-.78,16.87,1.76,0,.04,0,.08,.01,.12l.11-.02-4.87-23.13-6.34-12.02c-12.05,.87-18.14,7.56-21.22,14.02-2.61,5.49-3.32,11.7-2.26,17.69l2.41,9.14h.07s-.02-.09-.03-.13Z"/>
          <path class="cls-5" d="M416.02,226.35l.79-6.13,24.25,5.43-.94,4.24c-2.73-1.27-6.5-2.41-10.72-3.16-5.37-.95-10.25-1.03-13.37-.39Z"/>
          <path class="cls-2" d="M444.73,232.08c.45-2.53-6.38-5.86-15.26-7.42-8.87-1.56-16.43-.78-16.87,1.76,0,.04,0,.08-.01,.12l-.11-.02,4.87-23.13,6.34-12.02c12.05,.87,18.14,7.56,21.22,14.02,2.61,5.49,3.32,11.7,2.26,17.69l-2.41,9.14h-.07s.02-.09,.03-.13Z"/>
          <path class="cls-3" d="M368.37,334.63c2.51,.21,5.34,.32,8.34,.32s5.86-.12,8.38-.33v-12.5c0-.26-.22-.5-.56-.61-2.14-.63-4.47-.97-6.93-.97h-2.08c-2.32,0-4.53,.31-6.57,.87-.35,.1-.58,.34-.58,.61v12.6Z"/>
          <path class="cls-20" d="M381.82,323.06h-10.53c-1,0-1.98,.11-2.93,.32v8.74c2.51,.21,5.34,.32,8.34,.32s5.86-.12,8.38-.33v-8.67c-1.05-.25-2.15-.38-3.27-.38Z"/>
          <path class="cls-18" d="M389.28,345.35h-25.45c-1.22,0-2.35-.38-3.33-1.05-2.54-1.73-3.6-5.38-2.68-8.63h0c1.9-6.77,7.34-11.35,13.47-11.35h10.53c6.13,0,11.57,4.58,13.47,11.35h0c.91,3.25-.14,6.9-2.68,8.63-.98,.67-2.12,1.05-3.33,1.05Z"/>
          <path class="cls-16" d="M389.28,342.42h-25.45c-1.22,0-2.35-.33-3.33-.9-2.54-1.49-3.6-4.63-2.68-7.43h0c1.9-5.83,7.34-9.77,13.47-9.77h10.53c6.13,0,11.57,3.94,13.47,9.77h0c.91,2.8-.14,5.94-2.68,7.43-.98,.57-2.12,.9-3.33,.9Z"/>
          <path class="cls-7" d="M381.82,324.32h-10.53c-1,0-1.98,.11-2.93,.32v.76c0,3.79,3.07,6.87,6.87,6.87h2.99c3.79,0,6.87-3.07,6.87-6.87v-.69c-1.05-.25-2.15-.38-3.27-.38Z"/>
          <line class="cls-9" x1="368.37" y1="324.63" x2="384.33" y2="328.53"/>
          <line class="cls-9" x1="385.16" y1="324.63" x2="369.2" y2="328.53"/>
          <path class="cls-5" d="M376.71,275.74h0c6.67,0,12.51,3.53,15.77,8.82-.87-7.94-7.6-14.12-15.77-14.12s-14.97,5.74-15.79,14.14c3.26-5.3,9.11-8.84,15.79-8.84Z"/>
          <path class="cls-1" d="M417.79,270.43c8.76,0,15.87,6.53,15.87,15.87l-.48,10.34-2.73,39.89c-3.35,1.09-6.39,1.81-12.66,1.81-6.28,0-9.32-.72-12.66-1.81l-2.73-39.89-.48-10.34c0-8.76,7.11-15.87,15.87-15.87Z"/>
          <path class="cls-5" d="M417.68,336.21c-4.77,0-9.15-.24-12.63-.65l-1.03-15.08c3.46-.4,7.87,1.33,12.68,1.33h2.3c4.75,0,9.11-1.86,12.56-1.47l-1.04,15.2c-3.51,.42-7.97,.67-12.84,.67Z"/>
          <path class="cls-1" d="M417.68,338.83c-6.93,0-13.04-.51-16.74-1.29l-.07-13.18c3.69-3.02,9.4,.06,15.83,.06h2.3c6.23,0,11.79-3.19,15.49-.33l-.07,13.45c-3.69,.78-9.81,1.29-16.74,1.29Z"/>
          <path class="cls-18" d="M434.47,328.64l-.05,8.91c-3.69,.78-9.81,1.29-16.74,1.29-6.93,0-13.04-.51-16.74-1.29l-.04-8.19c1.94-2.9,4.89-4.99,8.28-5.85,2.32,.4,4.86,.93,7.52,.93h2.3c2.61,0,5.11-.56,7.4-1,3.23,.75,6.08,2.6,8.07,5.21Z"/>
          <path class="cls-5" d="M410.79,277.52c-1.22-1-2.12-2.36-2.57-3.88,2.66-2.02,5.98-3.21,9.57-3.21,6.15,0,11.48,3.22,14.11,8.36-.85,.86-1.88,1.52-3.02,1.92-1.95,.69-4.13,.22-5.69-1.13h0c-1.83-1.59-4.39-2.04-6.66-1.17-1.93,.74-4.14,.43-5.74-.88Z"/>
          <path class="cls-3" d="M426.13,334.63c-2.51,.21-5.34,.32-8.34,.32-3.02,0-5.86-.12-8.38-.33v-12.5c0-.26,.22-.5,.56-.61,2.14-.63,4.47-.97,6.93-.97h2.08c2.32,0,4.53,.31,6.57,.87,.35,.1,.58,.34,.58,.61v12.6Z"/>
          <path class="cls-20" d="M412.67,323.06h10.53c1,0,1.98,.11,2.93,.32v8.74c-2.51,.21-5.34,.32-8.34,.32-3.02,0-5.86-.12-8.38-.33v-8.67c1.05-.25,2.15-.38,3.27-.38Z"/>
          <path class="cls-18" d="M405.22,345.35h25.45c1.22,0,2.35-.38,3.33-1.05,2.54-1.73,3.6-5.38,2.68-8.63h0c-1.9-6.77-7.34-11.35-13.47-11.35h-10.53c-6.13,0-11.57,4.58-13.47,11.35h0c-.91,3.25,.14,6.9,2.68,8.63,.98,.67,2.12,1.05,3.33,1.05Z"/>
          <path class="cls-16" d="M405.22,342.42h25.45c1.22,0,2.35-.33,3.33-.9,2.54-1.49,3.6-4.63,2.68-7.43h0c-1.9-5.83-7.34-9.77-13.47-9.77h-10.53c-6.13,0-11.57,3.94-13.47,9.77h0c-.91,2.8,.14,5.94,2.68,7.43,.98,.57,2.12,.9,3.33,.9Z"/>
          <path class="cls-7" d="M412.67,324.32h10.53c1,0,1.98,.11,2.93,.32v.76c0,3.79-3.07,6.87-6.87,6.87h-2.99c-3.79,0-6.87-3.07-6.87-6.87v-.69c1.05-.25,2.15-.38,3.27-.38Z"/>
          <line class="cls-9" x1="426.13" y1="324.63" x2="410.17" y2="328.53"/>
          <line class="cls-9" x1="409.33" y1="324.63" x2="425.29" y2="328.53"/>
          <path class="cls-5" d="M417.79,275.74h0c-6.67,0-12.51,3.53-15.77,8.82,.87-7.94,7.6-14.12,15.77-14.12,8.21,0,14.97,5.74,15.79,14.14-3.26-5.3-9.11-8.84-15.79-8.84Z"/>
          <path class="cls-1" d="M377.97,275.06h0c-2.27-.87-4.82-.42-6.66,1.17h0c-1.56,1.36-3.74,1.82-5.69,1.13-2.61-.92-4.67-3.19-5.18-6.11h0c-.76-4.32,2.12-8.43,6.44-9.19l10.42-1.84c4.32-.76,8.43,2.12,9.19,6.44h0c.52,2.92-.64,5.75-2.78,7.51-1.6,1.32-3.8,1.62-5.74,.88Z"/>
          <path class="cls-5" d="M377.3,257.72l-10.42,1.84c-2.26,.4-4.13,1.73-5.28,3.52l.42,1.91c1.16-1.49,2.85-2.57,4.86-2.92l10.42-1.84c2.01-.35,3.96,.09,5.57,1.09l-.35-2.72c-1.53-.85-3.36-1.2-5.22-.87Z"/>
          <path class="cls-1" d="M416.48,275.06h0c2.27-.87,4.82-.42,6.66,1.17h0c1.56,1.36,3.74,1.82,5.69,1.13,2.61-.92,4.67-3.19,5.18-6.11h0c.76-4.32-2.12-8.43-6.44-9.19l-10.42-1.84c-4.32-.76-8.43,2.12-9.19,6.44h0c-.52,2.92,.64,5.75,2.78,7.51,1.6,1.32,3.8,1.62,5.74,.88Z"/>
          <path class="cls-5" d="M427.58,259.56l-10.42-1.84c-1.86-.33-3.68,.02-5.22,.87l-.35,2.72c1.6-1,3.56-1.44,5.57-1.09l10.42,1.84c2.01,.35,3.7,1.44,4.86,2.92l.42-1.91c-1.16-1.79-3.02-3.12-5.28-3.52Z"/>
          <circle class="cls-1" cx="397.46" cy="168.62" r="27.55"/>
          <circle class="cls-5" cx="372.31" cy="129.12" r="39.2"/>
          <circle class="cls-5" cx="402.37" cy="117.18" r="27.63"/>
          <circle class="cls-5" cx="426.88" cy="141.99" r="39.2"/>
          <circle class="cls-5" cx="356.23" cy="166.02" r="30.89"/>
          <circle cx="403.62" cy="184.15" r="2.1"/>
        </g>
        <g>
          <path class="cls-13" d="M540.97,225.43h-57.26c-4.54,0-8.44,3.18-9.27,7.57l-7.91,41.48,33.88,10.05c7.84,2.32,16.02,2.32,23.86,0l33.88-10.05-7.91-41.48c-.84-4.39-4.73-7.57-9.27-7.57Z"/>
          <path class="cls-6" d="M510.16,274.67c0-12.05-9.77-21.81-21.81-21.81h0c-12.05,0-21.81,9.77-21.81,21.81v3.84c0,.06,0,.11,0,.17,.19-11.89,9.87-21.47,21.81-21.47h0c11.93,0,21.62,11.06,21.81,22.95,0-.06,0-1.59,0-1.65v-3.84Z"/>
          <path class="cls-13" d="M486.76,253.48h3.17c11.17,0,20.23,9.07,20.23,20.23v5.83c0,2.82-2.29,5.1-5.1,5.1h-33.42c-2.82,0-5.1-2.29-5.1-5.1v-5.83c0-11.17,9.07-20.23,20.23-20.23Z"/>
          <path class="cls-4" d="M488.34,257.08c-10.33,0-18.7,7.69-18.7,18.7l.56,12.19,3.21,62.18c3.94,1.29,7.52,2.13,14.92,2.13s10.98-.84,14.92-2.13l3.21-62.18,.56-12.19c0-10.33-8.37-18.7-18.7-18.7Z"/>
          <path class="cls-17" d="M488.47,362.77c5.62,0,10.78-.28,14.88-.76l1.22-17.77c-4.08-.47-9.28,1.56-14.94,1.56h-2.71c-5.6,0-10.74-2.19-14.79-1.73l1.22,17.91c4.13,.49,9.39,.79,15.12,.79Z"/>
          <path class="cls-1" d="M488.47,365.87c8.16,0,15.37-.6,19.72-1.51l.08-15.52c-4.35-3.55-11.08,.07-18.65,.07h-2.71c-7.34,0-13.89-3.76-18.25-.39l.09,15.84c4.35,.92,11.56,1.51,19.72,1.51Z"/>
          <path class="cls-18" d="M468.69,353.86l.06,10.5c4.35,.92,11.56,1.51,19.72,1.51s15.37-.6,19.72-1.51l.05-9.65c-2.29-3.42-5.76-5.88-9.75-6.9-2.74,.48-5.73,1.1-8.86,1.1h-2.71c-3.08,0-6.02-.66-8.72-1.18-3.8,.88-7.16,3.06-9.5,6.14Z"/>
          <path class="cls-8" d="M540.97,225.43h-57.26c-4.54,0-8.44,3.18-9.27,7.57l-3.06,16.06c3.83,1.62,8.5,2.32,13.32,1.69l7.97-1.05c6.81-.9,13.71,2.39,20.61,2.39s13.8-3.29,20.61-2.39l7.97,1.05c4.11,.54,8.11,.11,11.58-1.03l-3.19-16.72c-.84-4.39-4.73-7.57-9.27-7.57Z"/>
          <path class="cls-6" d="M558.15,274.67c0-12.05-9.77-21.81-21.81-21.81h0c-12.05,0-21.81,9.77-21.81,21.81v3.84c0,.06,0,.11,0,.17,.19-11.89,9.87-21.47,21.81-21.47h0c11.93,0,21.62,9.58,21.81,21.47,0-.06,0-.11,0-.17v-3.84Z"/>
          <path class="cls-2" d="M541.86,248.88l-7.97-1.05c-6.81-.9-13.71,2.39-20.61,2.39-6.9,0-13.8-3.29-20.61-2.39l-7.97,1.05c-11.71,1.54-22.53-4.77-22.53-13.13v-37.74h102.22v37.74c0,8.37-10.82,14.67-22.53,13.13Z"/>
          <path class="cls-13" d="M534.75,253.48h3.17c11.17,0,20.23,9.07,20.23,20.23v5.83c0,2.82-2.29,5.1-5.1,5.1h-33.42c-2.82,0-5.1-2.29-5.1-5.1v-5.83c0-11.17,9.07-20.23,20.23-20.23Z"/>
          <path class="cls-2" d="M520.43,157.05h-14.31c-24.28,0-43.95,19.68-43.95,43.95v24.79c0,2.14,.22,4.2,.62,6.16,1.44-.15,2.98-.23,4.63-.23,23.45,0,23.45,16.15,46.9,16.15s23.45-16.15,46.9-16.15c.89,0,1.75,.02,2.58,.07,.38-1.91,.58-3.92,.58-5.99v-24.79c0-24.28-19.68-43.95-43.95-43.95Z"/>
          <ellipse class="cls-12" cx="475.48" cy="208.55" rx="19.22" ry="5.49" transform="translate(-28.99 85.73) rotate(-10)"/>
          <path class="cls-4" d="M489.35,197.93l6.25,48.41c-1.89-1.18-4.2-1.7-6.56-1.28l-12.28,2.16c-2.36,.42-4.35,1.69-5.73,3.45l-10.25-46.34,28.57-6.4Z"/>
          <path class="cls-17" d="M496.59,265.43c1.44-1.18,2.5-2.78,3.03-4.57-3.14-2.37-7.04-3.79-11.28-3.79-7.24,0-13.52,3.79-16.63,9.85,1,1.01,2.22,1.79,3.56,2.26,2.3,.81,4.87,.26,6.71-1.33h0c2.16-1.87,5.17-2.41,7.84-1.38,2.28,.87,4.88,.51,6.76-1.04Z"/>
          <path class="cls-17" d="M490.28,205.15l-.93-7.22-28.57,6.4,1.11,5c3.22-1.49,7.65-2.84,12.63-3.72,6.33-1.12,12.08-1.21,15.76-.46Z"/>
          <ellipse class="cls-12" cx="549.56" cy="208.55" rx="5.49" ry="19.22" transform="translate(248.75 713.55) rotate(-80)"/>
          <path class="cls-4" d="M535.69,197.93l-6.25,48.41c1.89-1.18,4.2-1.7,6.56-1.28l12.28,2.16c2.36,.42,4.35,1.69,5.73,3.45l10.25-46.34-28.57-6.4Z"/>
          <path class="cls-2" d="M456.55,211.89c-.53-2.99,7.52-6.9,17.97-8.75,10.45-1.84,19.35-.92,19.88,2.07,0,.05,0,.09,.01,.14l.13-.02-5.74-27.26-7.47-14.16c-14.2,1.03-21.37,8.9-25,16.52-3.08,6.47-3.91,13.78-2.67,20.84l2.84,10.77h.08c-.01-.06-.03-.1-.04-.15Z"/>
          <path class="cls-17" d="M534.66,205.15l.93-7.22,28.57,6.4-1.11,5c-3.22-1.49-7.65-2.84-12.63-3.72-6.33-1.12-12.08-1.21-15.76-.46Z"/>
          <path class="cls-2" d="M568.49,211.89c.53-2.99-7.52-6.9-17.97-8.75-10.45-1.84-19.35-.92-19.88,2.07,0,.05,0,.09-.01,.14l-.13-.02,5.74-27.26,7.47-14.16c14.2,1.03,21.37,8.9,25,16.52,3.08,6.47,3.91,13.78,2.67,20.84l-2.84,10.77h-.08c.01-.06,.03-.1,.04-.15Z"/>
          <path class="cls-3" d="M478.51,360.91c2.95,.24,6.29,.38,9.83,.38s6.91-.14,9.87-.38v-14.72c0-.31-.26-.59-.66-.71-2.52-.74-5.27-1.15-8.16-1.15h-2.46c-2.73,0-5.34,.36-7.74,1.02-.42,.11-.68,.4-.68,.72v14.84Z"/>
          <path class="cls-20" d="M494.37,347.28h-12.41c-1.18,0-2.33,.14-3.45,.37v10.3c2.95,.24,6.29,.38,9.83,.38s6.91-.14,9.87-.38v-10.22c-1.24-.29-2.53-.45-3.85-.45Z"/>
          <path class="cls-18" d="M503.16,373.54h-29.99c-1.43,0-2.77-.45-3.92-1.24-2.99-2.04-4.24-6.34-3.16-10.17h0c2.24-7.98,8.65-13.38,15.87-13.38h12.41c7.23,0,13.63,5.4,15.87,13.38h0c1.08,3.83-.17,8.13-3.16,10.17-1.15,.79-2.49,1.24-3.92,1.24Z"/>
          <path class="cls-16" d="M503.16,370.09h-29.99c-1.43,0-2.77-.39-3.92-1.06-2.99-1.76-4.24-5.46-3.16-8.75h0c2.24-6.87,8.65-11.52,15.87-11.52h12.41c7.23,0,13.63,4.65,15.87,11.52h0c1.08,3.3-.17,7-3.16,8.75-1.15,.68-2.49,1.06-3.92,1.06Z"/>
          <path class="cls-7" d="M494.37,348.76h-12.41c-1.18,0-2.33,.14-3.45,.37v.9c0,4.47,3.62,8.09,8.09,8.09h3.52c4.47,0,8.09-3.62,8.09-8.09v-.82c-1.24-.29-2.53-.45-3.85-.45Z"/>
          <line class="cls-9" x1="478.51" y1="349.13" x2="497.32" y2="353.72"/>
          <line class="cls-9" x1="498.31" y1="349.13" x2="479.5" y2="353.72"/>
          <path class="cls-17" d="M488.34,263.33h0c7.86,0,14.74,4.16,18.58,10.39-1.03-9.36-8.95-16.64-18.58-16.64s-17.64,6.76-18.6,16.67c3.84-6.25,10.73-10.42,18.6-10.42Z"/>
          <path class="cls-4" d="M536.74,257.08c10.33,0,18.7,7.69,18.7,18.7l-.56,12.19-3.21,62.18c-3.94,1.29-7.52,2.13-14.92,2.13-7.4,0-10.98-.84-14.92-2.13l-3.21-62.18-.56-12.19c0-10.33,8.37-18.7,18.7-18.7Z"/>
          <path class="cls-17" d="M536.62,362.77c-5.62,0-10.78-.28-14.88-.76l-1.22-17.77c4.08-.47,9.28,1.56,14.94,1.56h2.71c5.6,0,10.74-2.19,14.79-1.73l-1.22,17.91c-4.13,.49-9.39,.79-15.12,.79Z"/>
          <path class="cls-1" d="M536.62,365.87c-8.16,0-15.37-.6-19.72-1.51l-.08-15.52c4.35-3.55,11.08,.07,18.65,.07h2.71c7.34,0,13.89-3.76,18.25-.39l-.09,15.84c-4.35,.92-11.56,1.51-19.72,1.51Z"/>
          <path class="cls-18" d="M556.39,353.86l-.06,10.5c-4.35,.92-11.56,1.51-19.72,1.51-8.16,0-15.37-.6-19.72-1.51l-.05-9.65c2.29-3.42,5.76-5.88,9.75-6.9,2.74,.48,5.73,1.1,8.86,1.1h2.71c3.08,0,6.02-.66,8.72-1.18,3.8,.88,7.16,3.06,9.5,6.14Z"/>
          <path class="cls-17" d="M528.49,265.43c-1.44-1.18-2.5-2.78-3.03-4.57,3.14-2.37,7.04-3.79,11.28-3.79,7.24,0,13.52,3.79,16.63,9.85-1,1.01-2.22,1.79-3.56,2.26-2.3,.81-4.87,.26-6.71-1.33h0c-2.16-1.87-5.17-2.41-7.84-1.38-2.28,.87-4.88,.51-6.76-1.04Z"/>
          <path class="cls-3" d="M546.57,360.91c-2.95,.24-6.29,.38-9.83,.38-3.55,0-6.91-.14-9.87-.38v-14.72c0-.31,.26-.59,.66-.71,2.52-.74,5.27-1.15,8.16-1.15h2.46c2.73,0,5.34,.36,7.74,1.02,.42,.11,.68,.4,.68,.72v14.84Z"/>
          <path class="cls-20" d="M530.72,347.28h12.41c1.18,0,2.33,.14,3.45,.37v10.3c-2.95,.24-6.29,.38-9.83,.38-3.55,0-6.91-.14-9.87-.38v-10.22c1.24-.29,2.53-.45,3.85-.45Z"/>
          <path class="cls-18" d="M521.93,373.54h29.99c1.43,0,2.77-.45,3.92-1.24,2.99-2.04,4.24-6.34,3.16-10.17h0c-2.24-7.98-8.65-13.38-15.87-13.38h-12.41c-7.23,0-13.63,5.4-15.87,13.38h0c-1.08,3.83,.17,8.13,3.16,10.17,1.15,.79,2.49,1.24,3.92,1.24Z"/>
          <path class="cls-16" d="M521.93,370.09h29.99c1.43,0,2.77-.39,3.92-1.06,2.99-1.76,4.24-5.46,3.16-8.75h0c-2.24-6.87-8.65-11.52-15.87-11.52h-12.41c-7.23,0-13.63,4.65-15.87,11.52h0c-1.08,3.3,.17,7,3.16,8.75,1.15,.68,2.49,1.06,3.92,1.06Z"/>
          <path class="cls-7" d="M530.72,348.76h12.41c1.18,0,2.33,.14,3.45,.37v.9c0,4.47-3.62,8.09-8.09,8.09h-3.52c-4.47,0-8.09-3.62-8.09-8.09v-.82c1.24-.29,2.53-.45,3.85-.45Z"/>
          <line class="cls-9" x1="546.57" y1="349.13" x2="527.77" y2="353.72"/>
          <line class="cls-9" x1="526.78" y1="349.13" x2="545.59" y2="353.72"/>
          <path class="cls-17" d="M536.74,263.33h0c-7.86,0-14.74,4.16-18.58,10.39,1.03-9.36,8.95-16.64,18.58-16.64,9.68,0,17.64,6.76,18.6,16.67-3.84-6.25-10.73-10.42-18.6-10.42Z"/>
          <path class="cls-4" d="M489.83,262.53h0c-2.67-1.02-5.68-.49-7.84,1.38h0c-1.84,1.6-4.41,2.15-6.71,1.33-3.08-1.09-5.5-3.75-6.1-7.2h0c-.9-5.08,2.5-9.93,7.58-10.83l12.28-2.16c5.08-.9,9.93,2.5,10.83,7.58h0c.61,3.44-.75,6.78-3.27,8.85-1.88,1.55-4.48,1.91-6.76,1.04Z"/>
          <path class="cls-17" d="M489.04,242.1l-12.28,2.16c-2.67,.47-4.86,2.04-6.23,4.15l.5,2.25c1.37-1.75,3.36-3.03,5.73-3.45l12.28-2.16c2.36-.42,4.67,.1,6.56,1.28l-.41-3.21c-1.81-1-3.95-1.42-6.15-1.03Z"/>
          <path class="cls-4" d="M535.2,262.53h0c2.67-1.02,5.68-.49,7.84,1.38h0c1.84,1.6,4.41,2.15,6.71,1.33,3.08-1.09,5.5-3.75,6.1-7.2h0c.9-5.08-2.5-9.93-7.58-10.83l-12.28-2.16c-5.08-.9-9.93,2.5-10.83,7.58h0c-.61,3.44,.75,6.78,3.27,8.85,1.88,1.55,4.48,1.91,6.76,1.04Z"/>
          <path class="cls-17" d="M548.27,244.27l-12.28-2.16c-2.19-.39-4.34,.03-6.15,1.03l-.41,3.21c1.89-1.18,4.2-1.7,6.56-1.28l12.28,2.16c2.36,.42,4.35,1.69,5.73,3.45l.5-2.25c-1.36-2.11-3.56-3.68-6.23-4.15Z"/>
          <circle class="cls-4" cx="512.79" cy="137.12" r="32.46"/>
          <circle class="cls-17" cx="503.05" cy="62.24" r="58.23"/>
          <circle class="cls-17" cx="551.01" cy="59.36" r="41.05"/>
          <circle class="cls-17" cx="574.06" cy="105.73" r="58.23"/>
          <circle class="cls-17" cx="463.22" cy="106.82" r="45.88"/>
          <circle cx="512.62" cy="156.78" r="2.97"/>
        </g>
      </g>
    </g>
  </g>
</svg>