<?xml version="1.0" encoding="UTF-8"?>
<svg id="_레이어_2" data-name="레이어 2" xmlns="http://www.w3.org/2000/svg" viewBox="0 0 640 400">
  <defs>
    <style>
      .cls-1 {
        fill: #fff;
      }

      .cls-2 {
        stroke: #57addd;
        stroke-linecap: round;
        stroke-linejoin: round;
        stroke-width: 3px;
      }

      .cls-2, .cls-3 {
        fill: none;
      }

      .cls-4 {
        fill: #71d0ea;
      }

      .cls-5, .cls-6 {
        fill: #55b6c6;
      }

      .cls-7 {
        fill: #e87813;
      }

      .cls-6, .cls-8 {
        opacity: .5;
      }

      .cls-9 {
        fill: #e0e2e2;
      }

      .cls-10 {
        fill: #99e5ff;
      }

      .cls-11 {
        fill: #e56915;
      }

      .cls-12 {
        fill: #5590e5;
      }

      .cls-13 {
        fill: #edefef;
      }

      .cls-14 {
        fill: #86dbf2;
      }

      .cls-15 {
        fill: #275ead;
      }

      .cls-8 {
        fill: #64c2d8;
      }

      .cls-16 {
        fill: #396bc4;
      }

      .cls-17 {
        opacity: .1;
      }

      .cls-18 {
        fill: #959999;
      }

      .cls-19 {
        fill: #42b0f4;
      }

      .cls-20 {
        fill: #adb6bc;
      }
    </style>
  </defs>
  <g id="_레이어_1-2" data-name="레이어 1">
    <g>
      <rect class="cls-3" width="640" height="400"/>
      <g>
        <path class="cls-18" d="M272.54,279.82h157.77v1.27c0,4.44-3.61,8.05-8.05,8.05h-141.67c-4.44,0-8.05-3.61-8.05-8.05v-1.27h0Z"/>
        <path class="cls-18" d="M75.13,279.82h225.39v.48c0,4.88-3.96,8.85-8.85,8.85H83.98c-4.88,0-8.85-3.96-8.85-8.85v-.48h0Z"/>
        <g>
          <path class="cls-16" d="M399.8,215.02h-75.34c-5.97,0-11.1,4.19-12.2,9.96l-10.4,54.58,44.58,13.22c10.31,3.06,21.08,3.06,31.39,0l44.58-13.22-10.4-54.58c-1.1-5.78-6.23-9.96-12.2-9.96Z"/>
          <path class="cls-12" d="M359.26,279.8c0-15.85-12.85-28.7-28.7-28.7h0c-15.85,0-28.7,12.85-28.7,28.7v5.06c0,.08,0,.15,.01,.23,.24-15.64,12.99-28.25,28.69-28.25h0c15.7,0,28.45,14.55,28.69,30.19,0-.08,.01-2.09,.01-2.17v-5.06Z"/>
          <path class="cls-16" d="M329.08,251.92h2.94c15.03,0,27.23,12.2,27.23,27.23v6.9c0,3.79-3.08,6.87-6.87,6.87h-43.66c-3.79,0-6.87-3.08-6.87-6.87v-6.9c0-15.03,12.2-27.23,27.23-27.23Z"/>
          <path class="cls-7" d="M330.56,256.66c-13.59,0-24.6,10.12-24.6,24.6l.74,16.04,4.23,61.84c5.19,1.69,9.9,2.8,19.63,2.8s14.44-1.11,19.63-2.8l4.23-61.84,.74-16.04c0-13.59-11.01-24.6-24.6-24.6Z"/>
          <path class="cls-11" d="M330.72,358.62c7.39,0,14.19-.37,19.58-1l1.6-23.38c-5.37-.62-12.2,2.06-19.66,2.06h-3.56c-7.36,0-14.13-2.88-19.46-2.28l1.61,23.56c5.44,.65,12.35,1.04,19.9,1.04Z"/>
          <path class="cls-10" d="M330.72,362.7c10.74,0,20.22-.79,25.94-1.99l.11-20.43c-5.72-4.68-14.58,.1-24.53,.1h-3.56c-9.65,0-18.28-4.95-24.01-.52l.11,20.85c5.72,1.2,15.21,1.99,25.94,1.99Z"/>
          <path class="cls-14" d="M304.7,346.89l.07,13.81c5.72,1.2,15.21,1.99,25.94,1.99s20.22-.79,25.94-1.99l.07-12.7c-3.01-4.49-7.58-7.74-12.83-9.07-3.6,.63-7.54,1.44-11.66,1.44h-3.56c-4.05,0-7.92-.87-11.47-1.55-5,1.16-9.42,4.03-12.51,8.08Z"/>
          <path class="cls-15" d="M399.8,215.02h-75.34c-5.97,0-11.1,4.19-12.2,9.96l-4.03,21.13c5.04,2.14,11.18,3.06,17.53,2.22l10.49-1.38c8.96-1.18,18.04,3.15,27.11,3.15s18.15-4.33,27.11-3.15l10.49,1.38c5.41,.71,10.67,.15,15.23-1.36l-4.19-21.99c-1.1-5.78-6.23-9.96-12.2-9.96Z"/>
          <path class="cls-12" d="M422.4,279.8c0-15.85-12.85-28.7-28.7-28.7h0c-15.85,0-28.7,12.85-28.7,28.7v5.06c0,.08,0,.15,.01,.23,.24-15.64,12.99-28.25,28.69-28.25h0c15.7,0,28.45,12.61,28.69,28.25,0-.08,.01-.15,.01-.23v-5.06Z"/>
          <path class="cls-1" d="M400.96,245.87l-10.49-1.38c-8.96-1.18-18.04,3.15-27.11,3.15-9.08,0-18.15-4.33-27.11-3.15l-10.49,1.38c-15.4,2.03-29.64-6.27-29.64-17.28v-49.66h134.49v49.66c0,11.01-14.24,19.31-29.64,17.28Z"/>
          <path class="cls-16" d="M392.23,251.92h2.94c15.03,0,27.23,12.2,27.23,27.23v6.9c0,3.79-3.08,6.87-6.87,6.87h-43.66c-3.79,0-6.87-3.08-6.87-6.87v-6.9c0-15.03,12.2-27.23,27.23-27.23Z"/>
          <path class="cls-1" d="M372.77,125.05h-18.83c-31.94,0-57.83,25.89-57.83,57.83v32.62c0,2.81,.29,5.52,.81,8.1,1.89-.2,3.92-.31,6.1-.31,30.86,0,30.86,21.24,61.71,21.24s30.85-21.24,61.71-21.24c1.17,0,2.3,.03,3.39,.09,.5-2.52,.77-5.15,.77-7.89v-32.62c0-31.94-25.89-57.83-57.83-57.83Z"/>
          <path class="cls-11" d="M341.41,267.65c1.89-1.56,3.29-3.65,3.99-6.01-4.13-3.12-9.26-4.98-14.84-4.98-9.53,0-17.79,4.99-21.87,12.96,1.31,1.33,2.92,2.35,4.69,2.98,3.03,1.07,6.4,.35,8.83-1.76h0c2.84-2.47,6.81-3.17,10.32-1.82,3,1.15,6.42,.67,8.9-1.37Z"/>
          <circle class="cls-7" cx="381.13" cy="108.85" r="73.87"/>
          <path class="cls-9" d="M317.62,356.18c3.89,.32,8.28,.5,12.93,.5s9.09-.18,12.99-.51v-19.37c0-.41-.34-.78-.87-.94-3.31-.97-6.94-1.51-10.74-1.51h-3.23c-3.59,0-7.02,.48-10.18,1.35-.55,.15-.9,.53-.9,.95v19.53Z"/>
          <path class="cls-20" d="M338.48,338.25h-16.32c-1.55,0-3.06,.18-4.53,.49v13.56c3.89,.32,8.28,.5,12.93,.5s9.09-.18,12.99-.51v-13.45c-1.63-.39-3.33-.59-5.06-.59Z"/>
          <path class="cls-20" d="M350.04,372.79h-39.45c-1.88,0-3.65-.59-5.16-1.63-3.93-2.69-5.57-8.34-4.16-13.38h0c2.95-10.5,11.38-17.6,20.88-17.6h16.32c9.51,0,17.93,7.1,20.88,17.6h0c1.42,5.04-.22,10.69-4.16,13.38-1.51,1.03-3.28,1.63-5.16,1.63Z"/>
          <path class="cls-1" d="M350.04,368.26h-39.45c-1.88,0-3.65-.51-5.16-1.4-3.93-2.31-5.57-7.18-4.16-11.52h0c2.95-9.04,11.38-15.15,20.88-15.15h16.32c9.51,0,17.93,6.11,20.88,15.15h0c1.42,4.34-.22,9.2-4.16,11.52-1.51,.89-3.28,1.4-5.16,1.4Z"/>
          <path class="cls-13" d="M338.48,340.19h-16.32c-1.55,0-3.06,.18-4.53,.49v1.18c0,5.88,4.77,10.64,10.64,10.64h4.63c5.88,0,10.64-4.77,10.64-10.64v-1.07c-1.63-.39-3.33-.59-5.06-.59Z"/>
          <line class="cls-2" x1="317.62" y1="340.68" x2="342.37" y2="346.72"/>
          <line class="cls-2" x1="343.66" y1="340.68" x2="318.92" y2="346.72"/>
          <path class="cls-11" d="M330.56,264.88h0c10.34,0,19.4,5.47,24.45,13.67-1.35-12.31-11.78-21.89-24.45-21.89s-23.21,8.89-24.47,21.93c5.05-8.22,14.12-13.7,24.47-13.7Z"/>
          <path class="cls-7" d="M394.23,256.66c13.59,0,24.6,10.12,24.6,24.6l-.74,16.04-4.23,61.84c-5.19,1.69-9.9,2.8-19.63,2.8-9.73,0-14.44-1.11-19.63-2.8l-4.23-61.84-.74-16.04c0-13.59,11.01-24.6,24.6-24.6Z"/>
          <path class="cls-11" d="M394.07,358.62c-7.39,0-14.19-.37-19.58-1l-1.6-23.38c5.37-.62,12.2,2.06,19.66,2.06h3.56c7.36,0,14.13-2.88,19.46-2.28l-1.61,23.56c-5.44,.65-12.35,1.04-19.9,1.04Z"/>
          <path class="cls-10" d="M394.07,362.7c-10.74,0-20.22-.79-25.94-1.99l-.11-20.43c5.72-4.68,14.58,.1,24.53,.1h3.56c9.65,0,18.28-4.95,24.01-.52l-.11,20.85c-5.72,1.2-15.21,1.99-25.94,1.99Z"/>
          <path class="cls-14" d="M420.09,346.89l-.07,13.81c-5.72,1.2-15.21,1.99-25.94,1.99-10.74,0-20.22-.79-25.94-1.99l-.07-12.7c3.01-4.49,7.58-7.74,12.83-9.07,3.6,.63,7.54,1.44,11.66,1.44h3.56c4.05,0,7.92-.87,11.47-1.55,5,1.16,9.42,4.03,12.51,8.08Z"/>
          <path class="cls-11" d="M383.38,267.65c-1.89-1.56-3.29-3.65-3.99-6.01,4.13-3.12,9.26-4.98,14.84-4.98,9.53,0,17.79,4.99,21.87,12.96-1.31,1.33-2.92,2.35-4.69,2.98-3.03,1.07-6.4,.35-8.83-1.76h0c-2.84-2.47-6.81-3.17-10.32-1.82-3,1.15-6.42,.67-8.9-1.37Z"/>
          <path class="cls-9" d="M407.17,356.18c-3.89,.32-8.28,.5-12.93,.5-4.68,0-9.09-.18-12.99-.51v-19.37c0-.41,.34-.78,.87-.94,3.31-.97,6.94-1.51,10.74-1.51h3.23c3.59,0,7.02,.48,10.18,1.35,.55,.15,.9,.53,.9,.95v19.53Z"/>
          <path class="cls-20" d="M386.31,338.25h16.32c1.55,0,3.06,.18,4.53,.49v13.56c-3.89,.32-8.28,.5-12.93,.5-4.68,0-9.09-.18-12.99-.51v-13.45c1.63-.39,3.33-.59,5.06-.59Z"/>
          <path class="cls-20" d="M374.75,372.79h39.45c1.88,0,3.65-.59,5.16-1.63,3.93-2.69,5.57-8.34,4.16-13.38h0c-2.95-10.5-11.38-17.6-20.88-17.6h-16.32c-9.51,0-17.93,7.1-20.88,17.6h0c-1.42,5.04,.22,10.69,4.16,13.38,1.51,1.03,3.28,1.63,5.16,1.63Z"/>
          <path class="cls-1" d="M374.75,368.26h39.45c1.88,0,3.65-.51,5.16-1.4,3.93-2.31,5.57-7.18,4.16-11.52h0c-2.95-9.04-11.38-15.15-20.88-15.15h-16.32c-9.51,0-17.93,6.11-20.88,15.15h0c-1.42,4.34,.22,9.2,4.16,11.52,1.51,.89,3.28,1.4,5.16,1.4Z"/>
          <path class="cls-13" d="M386.31,340.19h16.32c1.55,0,3.06,.18,4.53,.49v1.18c0,5.88-4.77,10.64-10.64,10.64h-4.63c-5.88,0-10.64-4.77-10.64-10.64v-1.07c1.63-.39,3.33-.59,5.06-.59Z"/>
          <line class="cls-2" x1="407.17" y1="340.68" x2="382.42" y2="346.72"/>
          <line class="cls-2" x1="381.13" y1="340.68" x2="405.87" y2="346.72"/>
          <path class="cls-11" d="M394.23,264.88h0c-10.34,0-19.4,5.47-24.45,13.67,1.35-12.31,11.78-21.89,24.45-21.89,12.73,0,23.21,8.89,24.47,21.93-5.05-8.22-14.12-13.7-24.47-13.7Z"/>
          <path class="cls-17" d="M342.02,76.68c-3.2-5.99-10.65-8.26-16.64-5.06-4.06,2.17-6.41,6.28-6.51,10.58-.07,3.21,1.66,6.19,4.41,7.84,3.23,1.93,5.12,5.49,4.94,9.24-.16,3.21,1.36,6.31,4.06,8.03,3.62,2.31,8.35,2.64,12.41,.48,5.99-3.2,8.26-10.65,5.06-16.64l-7.73-14.47Z"/>
          <g>
            <circle cx="371.73" cy="93.5" r="6.55"/>
            <circle cx="393.63" cy="115.4" r="6.55"/>
            <circle cx="368.02" cy="119.93" r="2.46"/>
            <circle class="cls-1" cx="372.31" cy="91.19" r="2.86"/>
            <circle class="cls-1" cx="394.21" cy="113.09" r="2.86"/>
          </g>
          <path class="cls-17" d="M404.83,118.62l-15.42-5.59c-6.39-2.31-13.44,.99-15.76,7.37-1.57,4.33-.56,8.96,2.24,12.21,2.09,2.44,5.38,3.5,8.53,2.88,3.69-.72,7.48,.65,9.85,3.57,2.03,2.49,5.23,3.78,8.39,3.25,4.23-.71,7.98-3.62,9.54-7.94,2.31-6.39-.99-13.44-7.37-15.76Z"/>
        </g>
        <g>
          <path class="cls-16" d="M255.94,215.02h-75.34c-5.97,0-11.1,4.19-12.2,9.96l-10.4,54.58,44.58,13.22c10.31,3.06,21.08,3.06,31.39,0l44.58-13.22-10.4-54.58c-1.1-5.78-6.23-9.96-12.2-9.96Z"/>
          <path class="cls-12" d="M215.4,279.8c0-15.85-12.85-28.7-28.7-28.7h0c-15.85,0-28.7,12.85-28.7,28.7v5.06c0,.08,0,.15,.01,.23,.24-15.64,12.99-28.25,28.69-28.25h0c15.7,0,28.45,14.55,28.69,30.19,0-.08,.01-2.09,.01-2.17v-5.06Z"/>
          <path class="cls-16" d="M185.22,251.92h2.94c15.03,0,27.23,12.2,27.23,27.23v6.9c0,3.79-3.08,6.87-6.87,6.87h-43.66c-3.79,0-6.87-3.08-6.87-6.87v-6.9c0-15.03,12.2-27.23,27.23-27.23Z"/>
          <path class="cls-5" d="M186.7,256.66c-13.59,0-24.6,10.12-24.6,24.6l.74,16.04,4.23,61.84c5.19,1.69,9.9,2.8,19.63,2.8s14.44-1.11,19.63-2.8l4.23-61.84,.74-16.04c0-13.59-11.01-24.6-24.6-24.6Z"/>
          <path class="cls-19" d="M186.86,358.62c7.39,0,14.19-.37,19.58-1l1.6-23.38c-5.37-.62-12.2,2.06-19.66,2.06h-3.56c-7.36,0-14.13-2.88-19.46-2.28l1.61,23.56c5.44,.65,12.35,1.04,19.9,1.04Z"/>
          <path class="cls-10" d="M186.86,362.7c10.74,0,20.22-.79,25.94-1.99l.11-20.43c-5.72-4.68-14.58,.1-24.53,.1h-3.56c-9.65,0-18.28-4.95-24.01-.52l.11,20.85c5.72,1.2,15.21,1.99,25.94,1.99Z"/>
          <path class="cls-14" d="M160.84,346.89l.07,13.81c5.72,1.2,15.21,1.99,25.94,1.99s20.22-.79,25.94-1.99l.07-12.7c-3.01-4.49-7.58-7.74-12.83-9.07-3.6,.63-7.54,1.44-11.66,1.44h-3.56c-4.05,0-7.92-.87-11.47-1.55-5,1.16-9.42,4.03-12.51,8.08Z"/>
          <path class="cls-15" d="M255.94,215.02h-75.34c-5.97,0-11.1,4.19-12.2,9.96l-4.03,21.13c5.04,2.14,11.18,3.06,17.53,2.22l10.49-1.38c8.96-1.18,18.04,3.15,27.11,3.15s18.15-4.33,27.11-3.15l10.49,1.38c5.41,.71,10.67,.15,15.23-1.36l-4.19-21.99c-1.1-5.78-6.23-9.96-12.2-9.96Z"/>
          <path class="cls-12" d="M278.54,279.8c0-15.85-12.85-28.7-28.7-28.7h0c-15.85,0-28.7,12.85-28.7,28.7v5.06c0,.08,0,.15,.01,.23,.24-15.64,12.99-28.25,28.69-28.25h0c15.7,0,28.45,12.61,28.69,28.25,0-.08,.01-.15,.01-.23v-5.06Z"/>
          <path class="cls-1" d="M257.1,245.87l-10.49-1.38c-8.96-1.18-18.04,3.15-27.11,3.15-9.08,0-18.15-4.33-27.11-3.15l-10.49,1.38c-15.4,2.03-29.64-6.27-29.64-17.28v-49.66h134.49v49.66c0,11.01-14.24,19.31-29.64,17.28Z"/>
          <path class="cls-16" d="M248.37,251.92h2.94c15.03,0,27.23,12.2,27.23,27.23v6.9c0,3.79-3.08,6.87-6.87,6.87h-43.66c-3.79,0-6.87-3.08-6.87-6.87v-6.9c0-15.03,12.2-27.23,27.23-27.23Z"/>
          <path class="cls-1" d="M228.91,125.05h-18.83c-31.94,0-57.83,25.89-57.83,57.83v32.62c0,2.81,.29,5.52,.81,8.1,1.89-.2,3.92-.31,6.1-.31,30.86,0,30.86,21.24,61.71,21.24s30.85-21.24,61.71-21.24c1.17,0,2.3,.03,3.39,.09,.5-2.52,.77-5.15,.77-7.89v-32.62c0-31.94-25.89-57.83-57.83-57.83Z"/>
          <ellipse class="cls-20" cx="169.76" cy="192.81" rx="25.29" ry="7.23" transform="translate(-30.9 32.41) rotate(-10)"/>
          <path class="cls-19" d="M189.24,188.33l-1.23-9.5-37.58,8.42,1.45,6.57c4.24-1.97,10.07-3.74,16.62-4.9,8.32-1.47,15.9-1.6,20.73-.6Z"/>
          <ellipse class="cls-20" cx="267.24" cy="192.81" rx="7.23" ry="25.29" transform="translate(30.95 422.51) rotate(-80)"/>
          <path class="cls-1" d="M144.86,197.2c-.69-3.93,9.9-9.08,23.65-11.51,13.75-2.43,25.47-1.21,26.16,2.72,.01,.06,.01,.12,.02,.18l.17-.03-7.55-35.86-9.83-18.64c-18.68,1.35-28.12,11.71-32.89,21.73-4.05,8.51-5.15,18.13-3.51,27.42l3.73,14.17,.1-.02c-.02-.06-.04-.12-.05-.18Z"/>
          <path class="cls-19" d="M247.64,188.33l1.23-9.5,37.58,8.42-1.45,6.57c-4.24-1.97-10.07-3.74-16.62-4.9-8.32-1.47-15.9-1.6-20.73-.6Z"/>
          <path class="cls-1" d="M292.14,197.2c.69-3.93-9.9-9.08-23.65-11.51-13.75-2.43-25.47-1.21-26.16,2.72-.01,.06-.01,.12-.02,.18l-.17-.03,7.55-35.86,9.83-18.64c18.68,1.35,28.12,11.71,32.89,21.73,4.05,8.51,5.15,18.13,3.51,27.42l-3.73,14.17-.1-.02c.02-.06,.04-.12,.05-.18Z"/>
          <path class="cls-9" d="M173.76,356.18c3.89,.32,8.28,.5,12.93,.5s9.09-.18,12.99-.51v-19.37c0-.41-.34-.78-.87-.94-3.31-.97-6.94-1.51-10.74-1.51h-3.23c-3.59,0-7.02,.48-10.18,1.35-.55,.15-.9,.53-.9,.95v19.53Z"/>
          <path class="cls-20" d="M194.62,338.25h-16.32c-1.55,0-3.06,.18-4.53,.49v13.56c3.89,.32,8.28,.5,12.93,.5s9.09-.18,12.99-.51v-13.45c-1.63-.39-3.33-.59-5.06-.59Z"/>
          <path class="cls-20" d="M206.18,372.79h-39.45c-1.88,0-3.65-.59-5.16-1.63-3.93-2.69-5.57-8.34-4.16-13.38h0c2.95-10.5,11.38-17.6,20.88-17.6h16.32c9.51,0,17.93,7.1,20.88,17.6h0c1.42,5.04-.22,10.69-4.16,13.38-1.51,1.03-3.28,1.63-5.16,1.63Z"/>
          <path class="cls-1" d="M206.18,368.26h-39.45c-1.88,0-3.65-.51-5.16-1.4-3.93-2.31-5.57-7.18-4.16-11.52h0c2.95-9.04,11.38-15.15,20.88-15.15h16.32c9.51,0,17.93,6.11,20.88,15.15h0c1.42,4.34-.22,9.2-4.16,11.52-1.51,.89-3.28,1.4-5.16,1.4Z"/>
          <path class="cls-13" d="M194.62,340.19h-16.32c-1.55,0-3.06,.18-4.53,.49v1.18c0,5.88,4.77,10.64,10.64,10.64h4.63c5.88,0,10.64-4.77,10.64-10.64v-1.07c-1.63-.39-3.33-.59-5.06-.59Z"/>
          <line class="cls-2" x1="173.76" y1="340.68" x2="198.51" y2="346.72"/>
          <line class="cls-2" x1="199.8" y1="340.68" x2="175.06" y2="346.72"/>
          <path class="cls-4" d="M250.37,256.66c13.59,0,24.6,10.12,24.6,24.6l-.74,16.04-4.23,61.84c-5.19,1.69-9.9,2.8-19.63,2.8-9.73,0-14.44-1.11-19.63-2.8l-4.23-61.84-.74-16.04c0-13.59,11.01-24.6,24.6-24.6Z"/>
          <path class="cls-19" d="M250.21,358.62c-7.39,0-14.19-.37-19.58-1l-1.6-23.38c5.37-.62,12.2,2.06,19.66,2.06h3.56c7.36,0,14.13-2.88,19.46-2.28l-1.61,23.56c-5.44,.65-12.35,1.04-19.9,1.04Z"/>
          <path class="cls-10" d="M250.21,362.7c-10.74,0-20.22-.79-25.94-1.99l-.11-20.43c5.72-4.68,14.58,.1,24.53,.1h3.56c9.65,0,18.28-4.95,24.01-.52l-.11,20.85c-5.72,1.2-15.21,1.99-25.94,1.99Z"/>
          <path class="cls-14" d="M276.23,346.89l-.07,13.81c-5.72,1.2-15.21,1.99-25.94,1.99-10.74,0-20.22-.79-25.94-1.99l-.07-12.7c3.01-4.49,7.58-7.74,12.83-9.07,3.6,.63,7.54,1.44,11.66,1.44h3.56c4.05,0,7.92-.87,11.47-1.55,5,1.16,9.42,4.03,12.51,8.08Z"/>
          <path class="cls-9" d="M263.31,356.18c-3.89,.32-8.28,.5-12.93,.5-4.68,0-9.09-.18-12.99-.51v-19.37c0-.41,.34-.78,.87-.94,3.31-.97,6.94-1.51,10.74-1.51h3.23c3.59,0,7.02,.48,10.18,1.35,.55,.15,.9,.53,.9,.95v19.53Z"/>
          <path class="cls-20" d="M242.45,338.25h16.32c1.55,0,3.06,.18,4.53,.49v13.56c-3.89,.32-8.28,.5-12.93,.5-4.68,0-9.09-.18-12.99-.51v-13.45c1.63-.39,3.33-.59,5.06-.59Z"/>
          <path class="cls-20" d="M230.89,372.79h39.45c1.88,0,3.65-.59,5.16-1.63,3.93-2.69,5.57-8.34,4.16-13.38h0c-2.95-10.5-11.38-17.6-20.88-17.6h-16.32c-9.51,0-17.93,7.1-20.88,17.6h0c-1.42,5.04,.22,10.69,4.16,13.38,1.51,1.03,3.28,1.63,5.16,1.63Z"/>
          <path class="cls-1" d="M230.89,368.26h39.45c1.88,0,3.65-.51,5.16-1.4,3.93-2.31,5.57-7.18,4.16-11.52h0c-2.95-9.04-11.38-15.15-20.88-15.15h-16.32c-9.51,0-17.93,6.11-20.88,15.15h0c-1.42,4.34,.22,9.2,4.16,11.52,1.51,.89,3.28,1.4,5.16,1.4Z"/>
          <path class="cls-13" d="M242.45,340.19h16.32c1.55,0,3.06,.18,4.53,.49v1.18c0,5.88-4.77,10.64-10.64,10.64h-4.63c-5.88,0-10.64-4.77-10.64-10.64v-1.07c1.63-.39,3.33-.59,5.06-.59Z"/>
          <line class="cls-2" x1="263.31" y1="340.68" x2="238.56" y2="346.72"/>
          <line class="cls-2" x1="237.27" y1="340.68" x2="262.01" y2="346.72"/>
          <path class="cls-19" d="M250.37,264.88h0c-10.34,0-19.4,5.47-24.45,13.67,1.35-12.31,11.78-21.89,24.45-21.89,12.73,0,23.21,8.89,24.47,21.93-5.05-8.22-14.12-13.7-24.47-13.7Z"/>
          <g>
            <path class="cls-17" d="M199.03,296.27c-6.32-2.49-13.46,.61-15.95,6.93-.09,.22-.16,.44-.24,.67l3.29,8.23c3.16,1,5.91,3.25,7.43,6.47,3.66-.56,7.35,.91,9.61,3.86,1.36,1.77,3.31,2.98,5.44,3.4l1.72-25.11-11.3-4.45Z"/>
            <path class="cls-4" d="M215.86,230.57l-20.76,60.77c2.74-1.02,5.85-1.09,8.79,.07l15.26,6.01c2.94,1.16,5.17,3.33,6.48,5.95l25.38-57.05-35.15-15.75Z"/>
            <path class="cls-4" d="M198.27,313.73h0c3.71-.62,7.46,.86,9.75,3.84h0c1.96,2.55,5.12,3.92,8.3,3.48,4.25-.59,8.07-3.4,9.76-7.68h0c2.49-6.32-.61-13.46-6.93-15.95l-15.26-6.01c-6.32-2.49-13.46,.61-15.95,6.93h0c-1.69,4.28-.81,8.94,1.9,12.27,2.02,2.49,5.28,3.64,8.44,3.12Z"/>
            <path class="cls-19" d="M219.92,293.62l-15.26-6.01c-2.72-1.07-5.6-1.1-8.19-.29l-1.38,4.02c2.74-1.02,5.85-1.09,8.79,.07l15.26,6.01c2.94,1.16,5.17,3.33,6.48,5.95l1.23-2.78c-1.2-3.08-3.62-5.67-6.94-6.98Z"/>
          </g>
          <path class="cls-17" d="M187.66,336.9h0c-3.74-.43-7.4,1.24-9.54,4.33h0c-1.82,2.64-4.91,4.18-8.11,3.9-4.28-.37-8.24-2.98-10.14-7.17h0c-2.81-6.19-.07-13.48,6.11-16.29l14.93-6.78c6.19-2.81,13.48-.07,16.29,6.11h0c1.9,4.19,1.26,8.88-1.27,12.35-1.89,2.59-5.08,3.91-8.27,3.54Z"/>
          <path class="cls-4" d="M162.29,251.18l23.84,59.63c-2.79-.88-5.9-.79-8.78,.52l-14.93,6.78c-2.88,1.31-4.99,3.59-6.17,6.27l-42.75-76.21,48.79,3.01Z"/>
          <path class="cls-4" d="M184.09,333.34h0c-3.74-.43-7.4,1.24-9.54,4.33h0c-1.82,2.64-4.91,4.18-8.11,3.9-4.28-.37-8.24-2.98-10.14-7.17h0c-2.81-6.19-.07-13.48,6.11-16.29l14.93-6.78c6.19-2.81,13.48-.07,16.29,6.11h0c1.9,4.19,1.26,8.88-1.27,12.35-1.89,2.59-5.08,3.91-8.27,3.54Z"/>
          <path class="cls-19" d="M176.38,307.56l-14.93,6.78c-3.25,1.47-5.53,4.19-6.57,7.32l1.38,2.71c1.17-2.68,3.29-4.96,6.17-6.27l14.93-6.78c2.88-1.31,5.99-1.4,8.78-.52l-1.58-3.95c-2.63-.68-5.5-.51-8.17,.71Z"/>
          <path class="cls-6" d="M250.52,255.67c-13.59,0-24.6,11.01-24.6,24.6l.74,16.04,1.62,23.71c4.46,.84,9.06,1.28,13.77,1.28,11.11,0,21.64-2.45,31.09-6.84l1.24-18.15,.74-16.04c0-14.48-11.01-24.6-24.6-24.6Z"/>
          <circle class="cls-19" cx="240.18" cy="202.34" r="73.94"/>
          <path class="cls-8" d="M178.56,291.56l-16.92-42.33-48.79-3.01,25.23,44.97c6.62,1.95,13.62,3,20.87,3,6.79,0,13.36-.92,19.61-2.64Z"/>
          <path class="cls-19" d="M444.11,188.6c0,49.98-40.52,90.5-90.5,90.5s-90.5-40.52-90.5-90.5,64.88-90.77,96.64-71.33c42.63,26.1,84.37,21.35,84.37,71.33Z"/>
          <circle class="cls-19" cx="147.22" cy="191.25" r="82.29"/>
          <path class="cls-19" d="M355.68,106.37c51.94,25.09-46.76,104.44-104.44,104.44s-104.44-46.76-104.44-104.44S194.41-7.94,251.24,1.93c70.92,12.31,39.81,73.23,104.44,104.44Z"/>
          <path class="cls-7" d="M323.68,102.52h0c.19-3.76-1.71-7.31-4.94-9.24h0c-2.75-1.65-4.49-4.63-4.41-7.84,.1-4.29,2.45-8.41,6.51-10.58h0c5.99-3.2,13.44-.94,16.64,5.06l7.73,14.47c3.2,5.99,.94,13.44-5.06,16.64h0c-4.06,2.17-8.78,1.83-12.41-.48-2.71-1.72-4.22-4.82-4.06-8.03Z"/>
          <path class="cls-7" d="M383.12,140.69h0c3.69-.72,7.48,.65,9.85,3.57h0c2.03,2.49,5.23,3.78,8.39,3.25,4.23-.71,7.98-3.62,9.54-7.94h0c2.31-6.39-.99-13.44-7.37-15.76l-15.42-5.59c-6.39-2.31-13.44,.99-15.76,7.37h0c-1.57,4.32-.56,8.96,2.24,12.21,2.09,2.44,5.38,3.5,8.53,2.88Z"/>
          <path class="cls-17" d="M320.92,75.44c-2.4-.28-4.91,.14-7.21,1.36h0c-4.06,2.17-6.41,6.28-6.51,10.58-.07,3.21,1.66,6.19,4.41,7.84,3.23,1.93,5.12,5.49,4.94,9.24-.16,3.21,1.36,6.31,4.06,8.03,3.62,2.31,8.35,2.64,12.41,.48h0c1.38-.74,2.55-1.7,3.51-2.82-3.07-12.63-8.42-24.35-15.61-34.72Z"/>
          <path class="cls-17" d="M372.01,128.77c-.37,.63-.69,1.3-.95,2.01-1.57,4.33-.56,8.96,2.24,12.21,2.09,2.44,5.38,3.5,8.53,2.88h0c3.69-.72,7.48,.65,9.85,3.57h0c2.03,2.49,5.23,3.78,8.39,3.25,3.65-.61,6.94-2.87,8.78-6.25-10.59-8.48-23.13-14.63-36.83-17.67Z"/>
        </g>
      </g>
    </g>
  </g>
</svg>