<?xml version="1.0" encoding="UTF-8"?>
<svg id="_레이어_2" data-name="레이어 2" xmlns="http://www.w3.org/2000/svg" viewBox="0 0 280 300">
  <defs>
    <style>
      .cls-1 {
        fill: #c5d0d8;
      }

      .cls-2 {
        fill: #fff;
      }

      .cls-3 {
        fill: #a2a7aa;
      }

      .cls-4 {
        fill: #5590e5;
      }

      .cls-5 {
        fill: #275ead;
      }

      .cls-6 {
        fill: #fcd23d;
      }

      .cls-7 {
        fill: #396bc4;
      }

      .cls-8 {
        fill: #fcbb3d;
      }

      .cls-9 {
        opacity: .1;
      }

      .cls-10 {
        fill: none;
      }

      .cls-11 {
        fill: #959999;
      }

      .cls-12 {
        fill: #adb6bc;
      }
    </style>
  </defs>
  <g id="_레이어_1-2" data-name="레이어 1">
    <g>
      <rect class="cls-10" width="280" height="300"/>
      <g>
        <path class="cls-11" d="M92.62,216.72h81.77v.1c0,3.73-3.03,6.76-6.76,6.76H99.38c-3.73,0-6.76-3.03-6.76-6.76v-.1h0Z"/>
        <g>
          <polygon class="cls-6" points="129.04 278.83 97.48 278.83 96 244.32 130.52 244.32 129.04 278.83"/>
          <ellipse class="cls-8" cx="113.26" cy="244.32" rx="17.26" ry="3.94"/>
          <path class="cls-7" d="M155.28,173.08h-45.29c-3.59,0-6.67,2.52-7.34,5.99l-6.25,32.81,26.8,7.95c6.2,1.84,12.67,1.84,18.87,0l26.8-7.95-6.25-32.81c-.66-3.47-3.74-5.99-7.34-5.99Z"/>
          <path class="cls-4" d="M130.91,212.02c0-9.53-7.73-17.26-17.26-17.26h0c-9.53,0-17.26,7.73-17.26,17.26v3.04s0,.09,0,.14c.15-9.4,7.81-16.98,17.25-16.98h0c9.44,0,17.1,8.75,17.25,18.15,0-.05,0-1.26,0-1.31v-3.04Z"/>
          <path class="cls-7" d="M113.65,195.26h0c9.52,0,17.26,7.73,17.26,17.26v3.04c0,2.4-1.95,4.35-4.35,4.35h-25.8c-2.4,0-4.35-1.95-4.35-4.35v-3.04c0-9.52,7.73-17.26,17.26-17.26Z"/>
          <path class="cls-1" d="M113.65,198.11c-8.17,0-14.79,6.09-14.79,14.79l.44,9.64,1.31,19.1,.37,5.45c3.13,.72,7.47,1.17,12.28,1.17,5.23,0,9.9-.53,13.07-1.37l.35-5.05,1.32-19.3,.44-9.64c0-8.17-6.62-14.79-14.79-14.79Z"/>
          <path class="cls-5" d="M155.28,173.08h-45.29c-3.59,0-6.67,2.52-7.34,5.99l-2.42,12.7c3.03,1.28,6.72,1.84,10.54,1.34l6.31-.83c5.39-.71,10.84,1.89,16.3,1.89s10.91-2.6,16.3-1.89l6.31,.83c3.25,.43,6.42,.09,9.16-.82l-2.52-13.22c-.66-3.47-3.74-5.99-7.34-5.99Z"/>
          <path class="cls-4" d="M168.87,212.02c0-9.53-7.73-17.26-17.26-17.26h0c-9.53,0-17.26,7.73-17.26,17.26v3.04s0,.09,0,.14c.15-9.4,7.81-16.98,17.25-16.98h0c9.44,0,17.1,7.58,17.25,16.98,0-.05,0-.09,0-.14v-3.04Z"/>
          <path class="cls-2" d="M155.98,191.63l-6.31-.83c-5.39-.71-10.84,1.89-16.3,1.89-5.46,0-10.91-2.6-16.3-1.89l-6.31,.83c-9.26,1.22-17.82-3.77-17.82-10.39v-29.86h80.85v29.86c0,6.62-8.56,11.61-17.82,10.39Z"/>
          <path class="cls-7" d="M151.61,195.26h0c9.52,0,17.26,7.73,17.26,17.26v3.04c0,2.4-1.95,4.35-4.35,4.35h-25.8c-2.4,0-4.35-1.95-4.35-4.35v-3.04c0-9.52,7.73-17.26,17.26-17.26Z"/>
          <path class="cls-2" d="M139.03,118.99h-11.32c-19.2,0-34.77,15.57-34.77,34.77v19.61c0,1.69,.17,3.32,.49,4.87,1.14-.12,2.36-.18,3.67-.18,18.55,0,18.55,12.77,37.1,12.77s18.55-12.77,37.1-12.77c.71,0,1.38,.02,2.04,.05,.3-1.51,.46-3.1,.46-4.74v-19.61c0-19.2-15.57-34.77-34.77-34.77Z"/>
          <ellipse class="cls-12" cx="103.47" cy="159.73" rx="15.2" ry="4.34" transform="translate(-26.16 20.39) rotate(-10)"/>
          <path class="cls-1" d="M114.44,151.32l4.94,38.29c-1.49-.93-3.32-1.34-5.19-1.01l-9.71,1.71c-1.87,.33-3.44,1.34-4.53,2.73l-8.11-36.65,22.6-5.06Z"/>
          <path class="cls-9" d="M120.17,204.72c1.14-.94,1.98-2.2,2.4-3.61-2.48-1.88-5.57-2.99-8.92-2.99-5.73,0-10.69,3-13.15,7.79,.79,.8,1.75,1.41,2.82,1.79,1.82,.64,3.85,.21,5.31-1.06h0c1.71-1.48,4.09-1.9,6.2-1.09,1.8,.69,3.86,.4,5.35-.82Z"/>
          <path class="cls-9" d="M115.18,157.03l-.74-5.71-22.6,5.06,.87,3.95c2.55-1.18,6.05-2.25,9.99-2.94,5-.88,9.56-.96,12.46-.36Z"/>
          <ellipse class="cls-12" cx="162.07" cy="159.73" rx="4.34" ry="15.2" transform="translate(-23.37 291.6) rotate(-80)"/>
          <path class="cls-1" d="M151.1,151.32l-4.94,38.29c1.49-.93,3.32-1.34,5.19-1.01l9.71,1.71c1.87,.33,3.44,1.34,4.53,2.73l8.11-36.65-22.6-5.06Z"/>
          <path class="cls-2" d="M88.5,162.36c-.42-2.36,5.95-5.46,14.22-6.92,8.27-1.46,15.31-.72,15.73,1.64,0,.04,0,.07,0,.11l.11-.02-4.54-21.56-5.91-11.2c-11.23,.81-16.9,7.04-19.77,13.07-2.43,5.12-3.09,10.9-2.11,16.48l2.24,8.52h.06s-.02-.08-.03-.12Z"/>
          <path class="cls-9" d="M150.29,157.03l.74-5.71,22.6,5.06-.87,3.95c-2.55-1.18-6.05-2.25-9.99-2.94-5-.88-9.56-.96-12.46-.36Z"/>
          <path class="cls-2" d="M177.04,162.36c.42-2.36-5.95-5.46-14.22-6.92-8.27-1.46-15.31-.72-15.73,1.64,0,.04,0,.07,0,.11l-.11-.02,4.54-21.56,5.91-11.2c11.23,.81,16.9,7.04,19.77,13.07,2.43,5.12,3.09,10.9,2.11,16.48l-2.24,8.52h-.06s.02-.08,.03-.12Z"/>
          <path class="cls-9" d="M113.65,203.05h0c6.22,0,11.66,3.29,14.7,8.22-.81-7.4-7.08-13.16-14.7-13.16s-13.95,5.35-14.71,13.18c3.04-4.94,8.49-8.24,14.71-8.24Z"/>
          <path class="cls-1" d="M114.83,202.42h0c-2.11-.81-4.5-.39-6.2,1.09h0c-1.46,1.27-3.49,1.7-5.31,1.06-2.43-.86-4.35-2.97-4.83-5.69h0c-.71-4.02,1.98-7.86,6-8.57l9.71-1.71c4.02-.71,7.86,1.98,8.57,6h0c.48,2.72-.6,5.36-2.59,7-1.49,1.23-3.55,1.51-5.35,.82Z"/>
          <path class="cls-9" d="M114.2,186.26l-9.71,1.71c-2.11,.37-3.85,1.61-4.92,3.28l.39,1.78c1.09-1.39,2.66-2.4,4.53-2.73l9.71-1.71c1.87-.33,3.69,.08,5.19,1.01l-.33-2.54c-1.43-.79-3.13-1.12-4.86-.81Z"/>
          <path class="cls-9" d="M161.05,187.98l-9.71-1.71c-1.73-.31-3.43,.02-4.86,.81l-.33,2.54c1.49-.93,3.32-1.34,5.19-1.01l9.71,1.71c1.87,.33,3.44,1.34,4.53,2.73l.39-1.78c-1.08-1.67-2.81-2.91-4.92-3.28Z"/>
          <circle class="cls-1" cx="132.99" cy="103.22" r="25.67"/>
          <path class="cls-9" d="M132.6,77.55c-14.18,0-25.67,11.49-25.67,25.67,0,9.66,5.34,18.07,13.22,22.45,4.03-4.23,6.92-9.56,8.14-15.5,2.39-.39,4.7-.99,6.93-1.79,2.14,6.47,5.88,12.22,10.75,16.77,7.39-4.51,12.32-12.64,12.32-21.93,0-14.18-11.49-25.67-25.67-25.67Z"/>
          <path class="cls-9" d="M97.48,278.83h31.55l.33-7.67c-3.05-4.87-8.46-8.1-14.63-8.1h-2.47c-6.49,0-12.14,3.58-15.09,8.88l.3,6.9Z"/>
          <path class="cls-6" d="M112.77,266.01h1.48c9.52,0,17.26,7.73,17.26,17.26h0c0,5.44-4.42,9.86-9.86,9.86h-16.27c-5.44,0-9.86-4.42-9.86-9.86h0c0-9.52,7.73-17.26,17.26-17.26Z"/>
          <path class="cls-9" d="M100.82,244.72l.16,2.38c3.13,.72,7.47,1.17,12.28,1.17,5.23,0,9.9-.53,13.07-1.37l.16-2.38c-3.17,.86-7.92,1.41-13.23,1.41-4.89,0-9.3-.47-12.44-1.21Z"/>
          <polygon class="cls-6" points="167.22 279.61 135.66 279.61 134.18 245.1 168.69 245.1 167.22 279.61"/>
          <ellipse class="cls-8" cx="151.44" cy="245.1" rx="17.26" ry="3.94"/>
          <path class="cls-1" d="M151.83,198.89c-8.17,0-14.79,6.09-14.79,14.79l.44,9.64,1.31,19.1,.37,5.45c3.13,.72,7.47,1.17,12.28,1.17,5.23,0,9.9-.53,13.07-1.37l.35-5.05,1.32-19.3,.44-9.64c0-8.17-6.62-14.79-14.79-14.79Z"/>
          <path class="cls-9" d="M135.66,279.61h31.55l.33-7.67c-3.05-4.87-8.46-8.1-14.63-8.1h-2.47c-6.49,0-12.14,3.58-15.09,8.88l.3,6.9Z"/>
          <path class="cls-6" d="M150.95,266.79h1.48c9.52,0,17.26,7.73,17.26,17.26h0c0,5.44-4.42,9.86-9.86,9.86h-16.27c-5.44,0-9.86-4.42-9.86-9.86h0c0-9.52,7.73-17.26,17.26-17.26Z"/>
          <path class="cls-9" d="M139,245.5l.16,2.38c3.13,.72,7.47,1.17,12.28,1.17,5.23,0,9.9-.53,13.07-1.37l.16-2.38c-3.17,.86-7.92,1.41-13.23,1.41-4.89,0-9.3-.47-12.44-1.21Z"/>
          <path class="cls-9" d="M151.61,203.44h0c6.37,0,11.92,3.45,14.91,8.58-.82-7.39-7.09-13.13-14.7-13.13s-13.45,4.93-14.59,12.27c3.09-4.65,8.38-7.72,14.38-7.72Z"/>
          <path class="cls-9" d="M151.83,198.89c-3.08,0-5.93,.86-8.3,2.41,.46,.86,1.08,1.63,1.84,2.25,1.49,1.23,3.55,1.51,5.35,.82,2.11-.81,4.5-.39,6.2,1.09h0c1.46,1.27,3.49,1.7,5.31,1.06,.69-.24,1.34-.59,1.92-1.02-2.65-3.98-7.18-6.61-12.32-6.61Z"/>
          <path class="cls-1" d="M150.71,202.42h0c2.11-.81,4.5-.39,6.2,1.09h0c1.46,1.27,3.49,1.7,5.31,1.06,2.43-.86,4.35-2.97,4.83-5.69h0c.71-4.02-1.98-7.86-6-8.57l-9.71-1.71c-4.02-.71-7.86,1.98-8.57,6h0c-.48,2.72,.6,5.36,2.59,7,1.49,1.23,3.55,1.51,5.35,.82Z"/>
          <circle class="cls-3" cx="122.07" cy="63.74" r="40.35"/>
          <circle class="cls-3" cx="154.96" cy="58.6" r="28.44"/>
          <circle cx="132.98" cy="121.3" r="2.35"/>
          <circle class="cls-3" cx="173.91" cy="89.07" r="40.35"/>
          <circle class="cls-3" cx="97.53" cy="97.11" r="31.79"/>
        </g>
      </g>
    </g>
  </g>
</svg>