<?xml version="1.0" encoding="UTF-8"?>
<svg id="_레이어_2" data-name="레이어 2" xmlns="http://www.w3.org/2000/svg" viewBox="0 0 280 300">
  <defs>
    <style>
      .cls-1, .cls-2, .cls-3 {
        opacity: .7;
      }

      .cls-4 {
        fill: #c5d0d8;
      }

      .cls-5 {
        fill: #fff;
      }

      .cls-6, .cls-7, .cls-3 {
        fill: #71d0ea;
      }

      .cls-8 {
        opacity: .8;
      }

      .cls-8, .cls-2 {
        fill: #99e5ff;
      }

      .cls-9 {
        fill: #5590e5;
      }

      .cls-7 {
        opacity: .35;
      }

      .cls-10 {
        fill: #275ead;
      }

      .cls-11 {
        fill: #fcd23d;
      }

      .cls-12 {
        fill: #396bc4;
      }

      .cls-13 {
        fill: #fcbb3d;
      }

      .cls-14 {
        opacity: .1;
      }

      .cls-15 {
        fill: none;
      }

      .cls-16 {
        fill: #dfe9f4;
      }

      .cls-17 {
        fill: #959999;
      }
    </style>
  </defs>
  <g id="_레이어_1-2" data-name="레이어 1">
    <g>
      <rect class="cls-15" width="280" height="300"/>
      <path class="cls-14" d="M154.07,273.22c-5.1,0-9.9,.23-14.07,.62-4.17-.4-8.97-.62-14.07-.62-16.13,0-29.21,2.26-29.21,5.04s13.08,5.04,29.21,5.04c5.1,0,9.9-.23,14.07-.62,4.17,.4,8.97,.62,14.07,.62,16.13,0,29.21-2.26,29.21-5.04s-13.08-5.04-29.21-5.04Z"/>
      <path class="cls-17" d="M83.23,217.14h113.55c0,3.27-2.65,5.92-5.92,5.92H89.15c-3.27,0-5.92-2.65-5.92-5.92h0Z"/>
      <g>
        <path class="cls-13" d="M212.19,183.4c0,5.29-11.66,5.86-18.84,9.95-4.74,2.7-7.03,14.21-14.03,16.05-5.69,1.49-13.85-7.14-20.62-6.37-6.05,.69-11.89,11.02-18.51,11.02s-12.47-10.34-18.51-11.02c-6.77-.77-14.93,7.87-20.62,6.37-7-1.84-9.3-13.35-14.04-16.05-7.17-4.08-18.83-4.66-18.83-9.95"/>
        <path class="cls-12" d="M161.86,174.65h-46.96c-3.72,0-6.92,2.61-7.6,6.21l-6.48,34.02,27.78,8.24c6.43,1.91,13.14,1.91,19.56,0l27.78-8.24-6.48-34.02c-.69-3.6-3.88-6.21-7.6-6.21Z"/>
        <path class="cls-10" d="M161.86,174.65h-46.96c-3.72,0-6.92,2.61-7.6,6.21l-2.51,13.17c3.14,1.33,6.97,1.91,10.92,1.38l6.54-.86c5.58-.74,11.24,1.96,16.9,1.96s11.31-2.7,16.9-1.96l6.54,.86c3.37,.44,6.65,.09,9.49-.85l-2.61-13.71c-.69-3.6-3.88-6.21-7.6-6.21Z"/>
        <polygon class="cls-11" points="135.06 264.09 102.34 264.09 100.81 228.31 136.59 228.31 135.06 264.09"/>
        <ellipse class="cls-13" cx="118.7" cy="228.31" rx="17.89" ry="4.09"/>
        <path class="cls-13" d="M102.34,264.09h32.71l.34-7.95c-3.16-5.04-8.77-8.4-15.16-8.4h-2.56c-6.73,0-12.58,3.72-15.64,9.21l.31,7.15Z"/>
        <polygon class="cls-11" points="174.41 264.09 141.7 264.09 140.17 228.31 175.94 228.31 174.41 264.09"/>
        <ellipse class="cls-13" cx="158.06" cy="228.31" rx="17.89" ry="4.09"/>
        <path class="cls-11" d="M118.19,250.8h1.53c9.87,0,17.89,8.02,17.89,17.89h0c0,5.64-4.58,10.22-10.22,10.22h-16.87c-5.64,0-10.22-4.58-10.22-10.22h0c0-9.87,8.02-17.89,17.89-17.89Z"/>
        <path class="cls-13" d="M141.7,264.09h32.71l.34-7.95c-3.16-5.04-8.77-8.4-15.16-8.4h-2.56c-6.73,0-12.58,3.72-15.64,9.21l.31,7.15Z"/>
        <path class="cls-9" d="M136.59,215.03c0-9.88-8.01-17.89-17.89-17.89h0c-9.88,0-17.89,8.01-17.89,17.89v3.15s0,.09,0,.14c.15-9.75,8.1-17.61,17.88-17.61h0c9.78,0,17.73,7.86,17.88,17.61,0-.05,0-.09,0-.14v-3.15Z"/>
        <path class="cls-9" d="M175.94,215.03c0-9.88-8.01-17.89-17.89-17.89h0c-9.88,0-17.89,8.01-17.89,17.89v3.15s0,.09,0,.14c.15-9.75,8.1-17.61,17.88-17.61h0c9.78,0,17.73,7.86,17.88,17.61,0-.05,0-.09,0-.14v-3.15Z"/>
        <path class="cls-16" d="M162.58,193.88l-6.54-.86c-5.58-.74-11.24,1.96-16.9,1.96-5.66,0-11.31-2.7-16.9-1.96l-6.54,.86c-9.6,1.26-18.47-3.91-18.47-10.77v-30.95h83.82v30.95c0,6.86-8.87,12.03-18.47,10.77Z"/>
        <path class="cls-12" d="M118.7,197.65h0c9.87,0,17.89,8.02,17.89,17.89v3.15c0,2.49-2.02,4.51-4.51,4.51h-26.75c-2.49,0-4.51-2.02-4.51-4.51v-3.15c0-9.87,8.02-17.89,17.89-17.89Z"/>
        <path class="cls-2" d="M118.7,200.71c-8.47,0-15.33,6.86-15.33,15.33l.46,9.99,.21,4.61c3.23,1.06,8.59,1.75,14.66,1.75s11.42-.69,14.66-1.75l.21-4.61,.46-9.99c0-8.47-6.86-15.33-15.33-15.33Z"/>
        <path class="cls-12" d="M158.05,197.65h0c9.87,0,17.89,8.02,17.89,17.89v3.15c0,2.49-2.02,4.51-4.51,4.51h-26.75c-2.49,0-4.51-2.02-4.51-4.51v-3.15c0-9.87,8.02-17.89,17.89-17.89Z"/>
        <path class="cls-2" d="M158.06,200.71c-8.47,0-15.33,6.86-15.33,15.33l.46,9.99,.21,4.61c3.23,1.06,8.59,1.75,14.66,1.75s11.42-.69,14.66-1.75l.21-4.61,.46-9.99c0-8.47-6.86-15.33-15.33-15.33Z"/>
        <path class="cls-7" d="M103.97,229.1l.07,1.56c3.23,1.06,8.59,1.75,14.66,1.75s11.42-.69,14.66-1.75l.07-1.56c-3.23,1.07-8.62,1.77-14.73,1.77s-11.5-.7-14.73-1.77Z"/>
        <path class="cls-7" d="M143.32,229.1l.07,1.56c3.23,1.06,8.59,1.75,14.66,1.75s11.42-.69,14.66-1.75l.07-1.56c-3.23,1.07-8.62,1.77-14.73,1.77s-11.5-.7-14.73-1.77Z"/>
        <path class="cls-3" d="M118.7,204.29h0c6.18,0,11.63,3.14,14.85,7.91-1.71-6.6-7.71-11.48-14.85-11.48s-13.14,4.88-14.85,11.48c3.21-4.77,8.66-7.91,14.85-7.91Z"/>
        <path class="cls-3" d="M158.05,204.29h0c6.18,0,11.63,3.14,14.85,7.91-1.71-6.6-7.71-11.48-14.85-11.48s-13.14,4.88-14.85,11.48c3.21-4.77,8.66-7.91,14.85-7.91Z"/>
        <path class="cls-4" d="M181.05,152.16H97.23v30.95c0,.96,.18,1.89,.51,2.77,1.18-.07,2.44-.1,3.8-.1,19.23,0,19.23,7.27,38.46,7.27s19.23-7.27,38.46-7.27c.73,0,1.43,.01,2.11,.03,.31-.86,.48-1.76,.48-2.7v-30.95Z"/>
        <path class="cls-2" d="M176.45,90.06c0,23.01-15.58,43.19-38.59,43.19s-41.65-18.65-41.65-41.65,30.22-35.54,31.18-58.52c.93-22.31,47.12,18.91,49.07,49.94,.17,2.68,0,4.96,0,7.05Z"/>
        <path class="cls-11" d="M157.54,250.8h1.53c9.87,0,17.89,8.02,17.89,17.89h0c0,5.64-4.58,10.22-10.22,10.22h-16.87c-5.64,0-10.22-4.58-10.22-10.22h0c0-9.87,8.02-17.89,17.89-17.89Z"/>
        <path class="cls-8" d="M121.82,205.9h0c-2.01-1.21-4.52-1.21-6.53,0h0c-1.72,1.03-3.87,1.11-5.61,.12-2.33-1.32-3.9-3.81-3.9-6.68h0c0-4.23,3.43-7.67,7.67-7.67h10.22c4.23,0,7.67,3.43,7.67,7.67h0c0,2.87-1.57,5.37-3.9,6.68-1.74,.98-3.89,.91-5.61-.12Z"/>
        <g class="cls-1">
          <path class="cls-6" d="M123.67,191.68c1.97,0,3.76,.75,5.11,1.97l.7-13.99c.31-6.25-4.67-11.49-10.93-11.49h0c-6.26,0-11.24,5.24-10.93,11.49l.7,13.99c1.36-1.22,3.15-1.97,5.11-1.97h10.22Z"/>
        </g>
        <path class="cls-8" d="M161.73,205.9h0c-2.01-1.21-4.52-1.21-6.53,0h0c-1.72,1.03-3.87,1.11-5.61,.12-2.33-1.32-3.9-3.81-3.9-6.68h0c0-4.23,3.43-7.67,7.67-7.67h10.22c4.23,0,7.67,3.43,7.67,7.67h0c0,2.87-1.57,5.37-3.9,6.68-1.74,.98-3.89,.91-5.61-.12Z"/>
        <g class="cls-1">
          <path class="cls-6" d="M163.58,191.68c1.97,0,3.76,.75,5.11,1.97l.7-13.99c.31-6.25-4.67-11.49-10.93-11.49h0c-6.26,0-11.24,5.24-10.93,11.49l.7,13.99c1.36-1.22,3.15-1.97,5.11-1.97h10.22Z"/>
        </g>
        <path class="cls-11" d="M211.74,176.59s-.07-.1-.1-.14l-27.52-38.16h0c-5.32-7.37-12.06-12.92-19.53-16.66-6.69,7.15-15.88,11.63-26.72,11.63-10.03,0-19.22-3.54-26.41-9.44-5.89,3.6-11.22,8.43-15.58,14.47h0s-27.52,38.16-27.52,38.16c-.03,.05-.07,.1-.1,.14-4.82,6.85,3.14,15.21,11.58,12.2,5.79-2.06,10.46-4.55,21.7-4.55,19.23,0,19.23,7.27,38.46,7.27s19.23-7.27,38.46-7.27c11.24,0,15.92,2.48,21.7,4.54,8.44,3.01,16.4-5.36,11.58-12.2Z"/>
      </g>
      <g>
        <circle cx="127.21" cy="98.94" r="5.41"/>
        <circle cx="152.79" cy="98.94" r="5.41"/>
        <circle cx="140.47" cy="116.55" r="2.03"/>
        <circle class="cls-5" cx="126.19" cy="97.25" r="2.37"/>
        <circle class="cls-5" cx="151.78" cy="97.25" r="2.37"/>
      </g>
    </g>
  </g>
</svg>