<?xml version="1.0" encoding="UTF-8"?>
<svg id="_레이어_2" data-name="레이어 2" xmlns="http://www.w3.org/2000/svg" viewBox="0 0 280 300">
  <defs>
    <style>
      .cls-1 {
        fill: #fff;
      }

      .cls-2 {
        stroke: #57addd;
        stroke-width: 3px;
      }

      .cls-2, .cls-3, .cls-4 {
        fill: none;
      }

      .cls-2, .cls-4 {
        stroke-linecap: round;
        stroke-linejoin: round;
      }

      .cls-5 {
        fill: #71d0ea;
      }

      .cls-6 {
        fill: #e0e2e2;
      }

      .cls-7 {
        fill: #99e5ff;
      }

      .cls-8 {
        fill: #5590e5;
      }

      .cls-9 {
        fill: #edefef;
      }

      .cls-10 {
        fill: #86dbf2;
      }

      .cls-11 {
        fill: #275ead;
      }

      .cls-12 {
        fill: #396bc4;
      }

      .cls-13 {
        fill: #eae8e8;
      }

      .cls-4 {
        stroke: #000;
        stroke-width: 2px;
      }

      .cls-14 {
        fill: #959999;
      }

      .cls-15 {
        fill: #42b0f4;
      }

      .cls-16 {
        fill: #adb6bc;
      }
    </style>
  </defs>
  <g id="_레이어_1-2" data-name="레이어 1">
    <g>
      <rect class="cls-3" width="280" height="300"/>
      <g>
        <path class="cls-14" d="M73.05,215.77h117.6v.48c0,3.12-2.53,5.66-5.66,5.66H78.7c-3.12,0-5.66-2.53-5.66-5.66v-.48h0Z"/>
        <g>
          <g>
            <path class="cls-12" d="M149.94,177.37h-42.5c-3.37,0-6.26,2.36-6.88,5.62l-5.87,30.79,25.15,7.46c5.82,1.72,11.89,1.72,17.71,0l25.15-7.46-5.87-30.79c-.62-3.26-3.51-5.62-6.88-5.62Z"/>
            <path class="cls-8" d="M127.07,213.92c0-8.94-7.25-16.19-16.19-16.19h0c-8.94,0-16.19,7.25-16.19,16.19v2.85s0,.09,0,.13c.14-8.82,7.33-15.94,16.19-15.94h0c8.86,0,16.05,8.21,16.19,17.03,0-.04,0-1.18,0-1.23v-2.85Z"/>
            <path class="cls-12" d="M109.61,198.19h2.53c8.24,0,14.93,6.69,14.93,14.93v4.44c0,2.08-1.69,3.77-3.77,3.77h-24.85c-2.08,0-3.77-1.69-3.77-3.77v-4.44c0-8.24,6.69-14.93,14.93-14.93Z"/>
            <path class="cls-5" d="M110.88,200.86c-7.67,0-13.88,5.71-13.88,13.88l.42,9.05,2.39,34.89c2.93,.96,5.58,1.58,11.08,1.58s8.15-.63,11.08-1.58l2.39-34.89,.42-9.05c0-7.67-6.21-13.88-13.88-13.88Z"/>
            <path class="cls-15" d="M110.97,267.07c4.17,0,8-.21,11.04-.56l.9-13.19c-3.03-.35-6.88,1.16-11.09,1.16h-2.01c-4.15,0-7.97-1.62-10.98-1.28l.91,13.29c3.07,.37,6.97,.59,11.22,.59Z"/>
            <path class="cls-7" d="M110.97,269.36c6.06,0,11.41-.44,14.64-1.12l.06-11.52c-3.23-2.64-8.22,.05-13.84,.05h-2.01c-5.45,0-10.31-2.79-13.55-.29l.06,11.76c3.23,.68,8.58,1.12,14.64,1.12Z"/>
            <path class="cls-10" d="M96.29,260.45l.04,7.79c3.23,.68,8.58,1.12,14.64,1.12s11.41-.44,14.64-1.12l.04-7.16c-1.7-2.54-4.28-4.37-7.24-5.12-2.03,.35-4.25,.81-6.58,.81h-2.01c-2.28,0-4.47-.49-6.47-.88-2.82,.65-5.31,2.27-7.05,4.56Z"/>
            <path class="cls-11" d="M149.94,177.37h-42.5c-3.37,0-6.26,2.36-6.88,5.62l-2.27,11.92c2.84,1.21,6.31,1.72,9.89,1.25l5.92-.78c5.05-.67,10.18,1.78,15.3,1.78s10.24-2.44,15.3-1.78l5.92,.78c3.05,.4,6.02,.08,8.59-.77l-2.36-12.41c-.62-3.26-3.51-5.62-6.88-5.62Z"/>
            <path class="cls-8" d="M162.69,213.92c0-8.94-7.25-16.19-16.19-16.19h0c-8.94,0-16.19,7.25-16.19,16.19v2.85s0,.09,0,.13c.14-8.82,7.33-15.94,16.19-15.94h0c8.86,0,16.05,7.11,16.19,15.94,0-.04,0-.08,0-.13v-2.85Z"/>
            <path class="cls-1" d="M150.6,194.78l-5.92-.78c-5.05-.67-10.18,1.78-15.3,1.78-5.12,0-10.24-2.44-15.3-1.78l-5.92,.78c-8.69,1.14-16.72-3.54-16.72-9.75v-28.02h75.87v28.02c0,6.21-8.03,10.89-16.72,9.75Z"/>
            <path class="cls-12" d="M145.23,198.19h2.53c8.24,0,14.93,6.69,14.93,14.93v4.44c0,2.08-1.69,3.77-3.77,3.77h-24.85c-2.08,0-3.77-1.69-3.77-3.77v-4.44c0-8.24,6.69-14.93,14.93-14.93Z"/>
            <path class="cls-1" d="M134.69,126.62h-10.62c-18.02,0-32.62,14.61-32.62,32.62v18.4c0,1.59,.16,3.11,.46,4.57,1.07-.11,2.21-.17,3.44-.17,17.41,0,17.41,11.98,34.81,11.98s17.41-11.98,34.81-11.98c.66,0,1.3,.02,1.91,.05,.28-1.42,.43-2.91,.43-4.45v-18.4c0-18.02-14.61-32.62-32.62-32.62Z"/>
            <ellipse class="cls-16" cx="101.32" cy="164.84" rx="14.27" ry="4.08" transform="translate(-27.09 20.1) rotate(-10)"/>
            <path class="cls-5" d="M111.62,156.96l4.64,35.93c-1.4-.87-3.11-1.26-4.87-.95l-9.11,1.61c-1.75,.31-3.23,1.26-4.25,2.56l-7.61-34.39,21.2-4.75Z"/>
            <path class="cls-15" d="M117,207.06c1.07-.88,1.85-2.06,2.25-3.39-2.33-1.76-5.23-2.81-8.37-2.81-5.38,0-10.04,2.81-12.34,7.31,.74,.75,1.65,1.33,2.64,1.68,1.71,.6,3.61,.2,4.98-.99h0c1.6-1.39,3.84-1.79,5.82-1.03,1.69,.65,3.62,.38,5.02-.77Z"/>
            <path class="cls-15" d="M112.31,162.32l-.69-5.36-21.2,4.75,.82,3.71c2.39-1.11,5.68-2.11,9.38-2.76,4.7-.83,8.97-.9,11.7-.34Z"/>
            <ellipse class="cls-16" cx="156.31" cy="164.84" rx="4.08" ry="14.27" transform="translate(-33.17 290.16) rotate(-80)"/>
            <path class="cls-5" d="M146.02,156.96l-4.64,35.93c1.4-.87,3.11-1.26,4.87-.95l9.11,1.61c1.75,.31,3.23,1.26,4.25,2.56l7.61-34.39-21.2-4.75Z"/>
            <path class="cls-1" d="M87.28,167.32c-.39-2.22,5.58-5.12,13.34-6.49,7.76-1.37,14.37-.68,14.76,1.54,0,.03,0,.07,0,.1l.1-.02-4.26-20.23-5.55-10.51c-10.54,.76-15.86,6.61-18.55,12.26-2.28,4.8-2.9,10.23-1.98,15.47l2.1,8h.06s-.02-.08-.03-.11Z"/>
            <path class="cls-15" d="M145.25,162.32l.69-5.36,21.2,4.75-.82,3.71c-2.39-1.11-5.68-2.11-9.38-2.76-4.7-.83-8.97-.9-11.7-.34Z"/>
            <path class="cls-1" d="M170.36,167.32c.39-2.22-5.58-5.12-13.34-6.49-7.76-1.37-14.37-.68-14.76,1.54,0,.03,0,.07,0,.1l-.1-.02,4.26-20.23,5.55-10.51c10.54,.76,15.86,6.61,18.55,12.26,2.28,4.8,2.9,10.23,1.98,15.47l-2.1,8h-.06s.02-.08,.03-.11Z"/>
            <path class="cls-6" d="M103.58,265.69c2.19,.18,4.67,.28,7.3,.28s5.13-.1,7.33-.29v-10.93c0-.23-.19-.44-.49-.53-1.87-.55-3.91-.85-6.06-.85h-1.82c-2.03,0-3.96,.27-5.75,.76-.31,.08-.51,.3-.51,.54v11.01Z"/>
            <path class="cls-16" d="M115.35,255.57h-9.21c-.87,0-1.73,.1-2.56,.28v7.65c2.19,.18,4.67,.28,7.3,.28s5.13-.1,7.33-.29v-7.59c-.92-.22-1.88-.34-2.86-.34Z"/>
            <path class="cls-16" d="M121.87,275.06h-22.26c-1.06,0-2.06-.33-2.91-.92-2.22-1.51-3.15-4.7-2.35-7.55h0c1.66-5.92,6.42-9.93,11.78-9.93h9.21c5.36,0,10.12,4.01,11.78,9.93h0c.8,2.84-.13,6.03-2.35,7.55-.85,.58-1.85,.92-2.91,.92Z"/>
            <path class="cls-1" d="M121.87,272.5h-22.26c-1.06,0-2.06-.29-2.91-.79-2.22-1.3-3.15-4.05-2.35-6.5h0c1.66-5.1,6.42-8.55,11.78-8.55h9.21c5.36,0,10.12,3.45,11.78,8.55h0c.8,2.45-.13,5.19-2.35,6.5-.85,.5-1.85,.79-2.91,.79Z"/>
            <path class="cls-9" d="M115.35,256.67h-9.21c-.87,0-1.73,.1-2.56,.28v.67c0,3.32,2.69,6,6,6h2.61c3.32,0,6-2.69,6-6v-.61c-.92-.22-1.88-.34-2.86-.34Z"/>
            <line class="cls-2" x1="103.58" y1="256.94" x2="117.54" y2="260.35"/>
            <line class="cls-2" x1="118.27" y1="256.94" x2="104.31" y2="260.35"/>
            <path class="cls-15" d="M110.88,205.5h0c5.83,0,10.94,3.08,13.79,7.71-.76-6.95-6.65-12.35-13.79-12.35s-13.09,5.02-13.81,12.37c2.85-4.64,7.97-7.73,13.81-7.73Z"/>
            <path class="cls-5" d="M146.8,200.86c7.67,0,13.88,5.71,13.88,13.88l-.42,9.05-2.39,34.89c-2.93,.96-5.58,1.58-11.08,1.58s-8.15-.63-11.08-1.58l-2.39-34.89-.42-9.05c0-7.67,6.21-13.88,13.88-13.88Z"/>
            <path class="cls-15" d="M146.71,267.07c-4.17,0-8-.21-11.04-.56l-.9-13.19c3.03-.35,6.88,1.16,11.09,1.16h2.01c4.15,0,7.97-1.62,10.98-1.28l-.91,13.29c-3.07,.37-6.97,.59-11.22,.59Z"/>
            <path class="cls-7" d="M146.71,269.36c-6.06,0-11.41-.44-14.64-1.12l-.06-11.52c3.23-2.64,8.22,.05,13.84,.05h2.01c5.45,0,10.31-2.79,13.55-.29l-.06,11.76c-3.23,.68-8.58,1.12-14.64,1.12Z"/>
            <path class="cls-10" d="M161.39,260.45l-.04,7.79c-3.23,.68-8.58,1.12-14.64,1.12s-11.41-.44-14.64-1.12l-.04-7.16c1.7-2.54,4.28-4.37,7.24-5.12,2.03,.35,4.25,.81,6.58,.81h2.01c2.28,0,4.47-.49,6.47-.88,2.82,.65,5.31,2.27,7.05,4.56Z"/>
            <path class="cls-15" d="M140.68,207.06c-1.07-.88-1.85-2.06-2.25-3.39,2.33-1.76,5.23-2.81,8.37-2.81,5.38,0,10.04,2.81,12.34,7.31-.74,.75-1.65,1.33-2.64,1.68-1.71,.6-3.61,.2-4.98-.99h0c-1.6-1.39-3.84-1.79-5.82-1.03-1.69,.65-3.62,.38-5.02-.77Z"/>
            <path class="cls-6" d="M154.1,265.69c-2.19,.18-4.67,.28-7.3,.28s-5.13-.1-7.33-.29v-10.93c0-.23,.19-.44,.49-.53,1.87-.55,3.91-.85,6.06-.85h1.82c2.03,0,3.96,.27,5.75,.76,.31,.08,.51,.3,.51,.54v11.01Z"/>
            <path class="cls-16" d="M142.33,255.57h9.21c.87,0,1.73,.1,2.56,.28v7.65c-2.19,.18-4.67,.28-7.3,.28s-5.13-.1-7.33-.29v-7.59c.92-.22,1.88-.34,2.86-.34Z"/>
            <path class="cls-16" d="M135.81,275.06h22.26c1.06,0,2.06-.33,2.91-.92,2.22-1.51,3.15-4.7,2.35-7.55h0c-1.66-5.92-6.42-9.93-11.78-9.93h-9.21c-5.36,0-10.12,4.01-11.78,9.93h0c-.8,2.84,.13,6.03,2.35,7.55,.85,.58,1.85,.92,2.91,.92Z"/>
            <path class="cls-1" d="M135.81,272.5h22.26c1.06,0,2.06-.29,2.91-.79,2.22-1.3,3.15-4.05,2.35-6.5h0c-1.66-5.1-6.42-8.55-11.78-8.55h-9.21c-5.36,0-10.12,3.45-11.78,8.55h0c-.8,2.45,.13,5.19,2.35,6.5,.85,.5,1.85,.79,2.91,.79Z"/>
            <path class="cls-9" d="M142.33,256.67h9.21c.87,0,1.73,.1,2.56,.28v.67c0,3.32-2.69,6-6,6h-2.61c-3.32,0-6-2.69-6-6v-.61c.92-.22,1.88-.34,2.86-.34Z"/>
            <line class="cls-2" x1="154.1" y1="256.94" x2="140.14" y2="260.35"/>
            <line class="cls-2" x1="139.41" y1="256.94" x2="153.37" y2="260.35"/>
            <path class="cls-15" d="M146.8,205.5h0c-5.83,0-10.94,3.08-13.79,7.71,.76-6.95,6.65-12.35,13.79-12.35,7.18,0,13.09,5.02,13.81,12.37-2.85-4.64-7.97-7.73-13.81-7.73Z"/>
            <path class="cls-5" d="M111.98,204.91h0c-1.98-.76-4.22-.36-5.82,1.03h0c-1.37,1.19-3.27,1.59-4.98,.99-2.28-.81-4.08-2.79-4.53-5.34h0c-.67-3.77,1.85-7.37,5.63-8.04l9.11-1.61c3.77-.67,7.37,1.85,8.04,5.63h0c.45,2.56-.56,5.03-2.43,6.57-1.4,1.15-3.33,1.42-5.02,.77Z"/>
            <path class="cls-15" d="M111.39,189.75l-9.11,1.61c-1.98,.35-3.61,1.51-4.62,3.08l.37,1.67c1.02-1.3,2.5-2.25,4.25-2.56l9.11-1.61c1.75-.31,3.47,.08,4.87,.95l-.31-2.38c-1.34-.74-2.93-1.05-4.56-.76Z"/>
            <path class="cls-5" d="M145.66,204.91h0c1.98-.76,4.22-.36,5.82,1.03h0c1.37,1.19,3.27,1.59,4.98,.99,2.28-.81,4.08-2.79,4.53-5.34h0c.67-3.77-1.85-7.37-5.63-8.04l-9.11-1.61c-3.77-.67-7.37,1.85-8.04,5.63h0c-.45,2.56,.56,5.03,2.43,6.57,1.4,1.15,3.33,1.42,5.02,.77Z"/>
            <path class="cls-15" d="M155.36,191.35l-9.11-1.61c-1.63-.29-3.22,.02-4.56,.76l-.31,2.38c1.4-.87,3.11-1.26,4.87-.95l9.11,1.61c1.75,.31,3.23,1.26,4.25,2.56l.37-1.67c-1.01-1.57-2.64-2.73-4.62-3.08Z"/>
            <circle class="cls-5" cx="127.46" cy="99.27" r="38.4"/>
            <circle class="cls-15" cx="116.31" cy="58.66" r="48.66"/>
            <circle class="cls-15" cx="155.97" cy="52.46" r="34.3"/>
            <circle class="cls-15" cx="190.56" cy="90.47" r="48.66"/>
            <line class="cls-4" x1="113.72" y1="108.3" x2="124.59" y2="108.3"/>
            <line class="cls-4" x1="133.2" y1="108.3" x2="144.07" y2="108.3"/>
            <circle class="cls-15" cx="86.71" cy="98.9" r="38.34"/>
          </g>
          <path class="cls-13" d="M49.51,217.28c-.01-.17-.02-.33-.02-.5,0-4.05,4.23-7.34,9.45-7.34,3.65,0,6.81,1.61,8.39,3.96,1.38-.61,2.97-.96,4.67-.96,.6,0,1.19,.04,1.76,.13,1.71-1.89,4.54-3.13,7.74-3.13,5.22,0,9.45,3.29,9.45,7.34,0,.17,0,.33-.02,.5H49.51Z"/>
          <path class="cls-13" d="M170.83,217.31c-.02-.21-.03-.43-.03-.65,0-5.24,5.47-9.49,12.23-9.49,4.72,0,8.81,2.08,10.85,5.12,1.78-.79,3.85-1.24,6.05-1.24,.78,0,1.54,.06,2.28,.17,2.21-2.44,5.87-4.04,10.01-4.04,6.75,0,12.23,4.25,12.23,9.49,0,.22-.01,.43-.03,.65h-53.58Z"/>
          <circle class="cls-13" cx="221.34" cy="137.03" r="4.33"/>
          <circle class="cls-13" cx="200.3" cy="172.92" r="4.33"/>
          <circle class="cls-13" cx="230.01" cy="213.77" r="4.33"/>
          <circle class="cls-13" cx="191.63" cy="256.27" r="4.33"/>
          <circle class="cls-13" cx="68.26" cy="186.95" r="4.33"/>
          <circle class="cls-13" cx="43.51" cy="157.66" r="4.33"/>
          <circle class="cls-13" cx="65.79" cy="132.49" r="4.33"/>
          <circle class="cls-13" cx="22.48" cy="218.17" r="4.33"/>
          <circle class="cls-13" cx="256.66" cy="186.98" r="4.33"/>
          <circle class="cls-13" cx="60.83" cy="250.64" r="4.33"/>
          <circle cx="127.24" cy="124.53" r="1.86"/>
        </g>
      </g>
    </g>
  </g>
</svg>