<?xml version="1.0" encoding="UTF-8"?>
<svg id="_레이어_2" data-name="레이어 2" xmlns="http://www.w3.org/2000/svg" viewBox="0 0 280 300">
  <defs>
    <style>
      .cls-1 {
        fill: #fff;
      }

      .cls-2 {
        stroke: #57addd;
        stroke-linecap: round;
        stroke-linejoin: round;
        stroke-width: 3px;
      }

      .cls-2, .cls-3 {
        fill: none;
      }

      .cls-4 {
        fill: #e87813;
      }

      .cls-5 {
        fill: #e0e2e2;
      }

      .cls-6 {
        fill: #99e5ff;
      }

      .cls-7 {
        fill: #e56915;
      }

      .cls-8 {
        fill: #5590e5;
      }

      .cls-9 {
        fill: #edefef;
      }

      .cls-10 {
        fill: #86dbf2;
      }

      .cls-11 {
        fill: #275ead;
      }

      .cls-12 {
        fill: #396bc4;
      }

      .cls-13 {
        fill: #959999;
      }

      .cls-14 {
        fill: #adb6bc;
      }
    </style>
  </defs>
  <g id="_레이어_1-2" data-name="레이어 1">
    <g>
      <rect class="cls-3" width="280" height="300"/>
      <g>
        <path class="cls-13" d="M95.13,216.63h88.42c0,3.29-2.67,5.96-5.96,5.96H101.09c-3.29,0-5.96-2.67-5.96-5.96h0Z"/>
        <g>
          <path class="cls-12" d="M163.54,173.72h-48.95c-3.88,0-7.21,2.72-7.93,6.47l-6.76,35.46,28.96,8.59c6.7,1.99,13.69,1.99,20.39,0l28.96-8.59-6.76-35.46c-.72-3.75-4.05-6.47-7.93-6.47Z"/>
          <path class="cls-8" d="M137.2,215.82c0-10.3-8.35-18.65-18.65-18.65h0c-10.3,0-18.65,8.35-18.65,18.65v3.29s0,.1,0,.15c.16-10.16,8.44-18.35,18.64-18.35h0c10.2,0,18.48,9.45,18.64,19.62,0-.05,0-1.36,0-1.41v-3.29Z"/>
          <path class="cls-12" d="M118.55,197.7h0c10.29,0,18.65,8.36,18.65,18.65v3.29c0,2.6-2.11,4.71-4.71,4.71h-27.89c-2.6,0-4.71-2.11-4.71-4.71v-3.29c0-10.29,8.36-18.65,18.65-18.65Z"/>
          <path class="cls-4" d="M118.55,200.78c-8.83,0-15.98,6.58-15.98,15.98l.48,10.42,2.75,40.18c3.37,1.1,6.43,1.82,12.76,1.82s9.38-.72,12.76-1.82l2.75-40.18,.48-10.42c0-8.83-7.16-15.98-15.98-15.98Z"/>
          <path class="cls-7" d="M118.66,267.03c4.8,0,9.22-.24,12.72-.65l1.04-15.19c-3.49-.4-7.93,1.34-12.77,1.34h-2.32c-4.78,0-9.18-1.87-12.65-1.48l1.05,15.31c3.53,.42,8.03,.68,12.93,.68Z"/>
          <path class="cls-6" d="M118.66,269.67c6.98,0,13.14-.51,16.86-1.29l.07-13.27c-3.72-3.04-9.47,.06-15.94,.06h-2.32c-6.27,0-11.88-3.22-15.6-.34l.07,13.54c3.72,.78,9.88,1.29,16.86,1.29Z"/>
          <path class="cls-10" d="M101.75,259.41l.05,8.97c3.72,.78,9.88,1.29,16.86,1.29s13.14-.51,16.86-1.29l.04-8.25c-1.96-2.92-4.92-5.03-8.34-5.9-2.34,.41-4.9,.94-7.57,.94h-2.32c-2.63,0-5.14-.57-7.45-1.01-3.25,.75-6.12,2.62-8.13,5.25Z"/>
          <path class="cls-7" d="M196.59,112.34c3.42-9.17,10.18-15.18,22.15-15.18-11.97,0-18.73-6.01-22.15-15.18-1.61-9.63,1.24-18.21,11.6-24.19-10.36,5.98-19.22,4.16-26.76-2.06-6.22-7.54-8.04-16.4-2.06-26.76-5.98,10.35-14.55,13.21-24.19,11.6-9.17-3.42-15.18-10.18-15.18-22.15,0,11.97-6.01,18.73-15.18,22.15-9.63,1.61-18.21-1.24-24.19-11.6,5.98,10.36,4.16,19.22-2.06,26.76-7.54,6.22-16.4,8.04-26.76,2.06,10.35,5.98,13.21,14.55,11.6,24.19-3.42,9.17-10.18,15.18-22.15,15.18,11.97,0,18.73,6.01,22.15,15.18,1.61,9.63-1.24,18.21-11.6,24.19,10.36-5.98,19.22-4.16,26.76,2.06,6.22,7.54,8.04,16.4,2.06,26.76,5.98-10.35,14.55-13.21,24.19-11.6,9.17,3.42,15.18,10.18,15.18,22.15,0-11.97,6.01-18.73,15.18-22.15,9.63-1.61,18.21,1.24,24.19,11.6-5.98-10.36-4.16-19.22,2.06-26.76,7.54-6.22,16.4-8.04,26.76-2.06-10.35-5.98-13.21-14.55-11.6-24.19Z"/>
          <path class="cls-11" d="M163.54,173.72h-48.95c-3.88,0-7.21,2.72-7.93,6.47l-2.62,13.73c3.27,1.39,7.26,1.99,11.39,1.44l6.82-.9c5.82-.77,11.72,2.05,17.62,2.05s11.8-2.81,17.62-2.05l6.82,.9c3.52,.46,6.93,.1,9.89-.88l-2.72-14.29c-.72-3.75-4.05-6.47-7.93-6.47Z"/>
          <path class="cls-8" d="M178.23,215.82c0-10.3-8.35-18.65-18.65-18.65h0c-10.3,0-18.65,8.35-18.65,18.65v3.29s0,.1,0,.15c.16-10.16,8.44-18.35,18.64-18.35h0c10.2,0,18.48,8.19,18.64,18.35,0-.05,0-.1,0-.15v-3.29Z"/>
          <path class="cls-1" d="M164.3,193.77l-6.82-.9c-5.82-.77-11.72,2.05-17.62,2.05s-11.8-2.81-17.62-2.05l-6.82,.9c-10.01,1.32-19.26-4.07-19.26-11.23v-32.27h87.38v32.27c0,7.15-9.25,12.54-19.26,11.23Z"/>
          <path class="cls-12" d="M159.58,197.7h0c10.29,0,18.65,8.36,18.65,18.65v3.29c0,2.6-2.11,4.71-4.71,4.71h-27.89c-2.6,0-4.71-2.11-4.71-4.71v-3.29c0-10.29,8.36-18.65,18.65-18.65Z"/>
          <path class="cls-1" d="M145.98,115.27h-12.23c-20.75,0-37.57,16.82-37.57,37.57v21.2c0,1.83,.19,3.59,.53,5.26,1.23-.13,2.55-.2,3.96-.2,20.05,0,20.05,13.8,40.09,13.8s20.05-13.8,40.09-13.8c.76,0,1.5,.02,2.2,.06,.32-1.63,.5-3.35,.5-5.12v-21.2c0-20.75-16.82-37.57-37.57-37.57Z"/>
          <ellipse class="cls-14" cx="107.55" cy="159.29" rx="16.43" ry="4.69" transform="translate(-26.03 21.1) rotate(-10)"/>
          <path class="cls-4" d="M119.41,150.21l5.34,41.38c-1.61-1.01-3.59-1.45-5.61-1.09l-10.49,1.85c-2.02,.36-3.72,1.45-4.9,2.95l-8.76-39.61,24.42-5.47Z"/>
          <path class="cls-7" d="M125.6,207.92c1.23-1.01,2.13-2.37,2.59-3.9-2.68-2.03-6.02-3.24-9.64-3.24-6.19,0-11.56,3.24-14.21,8.42,.85,.86,1.89,1.53,3.04,1.93,1.97,.69,4.16,.23,5.73-1.14h0c1.84-1.6,4.42-2.06,6.7-1.18,1.95,.75,4.17,.44,5.78-.89Z"/>
          <path class="cls-7" d="M120.21,156.38l-.8-6.17-24.42,5.47,.94,4.27c2.75-1.28,6.54-2.43,10.8-3.18,5.41-.95,10.33-1.04,13.47-.39Z"/>
          <ellipse class="cls-14" cx="170.88" cy="159.29" rx="4.69" ry="16.43" transform="translate(-15.66 299.92) rotate(-80)"/>
          <path class="cls-4" d="M159.02,150.21l-5.34,41.38c1.61-1.01,3.59-1.45,5.61-1.09l10.49,1.85c2.02,.36,3.72,1.45,4.9,2.95l8.76-39.61-24.42-5.47Z"/>
          <path class="cls-1" d="M91.37,162.15c-.45-2.55,6.43-5.9,15.37-7.48,8.94-1.58,16.55-.78,17,1.77,0,.04,0,.08,.01,.12l.11-.02-4.91-23.3-6.39-12.11c-12.14,.88-18.27,7.61-21.37,14.12-2.63,5.53-3.34,11.78-2.28,17.81l2.42,9.21h.07s-.02-.09-.03-.13Z"/>
          <path class="cls-7" d="M158.15,156.38l.8-6.17,24.42,5.47-.94,4.27c-2.75-1.28-6.54-2.43-10.8-3.18-5.41-.95-10.33-1.04-13.47-.39Z"/>
          <path class="cls-1" d="M187.06,162.15c.45-2.55-6.43-5.9-15.37-7.48-8.94-1.58-16.55-.78-17,1.77,0,.04,0,.08-.01,.12l-.11-.02,4.91-23.3,6.39-12.11c12.14,.88,18.27,7.61,21.37,14.12,2.63,5.53,3.34,11.78,2.28,17.81l-2.42,9.21h-.07s.02-.09,.03-.13Z"/>
          <circle class="cls-4" cx="139.2" cy="98.43" r="35.79"/>
          <path class="cls-5" d="M110.15,265.44c2.53,.21,5.38,.33,8.4,.33s5.9-.12,8.44-.33v-12.59c0-.26-.22-.51-.56-.61-2.15-.63-4.51-.98-6.98-.98h-2.1c-2.33,0-4.56,.31-6.62,.88-.35,.1-.58,.35-.58,.62v12.69Z"/>
          <path class="cls-14" d="M123.7,253.79h-10.61c-1.01,0-1.99,.12-2.95,.32v8.81c2.53,.21,5.38,.33,8.4,.33s5.9-.12,8.44-.33v-8.74c-1.06-.25-2.16-.39-3.29-.39Z"/>
          <path class="cls-14" d="M131.22,276.23h-25.63c-1.22,0-2.37-.39-3.35-1.06-2.56-1.74-3.62-5.42-2.7-8.69h0c1.92-6.82,7.39-11.43,13.57-11.43h10.61c6.18,0,11.65,4.61,13.57,11.43h0c.92,3.27-.15,6.95-2.7,8.69-.98,.67-2.13,1.06-3.35,1.06Z"/>
          <path class="cls-1" d="M131.22,273.29h-25.63c-1.22,0-2.37-.33-3.35-.91-2.56-1.5-3.62-4.66-2.7-7.48h0c1.92-5.87,7.39-9.84,13.57-9.84h10.61c6.18,0,11.65,3.97,13.57,9.84h0c.92,2.82-.15,5.98-2.7,7.48-.98,.58-2.13,.91-3.35,.91Z"/>
          <path class="cls-9" d="M123.7,255.05h-10.61c-1.01,0-1.99,.12-2.95,.32v.77c0,3.82,3.1,6.92,6.92,6.92h3.01c3.82,0,6.92-3.1,6.92-6.92v-.7c-1.06-.25-2.16-.39-3.29-.39Z"/>
          <line class="cls-2" x1="110.15" y1="255.37" x2="126.23" y2="259.29"/>
          <line class="cls-2" x1="127.07" y1="255.37" x2="110.99" y2="259.29"/>
          <path class="cls-7" d="M118.55,206.12h0c6.72,0,12.6,3.55,15.89,8.88-.88-8-7.65-14.22-15.89-14.22s-15.08,5.78-15.9,14.25c3.28-5.34,9.17-8.9,15.9-8.9Z"/>
          <path class="cls-4" d="M159.93,200.78c8.83,0,15.98,6.58,15.98,15.98l-.48,10.42-2.75,40.18c-3.37,1.1-6.43,1.82-12.76,1.82-6.32,0-9.38-.72-12.76-1.82l-2.75-40.18-.48-10.42c0-8.83,7.16-15.98,15.98-15.98Z"/>
          <path class="cls-7" d="M159.82,267.03c-4.8,0-9.22-.24-12.72-.65l-1.04-15.19c3.49-.4,7.93,1.34,12.77,1.34h2.32c4.78,0,9.18-1.87,12.65-1.48l-1.05,15.31c-3.53,.42-8.03,.68-12.93,.68Z"/>
          <path class="cls-6" d="M159.82,269.67c-6.98,0-13.14-.51-16.86-1.29l-.07-13.27c3.72-3.04,9.47,.06,15.94,.06h2.32c6.27,0,11.88-3.22,15.6-.34l-.07,13.54c-3.72,.78-9.88,1.29-16.86,1.29Z"/>
          <path class="cls-10" d="M176.73,259.41l-.05,8.97c-3.72,.78-9.88,1.29-16.86,1.29-6.98,0-13.14-.51-16.86-1.29l-.04-8.25c1.96-2.92,4.92-5.03,8.34-5.9,2.34,.41,4.9,.94,7.57,.94h2.32c2.63,0,5.14-.57,7.45-1.01,3.25,.75,6.12,2.62,8.13,5.25Z"/>
          <path class="cls-7" d="M152.88,207.92c-1.23-1.01-2.13-2.37-2.59-3.9,2.68-2.03,6.02-3.24,9.64-3.24,6.19,0,11.56,3.24,14.21,8.42-.85,.86-1.89,1.53-3.04,1.93-1.97,.69-4.16,.23-5.73-1.14h0c-1.84-1.6-4.42-2.06-6.7-1.18-1.95,.75-4.17,.44-5.78-.89Z"/>
          <path class="cls-5" d="M168.33,265.44c-2.53,.21-5.38,.33-8.4,.33s-5.9-.12-8.44-.33v-12.59c0-.26,.22-.51,.56-.61,2.15-.63,4.51-.98,6.98-.98h2.1c2.33,0,4.56,.31,6.62,.88,.35,.1,.58,.35,.58,.62v12.69Z"/>
          <path class="cls-14" d="M154.78,253.79h10.61c1.01,0,1.99,.12,2.95,.32v8.81c-2.53,.21-5.38,.33-8.4,.33s-5.9-.12-8.44-.33v-8.74c1.06-.25,2.16-.39,3.29-.39Z"/>
          <path class="cls-14" d="M147.26,276.23h25.63c1.22,0,2.37-.39,3.35-1.06,2.56-1.74,3.62-5.42,2.7-8.69h0c-1.92-6.82-7.39-11.43-13.57-11.43h-10.61c-6.18,0-11.65,4.61-13.57,11.43h0c-.92,3.27,.15,6.95,2.7,8.69,.98,.67,2.13,1.06,3.35,1.06Z"/>
          <path class="cls-1" d="M147.26,273.29h25.63c1.22,0,2.37-.33,3.35-.91,2.56-1.5,3.62-4.66,2.7-7.48h0c-1.92-5.87-7.39-9.84-13.57-9.84h-10.61c-6.18,0-11.65,3.97-13.57,9.84h0c-.92,2.82,.15,5.98,2.7,7.48,.98,.58,2.13,.91,3.35,.91Z"/>
          <path class="cls-9" d="M154.78,255.05h10.61c1.01,0,1.99,.12,2.95,.32v.77c0,3.82-3.1,6.92-6.92,6.92h-3.01c-3.82,0-6.92-3.1-6.92-6.92v-.7c1.06-.25,2.16-.39,3.29-.39Z"/>
          <line class="cls-2" x1="168.33" y1="255.37" x2="152.25" y2="259.29"/>
          <line class="cls-2" x1="151.41" y1="255.37" x2="167.49" y2="259.29"/>
          <path class="cls-7" d="M159.93,206.12h0c-6.72,0-12.6,3.55-15.89,8.88,.88-8,7.65-14.22,15.89-14.22,8.27,0,15.08,5.78,15.9,14.25-3.28-5.34-9.17-8.9-15.9-8.9Z"/>
          <path class="cls-4" d="M119.83,205.44h0c-2.28-.87-4.86-.42-6.7,1.18h0c-1.58,1.37-3.77,1.83-5.73,1.14-2.63-.93-4.7-3.21-5.22-6.15h0c-.77-4.35,2.14-8.49,6.48-9.26l10.49-1.85c4.35-.77,8.49,2.14,9.26,6.48h0c.52,2.94-.64,5.79-2.8,7.57-1.61,1.32-3.83,1.64-5.78,.89Z"/>
          <path class="cls-7" d="M119.15,187.98l-10.49,1.85c-2.28,.4-4.16,1.74-5.32,3.54l.43,1.93c1.17-1.5,2.87-2.59,4.89-2.95l10.49-1.85c2.02-.36,3.99,.09,5.61,1.09l-.35-2.74c-1.54-.86-3.38-1.21-5.25-.88Z"/>
          <path class="cls-4" d="M158.61,205.44h0c2.28-.87,4.86-.42,6.7,1.18h0c1.58,1.37,3.77,1.83,5.73,1.14,2.63-.93,4.7-3.21,5.22-6.15h0c.77-4.35-2.14-8.49-6.48-9.26l-10.49-1.85c-4.35-.77-8.49,2.14-9.26,6.48h0c-.52,2.94,.64,5.79,2.8,7.57,1.61,1.32,3.83,1.64,5.78,.89Z"/>
          <path class="cls-7" d="M169.79,189.83l-10.49-1.85c-1.87-.33-3.71,.02-5.25,.88l-.35,2.74c1.61-1.01,3.59-1.45,5.61-1.09l10.49,1.85c2.02,.36,3.72,1.45,4.9,2.95l.43-1.93c-1.16-1.8-3.04-3.14-5.32-3.54Z"/>
        </g>
        <g>
          <circle cx="126.3" cy="97.7" r="5.44"/>
          <circle cx="152.04" cy="97.7" r="5.44"/>
          <circle cx="139.65" cy="115.41" r="2.04"/>
          <circle class="cls-1" cx="125.28" cy="96" r="2.38"/>
          <circle class="cls-1" cx="151.02" cy="96" r="2.38"/>
        </g>
      </g>
    </g>
  </g>
</svg>