<?xml version="1.0" encoding="UTF-8"?>
<svg id="_레이어_2" data-name="레이어 2" xmlns="http://www.w3.org/2000/svg" viewBox="0 0 280 300">
  <defs>
    <style>
      .cls-1 {
        fill: #fff;
      }

      .cls-2 {
        stroke: #57addd;
        stroke-linecap: round;
        stroke-linejoin: round;
        stroke-width: 3px;
      }

      .cls-2, .cls-3 {
        fill: none;
      }

      .cls-4 {
        fill: #71d0ea;
      }

      .cls-5, .cls-6 {
        fill: #55b6c6;
      }

      .cls-7 {
        fill: #e87813;
      }

      .cls-6, .cls-8 {
        opacity: .5;
      }

      .cls-9 {
        fill: #e0e2e2;
      }

      .cls-10 {
        fill: #99e5ff;
      }

      .cls-11 {
        fill: #e56915;
      }

      .cls-12 {
        fill: #5590e5;
      }

      .cls-13 {
        fill: #edefef;
      }

      .cls-14 {
        fill: #86dbf2;
      }

      .cls-15 {
        fill: #275ead;
      }

      .cls-8 {
        fill: #64c2d8;
      }

      .cls-16 {
        fill: #396bc4;
      }

      .cls-17 {
        opacity: .1;
      }

      .cls-18 {
        fill: #959999;
      }

      .cls-19 {
        fill: #42b0f4;
      }

      .cls-20 {
        fill: #adb6bc;
      }
    </style>
  </defs>
  <g id="_레이어_1-2" data-name="레이어 1">
    <g>
      <rect class="cls-3" width="280" height="300"/>
      <g>
        <path class="cls-18" d="M148.03,215.96h100.74c0,3.29-2.67,5.96-5.96,5.96h-88.83c-3.29,0-5.96-2.67-5.96-5.96h0Z"/>
        <path class="cls-18" d="M21.98,215.96H165.9c0,3.29-2.67,5.96-5.96,5.96H27.93c-3.29,0-5.96-2.67-5.96-5.96h0Z"/>
        <g>
          <path class="cls-16" d="M229.29,174.58h-48.11c-3.81,0-7.09,2.67-7.79,6.36l-6.64,34.85,28.47,8.44c6.58,1.95,13.46,1.95,20.04,0l28.47-8.44-6.64-34.85c-.7-3.69-3.98-6.36-7.79-6.36Z"/>
          <path class="cls-12" d="M203.4,215.95c0-10.12-8.21-18.33-18.33-18.33h0c-10.12,0-18.33,8.21-18.33,18.33v3.23s0,.1,0,.15c.16-9.99,8.3-18.04,18.32-18.04h0c10.02,0,18.16,9.29,18.32,19.28,0-.05,0-1.34,0-1.39v-3.23Z"/>
          <path class="cls-16" d="M185.07,198.15h0c10.11,0,18.33,8.21,18.33,18.33v3.23c0,2.55-2.07,4.62-4.62,4.62h-27.4c-2.55,0-4.62-2.07-4.62-4.62v-3.23c0-10.11,8.21-18.33,18.33-18.33Z"/>
          <path class="cls-7" d="M185.07,201.17c-8.68,0-15.71,6.46-15.71,15.71l.47,10.24,2.7,39.48c3.31,1.08,6.32,1.79,12.54,1.79s9.22-.71,12.54-1.79l2.7-39.48,.47-10.24c0-8.68-7.03-15.71-15.71-15.71Z"/>
          <path class="cls-11" d="M185.18,266.28c4.72,0,9.06-.24,12.5-.64l1.02-14.93c-3.43-.39-7.79,1.31-12.55,1.31h-2.28c-4.7,0-9.02-1.84-12.43-1.45l1.03,15.04c3.47,.41,7.89,.66,12.7,.66Z"/>
          <path class="cls-10" d="M185.18,268.88c6.86,0,12.91-.5,16.56-1.27l.07-13.04c-3.65-2.99-9.31,.06-15.66,.06h-2.28c-6.16,0-11.67-3.16-15.33-.33l.07,13.31c3.66,.77,9.71,1.27,16.56,1.27Z"/>
          <path class="cls-14" d="M168.56,258.79l.05,8.82c3.66,.77,9.71,1.27,16.56,1.27s12.91-.5,16.56-1.27l.04-8.11c-1.92-2.87-4.84-4.94-8.19-5.79-2.3,.4-4.81,.92-7.44,.92h-2.28c-2.59,0-5.06-.56-7.32-.99-3.19,.74-6.01,2.57-7.99,5.16Z"/>
          <path class="cls-15" d="M229.29,174.58h-48.11c-3.81,0-7.09,2.67-7.79,6.36l-2.57,13.49c3.22,1.36,7.14,1.95,11.19,1.42l6.7-.88c5.72-.75,11.52,2.01,17.31,2.01s11.59-2.77,17.31-2.01l6.7,.88c3.45,.45,6.82,.09,9.72-.87l-2.68-14.04c-.7-3.69-3.98-6.36-7.79-6.36Z"/>
          <path class="cls-12" d="M243.72,215.95c0-10.12-8.21-18.33-18.33-18.33h0c-10.12,0-18.33,8.21-18.33,18.33v3.23s0,.1,0,.15c.16-9.99,8.3-18.04,18.32-18.04h0c10.02,0,18.16,8.05,18.32,18.04,0-.05,0-.1,0-.15v-3.23Z"/>
          <path class="cls-1" d="M230.03,194.29l-6.7-.88c-5.72-.75-11.52,2.01-17.31,2.01-5.8,0-11.59-2.77-17.31-2.01l-6.7,.88c-9.83,1.3-18.93-4-18.93-11.03v-31.71h85.87v31.71c0,7.03-9.09,12.33-18.93,11.03Z"/>
          <path class="cls-16" d="M225.39,198.15h0c10.11,0,18.33,8.21,18.33,18.33v3.23c0,2.55-2.07,4.62-4.62,4.62h-27.4c-2.55,0-4.62-2.07-4.62-4.62v-3.23c0-10.11,8.21-18.33,18.33-18.33Z"/>
          <path class="cls-1" d="M212.03,117.14h-12.02c-20.39,0-36.93,16.53-36.93,36.93v20.83c0,1.8,.18,3.53,.52,5.17,1.21-.13,2.5-.19,3.89-.19,19.7,0,19.7,13.56,39.4,13.56s19.7-13.56,39.4-13.56c.75,0,1.47,.02,2.16,.06,.32-1.61,.49-3.29,.49-5.04v-20.83c0-20.39-16.53-36.93-36.93-36.93Z"/>
          <path class="cls-11" d="M192,208.19c1.21-.99,2.1-2.33,2.55-3.84-2.63-2-5.92-3.18-9.47-3.18-6.09,0-11.36,3.18-13.97,8.27,.84,.85,1.86,1.5,2.99,1.9,1.93,.68,4.09,.22,5.64-1.12h0c1.81-1.57,4.35-2.02,6.59-1.16,1.91,.73,4.1,.43,5.68-.87Z"/>
          <circle class="cls-7" cx="217.36" cy="106.79" r="47.17"/>
          <path class="cls-9" d="M176.81,264.72c2.48,.2,5.29,.32,8.26,.32s5.8-.12,8.29-.32v-12.37c0-.26-.22-.5-.55-.6-2.11-.62-4.43-.96-6.86-.96h-2.06c-2.29,0-4.48,.31-6.5,.86-.35,.1-.57,.34-.57,.61v12.47Z"/>
          <path class="cls-20" d="M190.13,253.27h-10.42c-.99,0-1.96,.11-2.9,.31v8.66c2.48,.2,5.29,.32,8.26,.32s5.8-.12,8.29-.32v-8.59c-1.04-.25-2.13-.38-3.23-.38Z"/>
          <path class="cls-20" d="M197.52,275.33h-25.19c-1.2,0-2.33-.38-3.3-1.04-2.51-1.71-3.56-5.32-2.66-8.54h0c1.88-6.7,7.27-11.24,13.34-11.24h10.42c6.07,0,11.45,4.53,13.34,11.24h0c.9,3.22-.14,6.83-2.66,8.54-.97,.66-2.09,1.04-3.3,1.04Z"/>
          <path class="cls-1" d="M197.52,272.43h-25.19c-1.2,0-2.33-.33-3.3-.89-2.51-1.48-3.56-4.58-2.66-7.35h0c1.88-5.77,7.27-9.67,13.34-9.67h10.42c6.07,0,11.45,3.9,13.34,9.67h0c.9,2.77-.14,5.88-2.66,7.35-.97,.57-2.09,.89-3.3,.89Z"/>
          <path class="cls-13" d="M190.13,254.51h-10.42c-.99,0-1.96,.11-2.9,.31v.75c0,3.75,3.04,6.8,6.8,6.8h2.96c3.75,0,6.8-3.04,6.8-6.8v-.69c-1.04-.25-2.13-.38-3.23-.38Z"/>
          <line class="cls-2" x1="176.81" y1="254.82" x2="192.61" y2="258.68"/>
          <line class="cls-2" x1="193.44" y1="254.82" x2="177.64" y2="258.68"/>
          <path class="cls-11" d="M185.07,206.42h0c6.6,0,12.39,3.49,15.61,8.73-.86-7.86-7.52-13.98-15.61-13.98s-14.82,5.68-15.63,14c3.22-5.25,9.02-8.75,15.63-8.75Z"/>
          <path class="cls-7" d="M225.73,201.17c8.68,0,15.71,6.46,15.71,15.71l-.47,10.24-2.7,39.48c-3.31,1.08-6.32,1.79-12.54,1.79-6.22,0-9.22-.71-12.54-1.79l-2.7-39.48-.47-10.24c0-8.68,7.03-15.71,15.71-15.71Z"/>
          <path class="cls-11" d="M225.63,266.28c-4.72,0-9.06-.24-12.5-.64l-1.02-14.93c3.43-.39,7.79,1.31,12.55,1.31h2.28c4.7,0,9.02-1.84,12.43-1.45l-1.03,15.04c-3.47,.41-7.89,.66-12.7,.66Z"/>
          <path class="cls-10" d="M225.63,268.88c-6.86,0-12.91-.5-16.56-1.27l-.07-13.04c3.65-2.99,9.31,.06,15.66,.06h2.28c6.16,0,11.67-3.16,15.33-.33l-.07,13.31c-3.66,.77-9.71,1.27-16.56,1.27Z"/>
          <path class="cls-14" d="M242.24,258.79l-.05,8.82c-3.66,.77-9.71,1.27-16.56,1.27-6.86,0-12.91-.5-16.56-1.27l-.04-8.11c1.92-2.87,4.84-4.94,8.19-5.79,2.3,.4,4.81,.92,7.44,.92h2.28c2.59,0,5.06-.56,7.32-.99,3.19,.74,6.01,2.57,7.99,5.16Z"/>
          <path class="cls-11" d="M218.8,208.19c-1.21-.99-2.1-2.33-2.55-3.84,2.63-2,5.92-3.18,9.47-3.18,6.09,0,11.36,3.18,13.97,8.27-.84,.85-1.86,1.5-2.99,1.9-1.93,.68-4.09,.22-5.64-1.12h0c-1.81-1.57-4.35-2.02-6.59-1.16-1.91,.73-4.1,.43-5.68-.87Z"/>
          <path class="cls-9" d="M233.99,264.72c-2.48,.2-5.29,.32-8.26,.32-2.99,0-5.8-.12-8.29-.32v-12.37c0-.26,.22-.5,.55-.6,2.11-.62,4.43-.96,6.86-.96h2.06c2.29,0,4.48,.31,6.5,.86,.35,.1,.57,.34,.57,.61v12.47Z"/>
          <path class="cls-20" d="M220.67,253.27h10.42c.99,0,1.96,.11,2.9,.31v8.66c-2.48,.2-5.29,.32-8.26,.32s-5.8-.12-8.29-.32v-8.59c1.04-.25,2.13-.38,3.23-.38Z"/>
          <path class="cls-20" d="M213.29,275.33h25.19c1.2,0,2.33-.38,3.3-1.04,2.51-1.71,3.56-5.32,2.66-8.54h0c-1.88-6.7-7.27-11.24-13.34-11.24h-10.42c-6.07,0-11.45,4.53-13.34,11.24h0c-.9,3.22,.14,6.83,2.66,8.54,.97,.66,2.09,1.04,3.3,1.04Z"/>
          <path class="cls-1" d="M213.29,272.43h25.19c1.2,0,2.33-.33,3.3-.89,2.51-1.48,3.56-4.58,2.66-7.35h0c-1.88-5.77-7.27-9.67-13.34-9.67h-10.42c-6.07,0-11.45,3.9-13.34,9.67h0c-.9,2.77,.14,5.88,2.66,7.35,.97,.57,2.09,.89,3.3,.89Z"/>
          <path class="cls-13" d="M220.67,254.51h10.42c.99,0,1.96,.11,2.9,.31v.75c0,3.75-3.04,6.8-6.8,6.8h-2.96c-3.75,0-6.8-3.04-6.8-6.8v-.69c1.04-.25,2.13-.38,3.23-.38Z"/>
          <line class="cls-2" x1="233.99" y1="254.82" x2="218.19" y2="258.68"/>
          <line class="cls-2" x1="217.36" y1="254.82" x2="233.16" y2="258.68"/>
          <path class="cls-11" d="M225.73,206.42h0c-6.6,0-12.39,3.49-15.61,8.73,.86-7.86,7.52-13.98,15.61-13.98,8.13,0,14.82,5.68,15.63,14-3.22-5.25-9.02-8.75-15.63-8.75Z"/>
          <path class="cls-17" d="M192.39,86.25c-2.04-3.83-6.8-5.27-10.63-3.23-2.59,1.38-4.09,4.01-4.15,6.75-.05,2.05,1.06,3.95,2.82,5.01,2.06,1.23,3.27,3.5,3.15,5.9-.1,2.05,.87,4.03,2.6,5.13,2.31,1.47,5.33,1.69,7.92,.3,3.83-2.04,5.27-6.8,3.23-10.63l-4.93-9.24Z"/>
          <g>
            <circle cx="211.36" cy="96.99" r="4.18"/>
            <circle cx="225.35" cy="110.98" r="4.18"/>
            <circle cx="208.99" cy="113.87" r="1.57"/>
            <circle class="cls-1" cx="211.73" cy="95.52" r="1.83"/>
            <circle class="cls-1" cx="225.72" cy="109.5" r="1.83"/>
          </g>
          <path class="cls-17" d="M232.5,113.03l-9.85-3.57c-4.08-1.48-8.58,.63-10.06,4.71-1,2.76-.36,5.72,1.43,7.8,1.34,1.56,3.43,2.23,5.44,1.84,2.36-.46,4.78,.42,6.29,2.28,1.29,1.59,3.34,2.41,5.36,2.08,2.7-.45,5.09-2.31,6.09-5.07,1.48-4.08-.63-8.58-4.71-10.06Z"/>
        </g>
        <g>
          <path class="cls-16" d="M137.43,174.58h-48.11c-3.81,0-7.09,2.67-7.79,6.36l-6.64,34.85,28.47,8.44c6.58,1.95,13.46,1.95,20.04,0l28.47-8.44-6.64-34.85c-.7-3.69-3.98-6.36-7.79-6.36Z"/>
          <path class="cls-12" d="M111.54,215.95c0-10.12-8.21-18.33-18.33-18.33h0c-10.12,0-18.33,8.21-18.33,18.33v3.23s0,.1,0,.15c.16-9.99,8.3-18.04,18.32-18.04h0c10.02,0,18.16,9.29,18.32,19.28,0-.05,0-1.34,0-1.39v-3.23Z"/>
          <path class="cls-16" d="M93.22,198.15h0c10.11,0,18.33,8.21,18.33,18.33v3.23c0,2.55-2.07,4.62-4.62,4.62h-27.4c-2.55,0-4.62-2.07-4.62-4.62v-3.23c0-10.11,8.21-18.33,18.33-18.33Z"/>
          <path class="cls-5" d="M93.22,201.17c-8.68,0-15.71,6.46-15.71,15.71l.47,10.24,2.7,39.48c3.31,1.08,6.32,1.79,12.54,1.79s9.22-.71,12.54-1.79l2.7-39.48,.47-10.24c0-8.68-7.03-15.71-15.71-15.71Z"/>
          <path class="cls-19" d="M93.32,266.28c4.72,0,9.06-.24,12.5-.64l1.02-14.93c-3.43-.39-7.79,1.31-12.55,1.31h-2.28c-4.7,0-9.02-1.84-12.43-1.45l1.03,15.04c3.47,.41,7.89,.66,12.7,.66Z"/>
          <path class="cls-10" d="M93.32,268.88c6.86,0,12.91-.5,16.56-1.27l.07-13.04c-3.65-2.99-9.31,.06-15.66,.06h-2.28c-6.16,0-11.67-3.16-15.33-.33l.07,13.31c3.66,.77,9.71,1.27,16.56,1.27Z"/>
          <path class="cls-14" d="M76.71,258.79l.05,8.82c3.66,.77,9.71,1.27,16.56,1.27s12.91-.5,16.56-1.27l.04-8.11c-1.92-2.87-4.84-4.94-8.19-5.79-2.3,.4-4.81,.92-7.44,.92h-2.28c-2.59,0-5.06-.56-7.32-.99-3.19,.74-6.01,2.57-7.99,5.16Z"/>
          <path class="cls-15" d="M137.43,174.58h-48.11c-3.81,0-7.09,2.67-7.79,6.36l-2.57,13.49c3.22,1.36,7.14,1.95,11.19,1.42l6.7-.88c5.72-.75,11.52,2.01,17.31,2.01s11.59-2.77,17.31-2.01l6.7,.88c3.45,.45,6.82,.09,9.72-.87l-2.68-14.04c-.7-3.69-3.98-6.36-7.79-6.36Z"/>
          <path class="cls-12" d="M151.86,215.95c0-10.12-8.21-18.33-18.33-18.33h0c-10.12,0-18.33,8.21-18.33,18.33v3.23s0,.1,0,.15c.16-9.99,8.3-18.04,18.32-18.04h0c10.02,0,18.16,8.05,18.32,18.04,0-.05,0-.1,0-.15v-3.23Z"/>
          <path class="cls-1" d="M138.17,194.29l-6.7-.88c-5.72-.75-11.52,2.01-17.31,2.01-5.8,0-11.59-2.77-17.31-2.01l-6.7,.88c-9.83,1.3-18.93-4-18.93-11.03v-31.71h85.87v31.71c0,7.03-9.09,12.33-18.93,11.03Z"/>
          <path class="cls-16" d="M133.53,198.15h0c10.11,0,18.33,8.21,18.33,18.33v3.23c0,2.55-2.07,4.62-4.62,4.62h-27.4c-2.55,0-4.62-2.07-4.62-4.62v-3.23c0-10.11,8.21-18.33,18.33-18.33Z"/>
          <path class="cls-1" d="M120.17,117.14h-12.02c-20.39,0-36.93,16.53-36.93,36.93v20.83c0,1.8,.18,3.53,.52,5.17,1.21-.13,2.5-.19,3.89-.19,19.7,0,19.7,13.56,39.4,13.56s19.7-13.56,39.4-13.56c.75,0,1.47,.02,2.16,.06,.32-1.61,.49-3.29,.49-5.04v-20.83c0-20.39-16.53-36.93-36.93-36.93Z"/>
          <ellipse class="cls-20" cx="82.4" cy="160.4" rx="16.15" ry="4.61" transform="translate(-26.6 16.75) rotate(-10)"/>
          <path class="cls-19" d="M94.84,157.54l-.78-6.06-24,5.38,.93,4.2c2.71-1.26,6.43-2.39,10.61-3.13,5.32-.94,10.15-1.02,13.24-.39Z"/>
          <ellipse class="cls-20" cx="144.64" cy="160.4" rx="4.61" ry="16.15" transform="translate(-38.44 275) rotate(-80)"/>
          <path class="cls-1" d="M66.5,163.21c-.44-2.51,6.32-5.8,15.1-7.35,8.78-1.55,16.26-.77,16.7,1.74,0,.04,0,.08,.01,.12l.11-.02-4.82-22.9-6.28-11.9c-11.93,.86-17.95,7.48-21,13.88-2.59,5.43-3.29,11.58-2.24,17.51l2.38,9.05h.06s-.02-.09-.03-.12Z"/>
          <path class="cls-19" d="M132.13,157.54l.78-6.06,24,5.38-.93,4.2c-2.71-1.26-6.43-2.39-10.61-3.13-5.32-.94-10.15-1.02-13.24-.39Z"/>
          <path class="cls-1" d="M160.55,163.21c.44-2.51-6.32-5.8-15.1-7.35-8.78-1.55-16.26-.77-16.7,1.74,0,.04,0,.08-.01,.12l-.11-.02,4.82-22.9,6.28-11.9c11.93,.86,17.95,7.48,21,13.88,2.59,5.43,3.29,11.58,2.24,17.51l-2.38,9.05h-.06s.02-.09,.03-.12Z"/>
          <path class="cls-9" d="M84.96,264.72c2.48,.2,5.29,.32,8.26,.32s5.8-.12,8.29-.32v-12.37c0-.26-.22-.5-.55-.6-2.11-.62-4.43-.96-6.86-.96h-2.06c-2.29,0-4.48,.31-6.5,.86-.35,.1-.57,.34-.57,.61v12.47Z"/>
          <path class="cls-20" d="M98.28,253.27h-10.42c-.99,0-1.96,.11-2.9,.31v8.66c2.48,.2,5.29,.32,8.26,.32s5.8-.12,8.29-.32v-8.59c-1.04-.25-2.13-.38-3.23-.38Z"/>
          <path class="cls-20" d="M105.66,275.33h-25.19c-1.2,0-2.33-.38-3.3-1.04-2.51-1.71-3.56-5.32-2.66-8.54h0c1.88-6.7,7.27-11.24,13.34-11.24h10.42c6.07,0,11.45,4.53,13.34,11.24h0c.9,3.22-.14,6.83-2.66,8.54-.97,.66-2.09,1.04-3.3,1.04Z"/>
          <path class="cls-1" d="M105.66,272.43h-25.19c-1.2,0-2.33-.33-3.3-.89-2.51-1.48-3.56-4.58-2.66-7.35h0c1.88-5.77,7.27-9.67,13.34-9.67h10.42c6.07,0,11.45,3.9,13.34,9.67h0c.9,2.77-.14,5.88-2.66,7.35-.97,.57-2.09,.89-3.3,.89Z"/>
          <path class="cls-13" d="M98.28,254.51h-10.42c-.99,0-1.96,.11-2.9,.31v.75c0,3.75,3.04,6.8,6.8,6.8h2.96c3.75,0,6.8-3.04,6.8-6.8v-.69c-1.04-.25-2.13-.38-3.23-.38Z"/>
          <line class="cls-2" x1="84.96" y1="254.82" x2="100.76" y2="258.68"/>
          <line class="cls-2" x1="101.58" y1="254.82" x2="85.78" y2="258.68"/>
          <path class="cls-4" d="M133.88,201.17c8.68,0,15.71,6.46,15.71,15.71l-.47,10.24-2.7,39.48c-3.31,1.08-6.32,1.79-12.54,1.79-6.22,0-9.22-.71-12.54-1.79l-2.7-39.48-.47-10.24c0-8.68,7.03-15.71,15.71-15.71Z"/>
          <path class="cls-19" d="M133.77,266.28c-4.72,0-9.06-.24-12.5-.64l-1.02-14.93c3.43-.39,7.79,1.31,12.55,1.31h2.28c4.7,0,9.02-1.84,12.43-1.45l-1.03,15.04c-3.47,.41-7.89,.66-12.7,.66Z"/>
          <path class="cls-10" d="M133.77,268.88c-6.86,0-12.91-.5-16.56-1.27l-.07-13.04c3.65-2.99,9.31,.06,15.66,.06h2.28c6.16,0,11.67-3.16,15.33-.33l-.07,13.31c-3.66,.77-9.71,1.27-16.56,1.27Z"/>
          <path class="cls-14" d="M150.39,258.79l-.05,8.82c-3.66,.77-9.71,1.27-16.56,1.27-6.86,0-12.91-.5-16.56-1.27l-.04-8.11c1.92-2.87,4.84-4.94,8.19-5.79,2.3,.4,4.81,.92,7.44,.92h2.28c2.59,0,5.06-.56,7.32-.99,3.19,.74,6.01,2.57,7.99,5.16Z"/>
          <path class="cls-9" d="M142.13,264.72c-2.48,.2-5.29,.32-8.26,.32-2.99,0-5.8-.12-8.29-.32v-12.37c0-.26,.22-.5,.55-.6,2.11-.62,4.43-.96,6.86-.96h2.06c2.29,0,4.48,.31,6.5,.86,.35,.1,.57,.34,.57,.61v12.47Z"/>
          <path class="cls-20" d="M128.82,253.27h10.42c.99,0,1.96,.11,2.9,.31v8.66c-2.48,.2-5.29,.32-8.26,.32s-5.8-.12-8.29-.32v-8.59c1.04-.25,2.13-.38,3.23-.38Z"/>
          <path class="cls-20" d="M121.43,275.33h25.19c1.2,0,2.33-.38,3.3-1.04,2.51-1.71,3.56-5.32,2.66-8.54h0c-1.88-6.7-7.27-11.24-13.34-11.24h-10.42c-6.07,0-11.45,4.53-13.34,11.24h0c-.9,3.22,.14,6.83,2.66,8.54,.97,.66,2.09,1.04,3.3,1.04Z"/>
          <path class="cls-1" d="M121.43,272.43h25.19c1.2,0,2.33-.33,3.3-.89,2.51-1.48,3.56-4.58,2.66-7.35h0c-1.88-5.77-7.27-9.67-13.34-9.67h-10.42c-6.07,0-11.45,3.9-13.34,9.67h0c-.9,2.77,.14,5.88,2.66,7.35,.97,.57,2.09,.89,3.3,.89Z"/>
          <path class="cls-13" d="M128.82,254.51h10.42c.99,0,1.96,.11,2.9,.31v.75c0,3.75-3.04,6.8-6.8,6.8h-2.96c-3.75,0-6.8-3.04-6.8-6.8v-.69c1.04-.25,2.13-.38,3.23-.38Z"/>
          <line class="cls-2" x1="142.13" y1="254.82" x2="126.33" y2="258.68"/>
          <line class="cls-2" x1="125.51" y1="254.82" x2="141.31" y2="258.68"/>
          <path class="cls-19" d="M133.88,206.42h0c-6.6,0-12.39,3.49-15.61,8.73,.86-7.86,7.52-13.98,15.61-13.98,8.13,0,14.82,5.68,15.63,14-3.22-5.25-9.02-8.75-15.63-8.75Z"/>
          <g>
            <path class="cls-17" d="M101.09,226.47c-4.04-1.59-8.6,.39-10.19,4.43-.06,.14-.1,.28-.15,.43l2.1,5.26c2.02,.64,3.77,2.07,4.74,4.13,2.34-.36,4.69,.58,6.14,2.46,.87,1.13,2.12,1.9,3.48,2.17l1.1-16.03-7.21-2.84Z"/>
            <path class="cls-4" d="M111.83,184.51l-13.26,38.8c1.75-.65,3.74-.69,5.61,.05l9.74,3.84c1.88,.74,3.3,2.12,4.14,3.8l16.21-36.43-22.44-10.06Z"/>
            <path class="cls-4" d="M100.61,237.62h0c2.37-.39,4.76,.55,6.22,2.45h0c1.25,1.63,3.27,2.51,5.3,2.22,2.72-.38,5.15-2.17,6.23-4.9h0c1.59-4.04-.39-8.6-4.43-10.19l-9.74-3.84c-4.04-1.59-8.6,.39-10.19,4.43h0c-1.08,2.73-.52,5.71,1.21,7.84,1.29,1.59,3.37,2.33,5.39,1.99Z"/>
            <path class="cls-19" d="M114.43,224.77l-9.74-3.84c-1.74-.69-3.58-.7-5.23-.18l-.88,2.57c1.75-.65,3.74-.69,5.61,.05l9.74,3.84c1.88,.74,3.3,2.12,4.14,3.8l.79-1.77c-.77-1.97-2.31-3.62-4.43-4.46Z"/>
          </g>
          <path class="cls-17" d="M93.83,252.41h0c-2.39-.27-4.73,.79-6.09,2.77h0c-1.16,1.69-3.14,2.67-5.18,2.49-2.73-.24-5.26-1.9-6.47-4.58h0c-1.79-3.95-.05-8.61,3.9-10.4l9.53-4.33c3.95-1.79,8.61-.05,10.4,3.9h0c1.22,2.67,.81,5.67-.81,7.89-1.21,1.66-3.25,2.5-5.28,2.26Z"/>
          <path class="cls-4" d="M77.63,197.67l15.22,38.08c-1.78-.56-3.77-.5-5.6,.33l-9.53,4.33c-1.84,.83-3.19,2.29-3.94,4l-27.3-48.66,31.16,1.92Z"/>
          <path class="cls-4" d="M91.55,250.13h0c-2.39-.27-4.73,.79-6.09,2.77h0c-1.16,1.69-3.14,2.67-5.18,2.49-2.73-.24-5.26-1.9-6.47-4.58h0c-1.79-3.95-.05-8.61,3.9-10.4l9.53-4.33c3.95-1.79,8.61-.05,10.4,3.9h0c1.22,2.67,.81,5.67-.81,7.89-1.21,1.66-3.25,2.5-5.28,2.26Z"/>
          <path class="cls-19" d="M86.63,233.68l-9.53,4.33c-2.07,.94-3.53,2.67-4.2,4.68l.88,1.73c.75-1.71,2.1-3.17,3.94-4l9.53-4.33c1.84-.83,3.82-.89,5.6-.33l-1.01-2.52c-1.68-.44-3.51-.32-5.22,.45Z"/>
          <path class="cls-6" d="M133.97,200.54c-8.68,0-15.71,7.03-15.71,15.71l.47,10.24,1.04,15.14c2.85,.54,5.79,.82,8.79,.82,7.09,0,13.82-1.57,19.85-4.37l.79-11.59,.47-10.24c0-9.25-7.03-15.71-15.71-15.71Z"/>
          <circle class="cls-19" cx="127.37" cy="166.49" r="47.21"/>
          <path class="cls-8" d="M88.02,223.46l-10.8-27.03-31.16-1.92,16.11,28.72c4.23,1.24,8.7,1.91,13.33,1.91,4.34,0,8.53-.59,12.52-1.68Z"/>
          <path class="cls-19" d="M257.58,157.72c0,31.92-25.87,57.79-57.79,57.79s-57.79-25.87-57.79-57.79,41.43-57.96,61.71-45.54c27.22,16.66,53.87,13.63,53.87,45.54Z"/>
          <circle class="cls-19" cx="68.01" cy="159.41" r="52.54"/>
          <path class="cls-19" d="M201.12,105.21c33.17,16.02-29.86,66.69-66.69,66.69s-66.69-29.86-66.69-66.69,30.4-72.99,66.69-66.69c45.28,7.86,25.42,46.76,66.69,66.69Z"/>
          <path class="cls-7" d="M180.68,102.75h0c.12-2.4-1.09-4.67-3.15-5.9h0c-1.76-1.05-2.86-2.96-2.82-5.01,.06-2.74,1.56-5.37,4.15-6.75h0c3.83-2.04,8.58-.6,10.63,3.23l4.93,9.24c2.04,3.83,.6,8.58-3.23,10.63h0c-2.59,1.38-5.61,1.17-7.92-.3-1.73-1.1-2.7-3.08-2.6-5.13Z"/>
          <path class="cls-7" d="M218.63,127.12h0c2.36-.46,4.78,.42,6.29,2.28h0c1.29,1.59,3.34,2.41,5.36,2.08,2.7-.45,5.09-2.31,6.09-5.07h0c1.48-4.08-.63-8.58-4.71-10.06l-9.85-3.57c-4.08-1.48-8.58,.63-10.06,4.71h0c-1,2.76-.36,5.72,1.43,7.8,1.34,1.56,3.43,2.23,5.44,1.84Z"/>
          <path class="cls-17" d="M178.92,85.46c-1.53-.18-3.14,.09-4.6,.87h0c-2.59,1.38-4.09,4.01-4.15,6.75-.05,2.05,1.06,3.95,2.82,5.01,2.06,1.23,3.27,3.5,3.15,5.9-.1,2.05,.87,4.03,2.6,5.13,2.31,1.47,5.33,1.69,7.92,.3h0c.88-.47,1.63-1.09,2.24-1.8-1.96-8.06-5.38-15.55-9.97-22.17Z"/>
          <path class="cls-17" d="M211.54,119.51c-.23,.4-.44,.83-.61,1.28-1,2.76-.36,5.72,1.43,7.8,1.34,1.56,3.43,2.23,5.44,1.84h0c2.36-.46,4.78,.42,6.29,2.28h0c1.29,1.59,3.34,2.41,5.36,2.08,2.33-.39,4.43-1.83,5.6-3.99-6.76-5.42-14.77-9.34-23.52-11.29Z"/>
        </g>
      </g>
    </g>
  </g>
</svg>