<?xml version="1.0" encoding="UTF-8"?>
<svg id="_레이어_2" data-name="레이어 2" xmlns="http://www.w3.org/2000/svg" viewBox="0 0 640 400">
  <defs>
    <style>
      .cls-1, .cls-2, .cls-3 {
        opacity: .7;
      }

      .cls-4 {
        fill: #c5d0d8;
      }

      .cls-5 {
        fill: #fff;
      }

      .cls-6, .cls-7, .cls-3 {
        fill: #71d0ea;
      }

      .cls-8 {
        opacity: .8;
      }

      .cls-8, .cls-2 {
        fill: #99e5ff;
      }

      .cls-9 {
        fill: #5590e5;
      }

      .cls-7 {
        opacity: .35;
      }

      .cls-10 {
        fill: #275ead;
      }

      .cls-11 {
        fill: #fcd23d;
      }

      .cls-12 {
        fill: #396bc4;
      }

      .cls-13 {
        fill: #fcbb3d;
      }

      .cls-14 {
        fill: none;
      }

      .cls-15 {
        fill: #dfe9f4;
      }

      .cls-16 {
        fill: #959999;
      }
    </style>
  </defs>
  <g id="_레이어_1-2" data-name="레이어 1">
    <g>
      <path class="cls-16" d="M51.69,280.36H217.84v.1c0,4.73-3.84,8.57-8.57,8.57H60.26c-4.73,0-8.57-3.84-8.57-8.57v-.1h0Z"/>
      <g>
        <path class="cls-13" d="M238,230.98c0,7.8-13.79,10.67-24.7,16.67-7.12,3.92-12.53,16.53-23.01,19.2-8.51,2.17-19.74-5.96-29.85-4.84-9.03,1-18.05,11.5-27.94,11.5s-18.91-10.5-27.94-11.5c-10.11-1.11-21.35,7.01-29.86,4.84-10.48-2.67-15.89-15.28-23.01-19.2-10.91-6-24.7-8.87-24.7-16.67"/>
        <path class="cls-12" d="M164.38,218.18H95.67c-5.45,0-10.12,3.82-11.13,9.09l-9.49,49.78,40.66,12.06c9.4,2.79,19.22,2.79,28.62,0l40.66-12.06-9.49-49.78c-1-5.27-5.68-9.09-11.13-9.09Z"/>
        <path class="cls-10" d="M164.38,218.18H95.67c-5.45,0-10.12,3.82-11.13,9.09l-3.67,19.27c4.59,1.95,10.2,2.79,15.98,2.03l9.57-1.26c8.17-1.08,16.45,2.87,24.73,2.87s16.56-3.95,24.73-2.87l9.57,1.26c4.93,.65,9.73,.13,13.89-1.24l-3.82-20.06c-1-5.27-5.68-9.09-11.13-9.09Z"/>
        <polygon class="cls-11" points="125.16 349.05 77.3 349.05 75.06 296.7 127.41 296.7 125.16 349.05"/>
        <ellipse class="cls-13" cx="101.23" cy="296.7" rx="26.18" ry="5.98"/>
        <path class="cls-13" d="M77.3,349.05h47.86l.5-11.64c-4.63-7.38-12.83-12.29-22.19-12.29h-3.74c-9.84,0-18.42,5.44-22.88,13.47l.45,10.46Z"/>
        <polygon class="cls-11" points="182.75 349.05 134.89 349.05 132.64 296.7 184.99 296.7 182.75 349.05"/>
        <ellipse class="cls-13" cx="158.82" cy="296.7" rx="26.18" ry="5.98"/>
        <path class="cls-11" d="M100.48,329.61h2.24c14.45,0,26.18,11.73,26.18,26.18h0c0,8.26-6.7,14.96-14.96,14.96h-24.68c-8.26,0-14.96-6.7-14.96-14.96h0c0-14.45,11.73-26.18,26.18-26.18Z"/>
        <path class="cls-13" d="M134.89,349.05h47.86l.5-11.64c-4.63-7.38-12.83-12.29-22.19-12.29h-3.74c-9.84,0-18.42,5.44-22.88,13.47l.45,10.46Z"/>
        <path class="cls-9" d="M127.41,277.26c0-14.46-11.72-26.18-26.18-26.18h0c-14.46,0-26.18,11.72-26.18,26.18v4.61c0,.07,0,.14,.01,.21,.22-14.26,11.85-25.76,26.17-25.76h0c14.32,0,25.94,11.5,26.17,25.76,0-.07,.01-.14,.01-.21v-4.61Z"/>
        <path class="cls-9" d="M184.99,277.26c0-14.46-11.72-26.18-26.18-26.18h0c-14.46,0-26.18,11.72-26.18,26.18v4.61c0,.07,0,.14,.01,.21,.22-14.26,11.85-25.76,26.17-25.76h0c14.32,0,25.94,11.5,26.17,25.76,0-.07,.01-.14,.01-.21v-4.61Z"/>
        <path class="cls-15" d="M165.44,246.32l-9.57-1.26c-8.17-1.08-16.45,2.87-24.73,2.87-8.28,0-16.56-3.95-24.73-2.87l-9.57,1.26c-14.05,1.85-27.03-5.72-27.03-15.76v-45.29h122.65v45.29c0,10.04-12.98,17.61-27.03,15.76Z"/>
        <path class="cls-12" d="M101.23,251.83h0c14.45,0,26.18,11.73,26.18,26.18v4.61c0,3.65-2.96,6.6-6.6,6.6h-39.14c-3.65,0-6.6-2.96-6.6-6.6v-4.61c0-14.45,11.73-26.18,26.18-26.18Z"/>
        <path class="cls-2" d="M101.23,256.32c-12.39,0-22.44,10.05-22.44,22.44l.67,14.62,.31,6.75c4.73,1.54,12.57,2.56,21.45,2.56s16.72-1.01,21.45-2.56l.31-6.75,.67-14.62c0-12.39-10.05-22.44-22.44-22.44Z"/>
        <path class="cls-12" d="M158.82,251.83h0c14.45,0,26.18,11.73,26.18,26.18v4.61c0,3.65-2.96,6.6-6.6,6.6h-39.14c-3.65,0-6.6-2.96-6.6-6.6v-4.61c0-14.45,11.73-26.18,26.18-26.18Z"/>
        <path class="cls-2" d="M158.82,256.32c-12.39,0-22.44,10.05-22.44,22.44l.67,14.62,.31,6.75c4.73,1.54,12.57,2.56,21.45,2.56s16.72-1.01,21.45-2.56l.31-6.75,.67-14.62c0-12.39-10.05-22.44-22.44-22.44Z"/>
        <path class="cls-7" d="M79.68,297.85l.11,2.28c4.73,1.54,12.57,2.56,21.45,2.56s16.72-1.01,21.45-2.56l.11-2.28c-4.72,1.56-12.61,2.59-21.55,2.59s-16.83-1.03-21.55-2.59Z"/>
        <path class="cls-7" d="M137.26,297.85l.11,2.28c4.73,1.54,12.57,2.56,21.45,2.56s16.72-1.01,21.45-2.56l.11-2.28c-4.72,1.56-12.61,2.59-21.55,2.59s-16.83-1.03-21.55-2.59Z"/>
        <path class="cls-3" d="M101.23,261.55h0c9.05,0,17.02,4.59,21.72,11.57-2.5-9.66-11.28-16.8-21.72-16.8s-19.22,7.14-21.72,16.8c4.7-6.98,12.68-11.57,21.72-11.57Z"/>
        <path class="cls-3" d="M158.82,261.55h0c9.05,0,17.02,4.59,21.72,11.57-2.5-9.66-11.28-16.8-21.72-16.8s-19.22,7.14-21.72,16.8c4.7-6.98,12.68-11.57,21.72-11.57Z"/>
        <path class="cls-4" d="M192.47,185.27H69.82v45.29c0,1.41,.26,2.76,.74,4.06,1.73-.1,3.57-.15,5.56-.15,28.14,0,28.14,10.64,56.28,10.64s28.14-10.64,56.28-10.64c1.07,0,2.1,.02,3.09,.05,.45-1.26,.7-2.58,.7-3.95v-45.29Z"/>
        <path class="cls-2" d="M185.74,94.4c0,33.66-22.8,63.2-56.46,63.2s-60.95-27.29-60.95-60.95S112.54,44.65,113.95,11.02c1.36-32.64,68.94,27.67,71.8,73.07,.25,3.92,0,7.26,0,10.32Z"/>
        <path class="cls-11" d="M158.07,329.61h2.24c14.45,0,26.18,11.73,26.18,26.18h0c0,8.26-6.7,14.96-14.96,14.96h-24.68c-8.26,0-14.96-6.7-14.96-14.96h0c0-14.45,11.73-26.18,26.18-26.18Z"/>
        <path class="cls-8" d="M105.8,263.91h0c-2.94-1.76-6.61-1.76-9.56,0h0c-2.51,1.51-5.66,1.62-8.21,.18-3.41-1.92-5.71-5.58-5.71-9.78h0c0-6.2,5.02-11.22,11.22-11.22h14.96c6.2,0,11.22,5.02,11.22,11.22h0c0,4.2-2.3,7.85-5.71,9.78-2.55,1.44-5.69,1.33-8.21-.18Z"/>
        <g class="cls-1">
          <path class="cls-6" d="M108.5,243.09c2.88,0,5.5,1.09,7.48,2.88l1.02-20.47c.46-9.14-6.83-16.81-15.99-16.81h0c-9.15,0-16.44,7.66-15.99,16.81l1.02,20.47c1.99-1.78,4.6-2.88,7.48-2.88h14.96Z"/>
        </g>
        <path class="cls-8" d="M164.2,263.91h0c-2.94-1.76-6.61-1.76-9.56,0h0c-2.51,1.51-5.66,1.62-8.21,.18-3.41-1.92-5.71-5.58-5.71-9.78h0c0-6.2,5.02-11.22,11.22-11.22h14.96c6.2,0,11.22,5.02,11.22,11.22h0c0,4.2-2.3,7.85-5.71,9.78-2.55,1.44-5.69,1.33-8.21-.18Z"/>
        <g class="cls-1">
          <path class="cls-6" d="M166.9,243.09c2.88,0,5.5,1.09,7.48,2.88l1.02-20.47c.46-9.14-6.83-16.81-15.99-16.81h0c-9.15,0-16.44,7.66-15.99,16.81l1.02,20.47c1.99-1.78,4.6-2.88,7.48-2.88h14.96Z"/>
        </g>
        <path class="cls-11" d="M237.38,221.01c-.05-.07-.1-.14-.15-.21l-40.27-55.84h0c-7.78-10.79-17.65-18.91-28.58-24.38-9.79,10.46-23.24,17.02-39.11,17.02-14.67,0-28.13-5.18-38.64-13.82-8.62,5.27-16.41,12.33-22.79,21.18h0s-40.27,55.84-40.27,55.84c-.05,.07-.1,.14-.15,.21-7.06,10.02,4.6,22.26,16.94,17.86,8.47-3.02,15.31-6.65,31.76-6.65,28.14,0,28.14,10.64,56.28,10.64s28.14-10.64,56.28-10.64c16.45,0,23.29,3.63,31.75,6.65,12.34,4.4,24-7.84,16.94-17.86Z"/>
      </g>
      <g>
        <circle cx="108.58" cy="107.4" r="7.91"/>
        <circle cx="146.02" cy="107.4" r="7.91"/>
        <circle cx="127.99" cy="133.16" r="2.97"/>
        <circle class="cls-5" cx="107.09" cy="104.93" r="3.46"/>
        <circle class="cls-5" cx="144.53" cy="104.93" r="3.46"/>
      </g>
      <g>
        <rect class="cls-14" width="640" height="400"/>
        <path class="cls-16" d="M514.75,280.36h-109.8v3.64c0,2.78,2.25,5.03,5.03,5.03h192.21c2.78,0,5.03-2.25,5.03-5.03v-3.64h-92.47Z"/>
        <g>
          <path class="cls-13" d="M538.66,244.19c0,5.29-11.81,5.78-19.45,9.84-4.93,2.62-7.63,14.15-14.85,15.93-5.86,1.45-14.09-7.25-21.04-6.51-6.21,.66-12.25,10.99-19.05,10.99s-12.84-10.33-19.05-10.99c-6.95-.74-15.18,7.96-21.04,6.51-7.22-1.78-9.93-13.31-14.85-15.93-7.64-4.06-19.45-4.55-19.45-9.84"/>
          <path class="cls-12" d="M485.86,235.57h-46.23c-3.67,0-6.81,2.57-7.49,6.11l-6.38,33.49,27.36,8.11c6.33,1.88,12.93,1.88,19.26,0l27.36-8.11-6.38-33.49c-.68-3.54-3.82-6.11-7.49-6.11Z"/>
          <path class="cls-10" d="M485.86,235.57h-46.23c-3.67,0-6.81,2.57-7.49,6.11l-2.47,12.97c3.09,1.31,6.86,1.88,10.75,1.36l6.44-.85c5.5-.72,11.07,1.93,16.64,1.93s11.14-2.66,16.64-1.93l6.44,.85c3.32,.44,6.55,.09,9.35-.83l-2.57-13.5c-.68-3.54-3.82-6.11-7.49-6.11Z"/>
          <polygon class="cls-11" points="459.47 323.64 427.27 323.64 425.76 288.41 460.98 288.41 459.47 323.64"/>
          <ellipse class="cls-13" cx="443.37" cy="288.41" rx="17.61" ry="4.03"/>
          <path class="cls-13" d="M427.27,323.64h32.21l.34-7.83c-3.11-4.97-8.63-8.27-14.93-8.27h-2.52c-6.62,0-12.39,3.66-15.4,9.06l.3,7.04Z"/>
          <polygon class="cls-11" points="498.22 323.64 466.02 323.64 464.51 288.41 499.73 288.41 498.22 323.64"/>
          <ellipse class="cls-13" cx="482.12" cy="288.41" rx="17.61" ry="4.03"/>
          <path class="cls-11" d="M442.87,310.56h1.51c9.72,0,17.61,7.89,17.61,17.61h0c0,5.56-4.51,10.06-10.06,10.06h-16.61c-5.56,0-10.06-4.51-10.06-10.06h0c0-9.72,7.89-17.61,17.61-17.61Z"/>
          <path class="cls-13" d="M466.02,323.64h32.21l.34-7.83c-3.11-4.97-8.63-8.27-14.93-8.27h-2.52c-6.62,0-12.39,3.66-15.4,9.06l.3,7.04Z"/>
          <path class="cls-9" d="M460.98,275.33c0-9.73-7.89-17.61-17.61-17.61h0c-9.73,0-17.61,7.89-17.61,17.61v3.1s0,.09,0,.14c.15-9.6,7.97-17.33,17.61-17.33h0c9.63,0,17.46,7.74,17.61,17.33,0-.05,0-.09,0-.14v-3.1Z"/>
          <path class="cls-9" d="M499.73,275.33c0-9.73-7.89-17.61-17.61-17.61h0c-9.73,0-17.61,7.89-17.61,17.61v3.1s0,.09,0,.14c.15-9.6,7.97-17.33,17.61-17.33h0c9.63,0,17.46,7.74,17.61,17.33,0-.05,0-.09,0-.14v-3.1Z"/>
          <path class="cls-15" d="M486.58,254.51l-6.44-.85c-5.5-.72-11.07,1.93-16.64,1.93-5.57,0-11.14-2.66-16.64-1.93l-6.44,.85c-9.45,1.24-18.19-3.85-18.19-10.6v-30.48h82.53v30.48c0,6.75-8.74,11.85-18.19,10.6Z"/>
          <path class="cls-12" d="M443.37,258.22h0c9.72,0,17.61,7.89,17.61,17.61v3.1c0,2.45-1.99,4.44-4.44,4.44h-26.34c-2.45,0-4.44-1.99-4.44-4.44v-3.1c0-9.72,7.89-17.61,17.61-17.61Z"/>
          <path class="cls-2" d="M443.37,261.24c-8.34,0-15.1,6.76-15.1,15.1l.45,9.84,.21,4.54c3.18,1.04,8.46,1.72,14.43,1.72s11.25-.68,14.43-1.72l.21-4.54,.45-9.84c0-8.34-6.76-15.1-15.1-15.1Z"/>
          <path class="cls-12" d="M482.12,258.22h0c9.72,0,17.61,7.89,17.61,17.61v3.1c0,2.45-1.99,4.44-4.44,4.44h-26.34c-2.45,0-4.44-1.99-4.44-4.44v-3.1c0-9.72,7.89-17.61,17.61-17.61Z"/>
          <path class="cls-2" d="M482.12,261.24c-8.34,0-15.1,6.76-15.1,15.1l.45,9.84,.21,4.54c3.18,1.04,8.46,1.72,14.43,1.72s11.25-.68,14.43-1.72l.21-4.54,.45-9.84c0-8.34-6.76-15.1-15.1-15.1Z"/>
          <path class="cls-7" d="M428.87,289.19l.07,1.53c3.18,1.04,8.46,1.72,14.43,1.72s11.25-.68,14.43-1.72l.07-1.53c-3.18,1.05-8.49,1.74-14.5,1.74s-11.33-.69-14.5-1.74Z"/>
          <path class="cls-7" d="M467.62,289.19l.07,1.53c3.18,1.04,8.46,1.72,14.43,1.72s11.25-.68,14.43-1.72l.07-1.53c-3.18,1.05-8.49,1.74-14.5,1.74s-11.33-.69-14.5-1.74Z"/>
          <path class="cls-3" d="M443.37,264.76h0c6.09,0,11.45,3.09,14.62,7.78-1.68-6.5-7.59-11.31-14.62-11.31s-12.94,4.8-14.62,11.31c3.16-4.7,8.53-7.78,14.62-7.78Z"/>
          <path class="cls-3" d="M482.12,264.76h0c6.09,0,11.45,3.09,14.62,7.78-1.68-6.5-7.59-11.31-14.62-11.31s-12.94,4.8-14.62,11.31c3.16-4.7,8.53-7.78,14.62-7.78Z"/>
          <path class="cls-4" d="M504.77,213.43h-82.53v30.48c0,.95,.18,1.86,.5,2.73,1.16-.07,2.4-.1,3.74-.1,18.94,0,18.94,7.16,37.87,7.16s18.93-7.16,37.87-7.16c.72,0,1.41,.01,2.08,.03,.3-.85,.47-1.74,.47-2.66v-30.48Z"/>
          <path class="cls-2" d="M421.3,152.28c0,22.65,15.34,42.52,38,42.52s41.01-18.36,41.01-41.01-29.76-34.99-30.7-57.62c-.92-21.96-46.39,18.62-48.31,49.17-.17,2.64,0,4.89,0,6.94Z"/>
          <path class="cls-11" d="M481.62,310.56h1.51c9.72,0,17.61,7.89,17.61,17.61h0c0,5.56-4.51,10.06-10.06,10.06h-16.61c-5.56,0-10.06-4.51-10.06-10.06h0c0-9.72,7.89-17.61,17.61-17.61Z"/>
          <path class="cls-8" d="M446.44,266.34h0c-1.98-1.19-4.45-1.19-6.43,0h0c-1.69,1.01-3.81,1.09-5.52,.12-2.29-1.29-3.84-3.76-3.84-6.58h0c0-4.17,3.38-7.55,7.55-7.55h10.06c4.17,0,7.55,3.38,7.55,7.55h0c0,2.82-1.55,5.28-3.84,6.58-1.72,.97-3.83,.89-5.52-.12Z"/>
          <g class="cls-1">
            <path class="cls-6" d="M448.26,252.34c1.94,0,3.7,.74,5.04,1.94l.69-13.78c.31-6.15-4.6-11.31-10.76-11.31h0c-6.16,0-11.07,5.16-10.76,11.31l.69,13.78c1.34-1.2,3.1-1.94,5.04-1.94h10.06Z"/>
          </g>
          <path class="cls-8" d="M485.74,266.34h0c-1.98-1.19-4.45-1.19-6.43,0h0c-1.69,1.01-3.81,1.09-5.52,.12-2.29-1.29-3.84-3.76-3.84-6.58h0c0-4.17,3.38-7.55,7.55-7.55h10.06c4.17,0,7.55,3.38,7.55,7.55h0c0,2.82-1.55,5.28-3.84,6.58-1.72,.97-3.83,.89-5.52-.12Z"/>
          <g class="cls-1">
            <path class="cls-6" d="M487.56,252.34c1.94,0,3.7,.74,5.04,1.94l.69-13.78c.31-6.15-4.6-11.31-10.76-11.31h0c-6.16,0-11.07,5.16-10.76,11.31l.69,13.78c1.34-1.2,3.1-1.94,5.04-1.94h10.06Z"/>
          </g>
          <path class="cls-11" d="M534.98,237.48s-.07-.09-.1-.14l-27.1-37.58h0c-5.23-7.26-11.88-12.73-19.23-16.41-6.59,7.04-15.64,11.45-26.31,11.45-9.87,0-18.93-3.49-26-9.3-5.8,3.55-11.04,8.3-15.34,14.25h0s-27.1,37.58-27.1,37.58c-.03,.05-.07,.09-.1,.14-4.75,6.74,3.09,14.98,11.4,12.02,5.7-2.03,10.3-4.48,21.37-4.48,18.94,0,18.94,7.16,37.87,7.16s18.93-7.16,37.87-7.16c11.07,0,15.67,2.44,21.37,4.48,8.31,2.96,16.15-5.27,11.4-12.02Z"/>
          <g>
            <path class="cls-13" d="M626.66,242.07c0,6.06-10.48,7.79-13.85,11.75-3.09,3.63-2.21,14.4-8.17,16.4-4.46,1.5-11.85-7.16-17.93-6.51-4.86,.51-9.71,10.74-15.62,10.74-6.68,0-12.2-10.52-18.21-11.63-6.71-1.24-15.81,6.39-21.28,4.01-6.5-2.83-6.43-14.49-10.49-18.54-5.02-5.01-16.42-7.27-16.42-13.43"/>
            <path class="cls-12" d="M575.44,235.57h-46.23c-3.67,0-6.81,2.57-7.49,6.11l-6.38,33.49,27.36,8.11c6.33,1.88,12.93,1.88,19.26,0l27.36-8.11-6.38-33.49c-.68-3.54-3.82-6.11-7.49-6.11Z"/>
            <path class="cls-10" d="M575.44,235.57h-46.23c-3.67,0-6.81,2.57-7.49,6.11l-2.47,12.97c3.09,1.31,6.86,1.88,10.75,1.36l6.44-.85c5.5-.72,11.07,1.93,16.64,1.93s11.14-2.66,16.64-1.93l6.44,.85c3.32,.44,6.55,.09,9.35-.83l-2.57-13.5c-.68-3.54-3.82-6.11-7.49-6.11Z"/>
            <polygon class="cls-11" points="549.05 323.64 516.84 323.64 515.33 288.41 550.56 288.41 549.05 323.64"/>
            <ellipse class="cls-13" cx="532.95" cy="288.41" rx="17.61" ry="4.03"/>
            <path class="cls-13" d="M516.84,323.64h32.21l.34-7.83c-3.11-4.97-8.63-8.27-14.93-8.27h-2.52c-6.62,0-12.39,3.66-15.4,9.06l.3,7.04Z"/>
            <polygon class="cls-11" points="587.8 323.64 555.59 323.64 554.08 288.41 589.31 288.41 587.8 323.64"/>
            <ellipse class="cls-13" cx="571.7" cy="288.41" rx="17.61" ry="4.03"/>
            <path class="cls-11" d="M532.44,310.56h1.51c9.72,0,17.61,7.89,17.61,17.61h0c0,5.56-4.51,10.06-10.06,10.06h-16.61c-5.56,0-10.06-4.51-10.06-10.06h0c0-9.72,7.89-17.61,17.61-17.61Z"/>
            <path class="cls-13" d="M555.59,323.64h32.21l.34-7.83c-3.11-4.97-8.63-8.27-14.93-8.27h-2.52c-6.62,0-12.39,3.66-15.4,9.06l.3,7.04Z"/>
            <path class="cls-9" d="M550.56,275.33c0-9.73-7.89-17.61-17.61-17.61h0c-9.73,0-17.61,7.89-17.61,17.61v3.1s0,.09,0,.14c.15-9.6,7.97-17.33,17.61-17.33h0c9.63,0,17.46,7.74,17.61,17.33,0-.05,0-.09,0-.14v-3.1Z"/>
            <path class="cls-9" d="M589.31,275.33c0-9.73-7.89-17.61-17.61-17.61h0c-9.73,0-17.61,7.89-17.61,17.61v3.1s0,.09,0,.14c.15-9.6,7.97-17.33,17.61-17.33h0c9.63,0,17.46,7.74,17.61,17.33,0-.05,0-.09,0-.14v-3.1Z"/>
            <path class="cls-15" d="M576.15,254.51l-6.44-.85c-5.5-.72-11.07,1.93-16.64,1.93-5.57,0-11.14-2.66-16.64-1.93l-6.44,.85c-9.45,1.24-18.19-3.85-18.19-10.6v-30.48h82.53v30.48c0,6.75-8.74,11.85-18.19,10.6Z"/>
            <path class="cls-12" d="M532.95,258.22h0c9.72,0,17.61,7.89,17.61,17.61v3.1c0,2.45-1.99,4.44-4.44,4.44h-26.34c-2.45,0-4.44-1.99-4.44-4.44v-3.1c0-9.72,7.89-17.61,17.61-17.61Z"/>
            <path class="cls-2" d="M532.95,261.24c-8.34,0-15.1,6.76-15.1,15.1l.45,9.84,.21,4.54c3.18,1.04,8.46,1.72,14.43,1.72s11.25-.68,14.43-1.72l.21-4.54,.45-9.84c0-8.34-6.76-15.1-15.1-15.1Z"/>
            <path class="cls-12" d="M571.7,258.22h0c9.72,0,17.61,7.89,17.61,17.61v3.1c0,2.45-1.99,4.44-4.44,4.44h-26.34c-2.45,0-4.44-1.99-4.44-4.44v-3.1c0-9.72,7.89-17.61,17.61-17.61Z"/>
            <path class="cls-2" d="M571.7,261.24c-8.34,0-15.1,6.76-15.1,15.1l.45,9.84,.21,4.54c3.18,1.04,8.46,1.72,14.43,1.72s11.25-.68,14.43-1.72l.21-4.54,.45-9.84c0-8.34-6.76-15.1-15.1-15.1Z"/>
            <path class="cls-7" d="M518.44,289.19l.07,1.53c3.18,1.04,8.46,1.72,14.43,1.72s11.25-.68,14.43-1.72l.07-1.53c-3.18,1.05-8.49,1.74-14.5,1.74s-11.33-.69-14.5-1.74Z"/>
            <path class="cls-7" d="M557.19,289.19l.07,1.53c3.18,1.04,8.46,1.72,14.43,1.72s11.25-.68,14.43-1.72l.07-1.53c-3.18,1.05-8.49,1.74-14.5,1.74s-11.33-.69-14.5-1.74Z"/>
            <path class="cls-3" d="M532.95,264.76h0c6.09,0,11.45,3.09,14.62,7.78-1.68-6.5-7.59-11.31-14.62-11.31s-12.94,4.8-14.62,11.31c3.16-4.7,8.53-7.78,14.62-7.78Z"/>
            <path class="cls-3" d="M571.7,264.76h0c6.09,0,11.45,3.09,14.62,7.78-1.68-6.5-7.59-11.31-14.62-11.31s-12.94,4.8-14.62,11.31c3.16-4.7,8.53-7.78,14.62-7.78Z"/>
            <path class="cls-4" d="M594.34,213.43h-82.53v30.48c0,.95,.18,1.86,.5,2.73,1.16-.07,2.4-.1,3.74-.1,18.94,0,18.94,7.16,37.87,7.16s18.93-7.16,37.87-7.16c.72,0,1.41,.01,2.08,.03,.3-.85,.47-1.74,.47-2.66v-30.48Z"/>
            <path class="cls-2" d="M589.81,152.28c0,22.65-15.34,42.52-38,42.52s-41.01-18.36-41.01-41.01,29.76-34.99,30.7-57.62c.92-21.96,46.39,18.62,48.31,49.17,.17,2.64,0,4.89,0,6.94Z"/>
            <path class="cls-11" d="M571.19,310.56h1.51c9.72,0,17.61,7.89,17.61,17.61h0c0,5.56-4.51,10.06-10.06,10.06h-16.61c-5.56,0-10.06-4.51-10.06-10.06h0c0-9.72,7.89-17.61,17.61-17.61Z"/>
            <path class="cls-8" d="M536.02,266.34h0c-1.98-1.19-4.45-1.19-6.43,0h0c-1.69,1.01-3.81,1.09-5.52,.12-2.29-1.29-3.84-3.76-3.84-6.58h0c0-4.17,3.38-7.55,7.55-7.55h10.06c4.17,0,7.55,3.38,7.55,7.55h0c0,2.82-1.55,5.28-3.84,6.58-1.72,.97-3.83,.89-5.52-.12Z"/>
            <g class="cls-1">
              <path class="cls-6" d="M537.84,252.34c1.94,0,3.7,.74,5.04,1.94l.69-13.78c.31-6.15-4.6-11.31-10.76-11.31h0c-6.16,0-11.07,5.16-10.76,11.31l.69,13.78c1.34-1.2,3.1-1.94,5.04-1.94h10.06Z"/>
            </g>
            <path class="cls-8" d="M575.32,266.34h0c-1.98-1.19-4.45-1.19-6.43,0h0c-1.69,1.01-3.81,1.09-5.52,.12-2.29-1.29-3.84-3.76-3.84-6.58h0c0-4.17,3.38-7.55,7.55-7.55h10.06c4.17,0,7.55,3.38,7.55,7.55h0c0,2.82-1.55,5.28-3.84,6.58-1.72,.97-3.83,.89-5.52-.12Z"/>
            <g class="cls-1">
              <path class="cls-6" d="M577.13,252.34c1.94,0,3.7,.74,5.04,1.94l.69-13.78c.31-6.15-4.6-11.31-10.76-11.31h0c-6.16,0-11.07,5.16-10.76,11.31l.69,13.78c1.34-1.2,3.1-1.94,5.04-1.94h10.06Z"/>
            </g>
            <path class="cls-11" d="M508.25,239.9c18.94,0,26.74,12.27,45.68,12.27s18.93-7.16,37.87-7.16c11.07,0,15.67,2.44,21.37,4.48,8.31,2.96,16.15-5.27,11.4-12.02-.03-.05-.07-.09-.1-.14l-27.1-37.58h0c-5.23-7.26-11.88-12.73-19.23-16.41-6.59,7.04-15.64,11.45-26.31,11.45-9.87,0-18.93-3.49-26-9.3-5.8,3.55-26.24,50.78-17.57,54.39"/>
          </g>
          <g>
            <circle cx="529.22" cy="161.03" r="5.33"/>
            <circle cx="554.41" cy="161.03" r="5.33"/>
            <circle cx="542.28" cy="178.36" r="2"/>
            <circle class="cls-5" cx="528.22" cy="159.36" r="2.33"/>
            <circle class="cls-5" cx="553.42" cy="159.36" r="2.33"/>
          </g>
        </g>
      </g>
      <g>
        <circle cx="459.15" cy="161.03" r="5.33"/>
        <circle cx="484.34" cy="161.03" r="5.33"/>
        <circle cx="472.21" cy="178.36" r="2"/>
        <circle class="cls-5" cx="458.15" cy="159.36" r="2.33"/>
        <circle class="cls-5" cx="483.34" cy="159.36" r="2.33"/>
      </g>
    </g>
  </g>
</svg>