<?xml version="1.0" encoding="UTF-8"?>
<svg id="_레이어_2" data-name="레이어 2" xmlns="http://www.w3.org/2000/svg" viewBox="0 0 640 400">
  <defs>
    <style>
      .cls-1, .cls-2, .cls-3, .cls-4 {
        opacity: .7;
      }

      .cls-5 {
        fill: #c5d0d8;
      }

      .cls-6 {
        fill: #fff;
      }

      .cls-7, .cls-8, .cls-4 {
        fill: #71d0ea;
      }

      .cls-9 {
        opacity: .8;
      }

      .cls-9, .cls-2 {
        fill: #99e5ff;
      }

      .cls-10 {
        fill: #989a9b;
      }

      .cls-11 {
        fill: #5590e5;
      }

      .cls-8 {
        opacity: .35;
      }

      .cls-3 {
        stroke: #99e5ff;
        stroke-miterlimit: 10;
        stroke-width: 2px;
      }

      .cls-3, .cls-12 {
        fill: none;
      }

      .cls-13 {
        fill: #275ead;
      }

      .cls-14 {
        fill: #fcd23d;
      }

      .cls-15 {
        fill: #396bc4;
      }

      .cls-16 {
        fill: #fcbb3d;
      }

      .cls-17 {
        fill: #858889;
      }

      .cls-18 {
        fill: #dfe9f4;
      }

      .cls-19 {
        fill: #959999;
      }
    </style>
  </defs>
  <g id="_레이어_1-2" data-name="레이어 1">
    <g>
      <rect class="cls-12" width="640" height="400"/>
      <g>
        <path class="cls-19" d="M324.67,280.14h161c0,4.64-3.76,8.4-8.4,8.4h-144.2c-4.64,0-8.4-3.76-8.4-8.4h0Z"/>
        <g>
          <line class="cls-3" x1="321.8" y1="188.34" x2="321.8" y2="263.05"/>
          <line class="cls-3" x1="294.51" y1="129.14" x2="294.51" y2="203.86"/>
          <line class="cls-3" x1="278.41" y1="247.53" x2="278.41" y2="322.25"/>
          <line class="cls-3" x1="324.39" y1="307.88" x2="324.39" y2="382.59"/>
          <line class="cls-3" x1="523.81" y1="110.18" x2="523.81" y2="184.89"/>
          <line class="cls-3" x1="489.33" y1="170.52" x2="489.33" y2="245.24"/>
          <line class="cls-3" x1="521.51" y1="281.44" x2="521.51" y2="356.15"/>
          <g>
            <circle class="cls-17" cx="339.19" cy="123.62" r="53.54"/>
            <circle class="cls-17" cx="468.52" cy="122.35" r="67.95"/>
            <ellipse class="cls-18" cx="407.44" cy="160.75" rx="37.07" ry="22.41"/>
            <circle class="cls-17" cx="441.62" cy="68.23" r="47.9"/>
            <circle class="cls-17" cx="385.65" cy="71.59" r="67.95"/>
            <path class="cls-16" d="M511.57,229.43c0,7.64-13.8,10.32-24.84,16.19-7.12,3.78-12.61,16.32-23.04,18.9-8.47,2.09-19.59-6.11-29.64-5.03-8.98,.96-17.94,11.45-27.77,11.45s-18.79-10.49-27.76-11.44c-10.05-1.07-21.17,7.12-29.64,5.03-10.43-2.57-15.92-15.11-23.04-18.9-11.04-5.86-24.84-8.54-24.84-16.19"/>
            <path class="cls-15" d="M437.5,216.98h-66.82c-5.3,0-9.84,3.71-10.82,8.84l-9.23,48.41,39.54,11.72c9.14,2.71,18.69,2.71,27.84,0l39.54-11.72-9.23-48.41c-.98-5.12-5.52-8.84-10.82-8.84Z"/>
            <path class="cls-13" d="M437.5,216.98h-66.82c-5.3,0-9.84,3.71-10.82,8.84l-3.57,18.74c4.47,1.9,9.92,2.71,15.54,1.97l9.3-1.23c7.95-1.05,16,2.79,24.05,2.79s16.1-3.84,24.05-2.79l9.3,1.23c4.8,.63,9.47,.13,13.51-1.21l-3.72-19.51c-.98-5.12-5.52-8.84-10.82-8.84Z"/>
            <polygon class="cls-14" points="399.36 344.26 352.82 344.26 350.64 293.35 401.55 293.35 399.36 344.26"/>
            <ellipse class="cls-16" cx="376.09" cy="293.35" rx="25.45" ry="5.82"/>
            <path class="cls-16" d="M352.82,344.26h46.55l.49-11.32c-4.5-7.18-12.48-11.95-21.58-11.95h-3.64c-9.57,0-17.91,5.29-22.25,13.1l.44,10.17Z"/>
            <polygon class="cls-14" points="455.37 344.26 408.82 344.26 406.64 293.35 457.55 293.35 455.37 344.26"/>
            <ellipse class="cls-16" cx="432.09" cy="293.35" rx="25.45" ry="5.82"/>
            <path class="cls-14" d="M375.36,325.35h2.18c14.05,0,25.45,11.41,25.45,25.45h0c0,8.03-6.52,14.55-14.55,14.55h-24c-8.03,0-14.55-6.52-14.55-14.55h0c0-14.05,11.41-25.45,25.45-25.45Z"/>
            <path class="cls-16" d="M408.82,344.26h46.55l.49-11.32c-4.5-7.18-12.48-11.95-21.58-11.95h-3.64c-9.57,0-17.91,5.29-22.25,13.1l.44,10.17Z"/>
            <path class="cls-11" d="M401.55,274.44c0-14.06-11.4-25.45-25.45-25.45h0c-14.06,0-25.45,11.4-25.45,25.45v4.49c0,.07,0,.13,.01,.2,.22-13.87,11.52-25.05,25.44-25.05h0c13.92,0,25.23,11.18,25.44,25.05,0-.07,.01-.13,.01-.2v-4.49Z"/>
            <path class="cls-11" d="M457.55,274.44c0-14.06-11.4-25.45-25.45-25.45h0c-14.06,0-25.45,11.4-25.45,25.45v4.49c0,.07,0,.13,.01,.2,.22-13.87,11.52-25.05,25.44-25.05h0c13.92,0,25.23,11.18,25.44,25.05,0-.07,.01-.13,.01-.2v-4.49Z"/>
            <path class="cls-18" d="M438.53,244.35l-9.3-1.23c-7.95-1.05-16,2.79-24.05,2.79-8.05,0-16.1-3.84-24.05-2.79l-9.3,1.23c-13.66,1.8-26.29-5.56-26.29-15.32v-44.04h119.27v44.04c0,9.76-12.63,17.12-26.29,15.32Z"/>
            <path class="cls-15" d="M376.09,249.71h0c14.05,0,25.45,11.41,25.45,25.45v4.49c0,3.54-2.88,6.42-6.42,6.42h-38.06c-3.54,0-6.42-2.88-6.42-6.42v-4.49c0-14.05,11.41-25.45,25.45-25.45Z"/>
            <path class="cls-2" d="M376.09,254.07c-12.05,0-21.82,9.77-21.82,21.82l.66,14.22,.3,6.57c4.6,1.5,12.23,2.49,20.86,2.49s16.26-.98,20.86-2.49l.3-6.57,.66-14.22c0-12.05-9.77-21.82-21.82-21.82Z"/>
            <path class="cls-15" d="M432.09,249.71h0c14.05,0,25.45,11.41,25.45,25.45v4.49c0,3.54-2.88,6.42-6.42,6.42h-38.06c-3.54,0-6.42-2.88-6.42-6.42v-4.49c0-14.05,11.41-25.45,25.45-25.45Z"/>
            <path class="cls-2" d="M432.09,254.07c-12.05,0-21.82,9.77-21.82,21.82l.66,14.22,.3,6.57c4.6,1.5,12.23,2.49,20.86,2.49s16.26-.98,20.86-2.49l.3-6.57,.66-14.22c0-12.05-9.77-21.82-21.82-21.82Z"/>
            <path class="cls-8" d="M355.13,294.47l.1,2.21c4.6,1.5,12.23,2.49,20.86,2.49s16.26-.98,20.86-2.49l.1-2.21c-4.59,1.52-12.27,2.52-20.96,2.52s-16.37-1-20.96-2.52Z"/>
            <path class="cls-8" d="M411.13,294.47l.1,2.21c4.6,1.5,12.23,2.49,20.86,2.49s16.26-.98,20.86-2.49l.1-2.21c-4.59,1.52-12.27,2.52-20.96,2.52s-16.37-1-20.96-2.52Z"/>
            <path class="cls-4" d="M376.09,259.17h0c8.8,0,16.55,4.46,21.12,11.25-2.43-9.4-10.97-16.34-21.12-16.34s-18.69,6.94-21.12,16.34c4.57-6.79,12.33-11.25,21.12-11.25Z"/>
            <path class="cls-4" d="M432.09,259.17h0c8.8,0,16.55,4.46,21.12,11.25-2.43-9.4-10.97-16.34-21.12-16.34s-18.69,6.94-21.12,16.34c4.57-6.79,12.33-11.25,21.12-11.25Z"/>
            <path class="cls-5" d="M464.82,184.98h-119.27v44.04c0,1.37,.26,2.69,.72,3.94,1.68-.1,3.47-.15,5.41-.15,27.36,0,27.36,10.34,54.73,10.34s27.36-10.34,54.73-10.34c1.04,0,2.04,.02,3.01,.04,.44-1.22,.68-2.51,.68-3.84v-44.04Z"/>
            <path class="cls-14" d="M431.36,325.35h2.18c14.05,0,25.45,11.41,25.45,25.45h0c0,8.03-6.52,14.55-14.55,14.55h-24c-8.03,0-14.55-6.52-14.55-14.55h0c0-14.05,11.41-25.45,25.45-25.45Z"/>
            <path class="cls-9" d="M380.53,261.45h0c-2.86-1.72-6.43-1.72-9.29,0h0c-2.44,1.46-5.5,1.57-7.98,.17-3.32-1.87-5.56-5.43-5.56-9.51h0c0-6.03,4.88-10.91,10.91-10.91h14.55c6.03,0,10.91,4.88,10.91,10.91h0c0,4.08-2.24,7.64-5.56,9.51-2.48,1.4-5.54,1.29-7.98-.17Z"/>
            <g class="cls-1">
              <path class="cls-7" d="M383.16,241.21c2.8,0,5.35,1.06,7.28,2.8l1-19.91c.44-8.89-6.64-16.34-15.55-16.34h0c-8.9,0-15.99,7.45-15.55,16.34l1,19.91c1.93-1.73,4.48-2.8,7.28-2.8h14.55Z"/>
            </g>
            <path class="cls-9" d="M437.32,261.45h0c-2.86-1.72-6.43-1.72-9.29,0h0c-2.44,1.46-5.5,1.57-7.98,.17-3.32-1.87-5.56-5.43-5.56-9.51h0c0-6.03,4.88-10.91,10.91-10.91h14.55c6.03,0,10.91,4.88,10.91,10.91h0c0,4.08-2.24,7.64-5.56,9.51-2.48,1.4-5.54,1.29-7.98-.17Z"/>
            <g class="cls-1">
              <path class="cls-7" d="M439.95,241.21c2.8,0,5.35,1.06,7.28,2.8l1-19.91c.44-8.89-6.64-16.34-15.55-16.34h0c-8.9,0-15.99,7.45-15.55,16.34l1,19.91c1.93-1.73,4.48-2.8,7.28-2.8h14.55Z"/>
            </g>
            <ellipse class="cls-17" cx="433.87" cy="51.56" rx="21.26" ry="30.75" transform="translate(128.08 363.64) rotate(-52.36)"/>
            <path class="cls-17" d="M376.38,148.52c-.17,.71-.27,1.44-.27,2.18,0,8.73,12.48,15.8,27.87,15.8s27.87-7.08,27.87-15.8c0-3.36-1.86-6.48-5.01-9.04-5.65-2.1-12.29-3.32-19.41-3.32-13,0-24.44,4.05-31.05,10.18Z"/>
            <circle class="cls-10" cx="403.11" cy="113.06" r="47.9"/>
            <ellipse class="cls-17" cx="371.49" cy="88.89" rx="54.12" ry="21.26" transform="translate(41.19 280.73) rotate(-43.61)"/>
            <ellipse class="cls-17" cx="431.83" cy="88.89" rx="21.26" ry="54.12" transform="translate(97.72 376.55) rotate(-52.36)"/>
            <path class="cls-14" d="M508.49,222.62c-.05-.06-.1-.12-.15-.18l-39.16-46.94h0c-7.5-8.99-20.14-24.8-30.71-29.56-.18-.08-.39-.05-.55,.06-17.54,13.13-15.35,23.94-34.56,23.31-14.26-.47-19.2-10.86-30.12-18.91-8.39,4.43-23.42,17.66-29.62,25.09h0s-39.16,46.94-39.16,46.94c-.05,.06-.1,.12-.15,.18-6.86,8.42,4.47,18.71,16.48,15.01,8.23-2.54,14.89-5.59,30.88-5.59,27.36,0,27.36,8.94,54.73,8.94s27.36-8.94,54.73-8.94c16,0,22.65,3.05,30.88,5.59,12,3.7,23.34-6.59,16.48-15.01Z"/>
          </g>
          <g>
            <circle cx="389.39" cy="110.37" r="5.81"/>
            <circle cx="416.86" cy="110.37" r="5.81"/>
            <circle cx="403.63" cy="129.27" r="2.18"/>
            <circle class="cls-6" cx="388.3" cy="108.55" r="2.54"/>
            <circle class="cls-6" cx="415.77" cy="108.55" r="2.54"/>
          </g>
          <ellipse class="cls-2" cx="389.04" cy="115.64" rx="6.61" ry="3.16"/>
          <ellipse class="cls-2" cx="416.63" cy="115.64" rx="6.61" ry="3.16"/>
        </g>
      </g>
    </g>
  </g>
</svg>