<?xml version="1.0" encoding="UTF-8"?>
<svg id="_레이어_2" data-name="레이어 2" xmlns="http://www.w3.org/2000/svg" viewBox="0 0 640 400">
  <defs>
    <style>
      .cls-1 {
        fill: #fff;
      }

      .cls-2 {
        stroke: #57addd;
        stroke-width: 3px;
      }

      .cls-2, .cls-3, .cls-4 {
        fill: none;
      }

      .cls-2, .cls-4 {
        stroke-linecap: round;
        stroke-linejoin: round;
      }

      .cls-5 {
        fill: #71d0ea;
      }

      .cls-6 {
        fill: #e0e2e2;
      }

      .cls-7 {
        fill: #99e5ff;
      }

      .cls-8 {
        fill: #5590e5;
      }

      .cls-9 {
        fill: #edefef;
      }

      .cls-10 {
        fill: #86dbf2;
      }

      .cls-11 {
        fill: #275ead;
      }

      .cls-12 {
        fill: #396bc4;
      }

      .cls-13 {
        fill: #eae8e8;
      }

      .cls-4 {
        stroke: #000;
        stroke-width: 2px;
      }

      .cls-14 {
        fill: #959999;
      }

      .cls-15 {
        fill: #42b0f4;
      }

      .cls-16 {
        fill: #adb6bc;
      }
    </style>
  </defs>
  <g id="_레이어_1-2" data-name="레이어 1">
    <g>
      <rect class="cls-3" width="640" height="400"/>
      <g>
        <path class="cls-14" d="M231.72,280.05h159.73c0,4.6-3.73,8.33-8.33,8.33H240.05c-4.6,0-8.33-3.73-8.33-8.33h0Z"/>
        <g>
          <g>
            <path class="cls-12" d="M336.16,227.89h-57.73c-4.58,0-8.51,3.21-9.35,7.63l-7.97,41.82,34.16,10.13c7.9,2.34,16.15,2.34,24.05,0l34.16-10.13-7.97-41.82c-.84-4.43-4.77-7.63-9.35-7.63Z"/>
            <path class="cls-8" d="M305.1,277.54c0-12.15-9.85-21.99-21.99-21.99h0c-12.15,0-21.99,9.85-21.99,21.99v3.88c0,.06,0,.12,0,.17,.19-11.99,9.95-21.65,21.98-21.65h0c12.03,0,21.8,11.15,21.98,23.14,0-.06,0-1.61,0-1.66v-3.88Z"/>
            <path class="cls-12" d="M283.1,256.17h0c12.14,0,21.99,9.86,21.99,21.99v3.88c0,3.06-2.49,5.55-5.55,5.55h-32.89c-3.06,0-5.55-2.49-5.55-5.55v-3.88c0-12.14,9.86-21.99,21.99-21.99Z"/>
            <path class="cls-5" d="M283.1,259.8c-10.41,0-18.85,7.76-18.85,18.85l.57,12.29,3.24,47.38c3.98,1.3,7.58,2.15,15.04,2.15s11.07-.85,15.04-2.15l3.24-47.38,.57-12.29c0-10.41-8.44-18.85-18.85-18.85Z"/>
            <path class="cls-15" d="M283.22,349.72c5.66,0,10.87-.29,15-.77l1.23-17.91c-4.11-.47-9.35,1.58-15.06,1.58h-2.73c-5.64,0-10.82-2.2-14.92-1.74l1.23,18.05c4.17,.5,9.47,.8,15.25,.8Z"/>
            <path class="cls-7" d="M283.22,352.84c8.23,0,15.49-.6,19.88-1.53l.08-15.65c-4.38-3.58-11.17,.07-18.8,.07h-2.73c-7.4,0-14.01-3.79-18.4-.4l.09,15.97c4.39,.92,11.65,1.53,19.88,1.53Z"/>
            <path class="cls-10" d="M263.29,340.73l.06,10.58c4.39,.92,11.65,1.53,19.88,1.53s15.49-.6,19.88-1.53l.05-9.73c-2.31-3.44-5.81-5.93-9.83-6.95-2.76,.48-5.77,1.11-8.93,1.11h-2.73c-3.1,0-6.07-.67-8.79-1.19-3.83,.89-7.22,3.09-9.58,6.19Z"/>
            <path class="cls-11" d="M336.16,227.89h-57.73c-4.58,0-8.51,3.21-9.35,7.63l-3.09,16.19c3.86,1.64,8.57,2.34,13.43,1.7l8.04-1.06c6.87-.9,13.82,2.41,20.78,2.41s13.91-3.32,20.78-2.41l8.04,1.06c4.15,.55,8.18,.11,11.67-1.04l-3.21-16.85c-.84-4.43-4.77-7.63-9.35-7.63Z"/>
            <path class="cls-8" d="M353.48,277.54c0-12.15-9.85-21.99-21.99-21.99h0c-12.15,0-21.99,9.85-21.99,21.99v3.88c0,.06,0,.12,0,.17,.19-11.99,9.95-21.65,21.98-21.65h0c12.03,0,21.8,9.66,21.98,21.65,0-.06,0-.12,0-.17v-3.88Z"/>
            <path class="cls-1" d="M337.05,251.54l-8.04-1.06c-6.87-.9-13.82,2.41-20.78,2.41-6.96,0-13.91-3.32-20.78-2.41l-8.04,1.06c-11.8,1.55-22.71-4.81-22.71-13.24v-38.05h103.06v38.05c0,8.43-10.91,14.79-22.71,13.24Z"/>
            <path class="cls-12" d="M331.49,256.17h0c12.14,0,21.99,9.86,21.99,21.99v3.88c0,3.06-2.49,5.55-5.55,5.55h-32.89c-3.06,0-5.55-2.49-5.55-5.55v-3.88c0-12.14,9.86-21.99,21.99-21.99Z"/>
            <path class="cls-1" d="M315.45,158.95h-14.43c-24.47,0-44.31,19.84-44.31,44.31v25c0,2.15,.22,4.23,.62,6.21,1.45-.15,3-.23,4.67-.23,23.64,0,23.64,16.28,47.29,16.28s23.64-16.28,47.29-16.28c.9,0,1.76,.02,2.6,.07,.38-1.93,.59-3.95,.59-6.04v-25c0-24.47-19.84-44.31-44.31-44.31Z"/>
            <ellipse class="cls-16" cx="270.13" cy="210.87" rx="19.38" ry="5.54" transform="translate(-32.51 50.11) rotate(-10)"/>
            <path class="cls-5" d="M284.11,200.16l6.3,48.81c-1.9-1.19-4.23-1.71-6.61-1.29l-12.38,2.18c-2.38,.42-4.39,1.71-5.77,3.47l-10.34-46.72,28.8-6.46Z"/>
            <path class="cls-15" d="M291.42,268.22c1.45-1.19,2.52-2.8,3.05-4.61-3.16-2.39-7.1-3.82-11.37-3.82-7.3,0-13.63,3.82-16.76,9.93,1.01,1.02,2.23,1.8,3.59,2.28,2.32,.82,4.91,.27,6.76-1.35h0c2.18-1.89,5.22-2.43,7.91-1.39,2.3,.88,4.92,.51,6.82-1.05Z"/>
            <path class="cls-15" d="M285.05,207.44l-.94-7.28-28.8,6.46,1.11,5.04c3.25-1.51,7.72-2.87,12.74-3.75,6.38-1.12,12.18-1.22,15.89-.46Z"/>
            <ellipse class="cls-16" cx="344.82" cy="210.87" rx="5.54" ry="19.38" transform="translate(77.27 513.84) rotate(-80)"/>
            <path class="cls-5" d="M330.83,200.16l-6.3,48.81c1.9-1.19,4.23-1.71,6.61-1.29l12.38,2.18c2.38,.42,4.39,1.71,5.77,3.47l10.34-46.72-28.8-6.46Z"/>
            <path class="cls-1" d="M251.04,214.24c-.53-3.01,7.58-6.96,18.12-8.82,10.54-1.86,19.51-.92,20.04,2.09,0,.05,0,.09,.01,.14l.13-.02-5.79-27.48-7.53-14.28c-14.31,1.04-21.55,8.97-25.2,16.65-3.1,6.52-3.94,13.89-2.69,21.01l2.86,10.86h.08c-.01-.06-.03-.1-.04-.15Z"/>
            <path class="cls-15" d="M329.8,207.44l.94-7.28,28.8,6.46-1.11,5.04c-3.25-1.51-7.72-2.87-12.74-3.75-6.38-1.12-12.18-1.22-15.89-.46Z"/>
            <path class="cls-1" d="M363.9,214.24c.53-3.01-7.58-6.96-18.12-8.82-10.54-1.86-19.51-.92-20.04,2.09,0,.05,0,.09-.01,.14l-.13-.02,5.79-27.48,7.53-14.28c14.31,1.04,21.55,8.97,25.2,16.65,3.1,6.52,3.94,13.89,2.69,21.01l-2.86,10.86h-.08c.01-.06,.03-.1,.04-.15Z"/>
            <path class="cls-6" d="M273.19,347.85c2.98,.25,6.34,.38,9.91,.38s6.96-.14,9.95-.39v-14.84c0-.31-.26-.6-.66-.72-2.54-.74-5.31-1.16-8.23-1.16h-2.48c-2.75,0-5.38,.37-7.8,1.03-.42,.11-.69,.41-.69,.73v14.96Z"/>
            <path class="cls-16" d="M289.17,334.11h-12.51c-1.19,0-2.35,.14-3.47,.37v10.39c2.98,.25,6.34,.38,9.91,.38s6.96-.14,9.95-.39v-10.3c-1.25-.3-2.55-.46-3.88-.46Z"/>
            <path class="cls-16" d="M298.03,360.58h-30.23c-1.44,0-2.8-.45-3.96-1.25-3.01-2.06-4.27-6.39-3.19-10.25h0c2.26-8.04,8.72-13.49,16-13.49h12.51c7.28,0,13.74,5.44,16,13.49h0c1.09,3.86-.17,8.19-3.19,10.25-1.16,.79-2.51,1.25-3.96,1.25Z"/>
            <path class="cls-1" d="M298.03,357.1h-30.23c-1.44,0-2.8-.39-3.96-1.07-3.01-1.77-4.27-5.5-3.19-8.82h0c2.26-6.92,8.72-11.61,16-11.61h12.51c7.28,0,13.74,4.68,16,11.61h0c1.09,3.32-.17,7.05-3.19,8.82-1.16,.68-2.51,1.07-3.96,1.07Z"/>
            <path class="cls-9" d="M289.17,335.6h-12.51c-1.19,0-2.35,.14-3.47,.37v.9c0,4.5,3.65,8.16,8.16,8.16h3.55c4.5,0,8.16-3.65,8.16-8.16v-.82c-1.25-.3-2.55-.46-3.88-.46Z"/>
            <line class="cls-2" x1="273.19" y1="335.97" x2="292.15" y2="340.6"/>
            <line class="cls-2" x1="293.14" y1="335.97" x2="274.18" y2="340.6"/>
            <path class="cls-15" d="M283.1,266.1h0c7.92,0,14.86,4.19,18.74,10.47-1.03-9.43-9.03-16.77-18.74-16.77s-17.78,6.81-18.75,16.8c3.87-6.3,10.82-10.5,18.75-10.5Z"/>
            <path class="cls-5" d="M331.9,259.8c10.41,0,18.85,7.76,18.85,18.85l-.57,12.29-3.24,47.38c-3.98,1.3-7.58,2.15-15.04,2.15-7.46,0-11.07-.85-15.04-2.15l-3.24-47.38-.57-12.29c0-10.41,8.44-18.85,18.85-18.85Z"/>
            <path class="cls-15" d="M331.77,349.72c-5.66,0-10.87-.29-15-.77l-1.23-17.91c4.11-.47,9.35,1.58,15.06,1.58h2.73c5.64,0,10.82-2.2,14.92-1.74l-1.23,18.05c-4.17,.5-9.47,.8-15.25,.8Z"/>
            <path class="cls-7" d="M331.77,352.84c-8.23,0-15.49-.6-19.88-1.53l-.08-15.65c4.38-3.58,11.17,.07,18.8,.07h2.73c7.4,0,14.01-3.79,18.4-.4l-.09,15.97c-4.39,.92-11.65,1.53-19.88,1.53Z"/>
            <path class="cls-10" d="M351.71,340.73l-.06,10.58c-4.39,.92-11.65,1.53-19.88,1.53-8.23,0-15.49-.6-19.88-1.53l-.05-9.73c2.31-3.44,5.81-5.93,9.83-6.95,2.76,.48,5.77,1.11,8.93,1.11h2.73c3.1,0,6.07-.67,8.79-1.19,3.83,.89,7.22,3.09,9.58,6.19Z"/>
            <path class="cls-15" d="M323.58,268.22c-1.45-1.19-2.52-2.8-3.05-4.61,3.16-2.39,7.1-3.82,11.37-3.82,7.3,0,13.63,3.82,16.76,9.93-1.01,1.02-2.23,1.8-3.59,2.28-2.32,.82-4.91,.27-6.76-1.35h0c-2.18-1.89-5.22-2.43-7.91-1.39-2.3,.88-4.92,.51-6.82-1.05Z"/>
            <path class="cls-6" d="M341.81,347.85c-2.98,.25-6.34,.38-9.91,.38-3.58,0-6.96-.14-9.95-.39v-14.84c0-.31,.26-.6,.66-.72,2.54-.74,5.31-1.16,8.23-1.16h2.48c2.75,0,5.38,.37,7.8,1.03,.42,.11,.69,.41,.69,.73v14.96Z"/>
            <path class="cls-16" d="M325.82,334.11h12.51c1.19,0,2.35,.14,3.47,.37v10.39c-2.98,.25-6.34,.38-9.91,.38-3.58,0-6.96-.14-9.95-.39v-10.3c1.25-.3,2.55-.46,3.88-.46Z"/>
            <path class="cls-16" d="M316.96,360.58h30.23c1.44,0,2.8-.45,3.96-1.25,3.01-2.06,4.27-6.39,3.19-10.25h0c-2.26-8.04-8.72-13.49-16-13.49h-12.51c-7.28,0-13.74,5.44-16,13.49h0c-1.09,3.86,.17,8.19,3.19,10.25,1.16,.79,2.51,1.25,3.96,1.25Z"/>
            <path class="cls-1" d="M316.96,357.1h30.23c1.44,0,2.8-.39,3.96-1.07,3.01-1.77,4.27-5.5,3.19-8.82h0c-2.26-6.92-8.72-11.61-16-11.61h-12.51c-7.28,0-13.74,4.68-16,11.61h0c-1.09,3.32,.17,7.05,3.19,8.82,1.16,.68,2.51,1.07,3.96,1.07Z"/>
            <path class="cls-9" d="M325.82,335.6h12.51c1.19,0,2.35,.14,3.47,.37v.9c0,4.5-3.65,8.16-8.16,8.16h-3.55c-4.5,0-8.16-3.65-8.16-8.16v-.82c1.25-.3,2.55-.46,3.88-.46Z"/>
            <line class="cls-2" x1="341.81" y1="335.97" x2="322.85" y2="340.6"/>
            <line class="cls-2" x1="321.85" y1="335.97" x2="340.81" y2="340.6"/>
            <path class="cls-15" d="M331.9,266.1h0c-7.92,0-14.86,4.19-18.74,10.47,1.03-9.43,9.03-16.77,18.74-16.77,9.76,0,17.78,6.81,18.75,16.8-3.87-6.3-10.82-10.5-18.75-10.5Z"/>
            <path class="cls-5" d="M284.6,265.3h0c-2.69-1.03-5.73-.49-7.91,1.39h0c-1.86,1.61-4.44,2.16-6.76,1.35-3.1-1.09-5.54-3.79-6.15-7.26h0c-.9-5.13,2.52-10.02,7.65-10.92l12.38-2.18c5.13-.9,10.02,2.52,10.92,7.65h0c.61,3.47-.76,6.83-3.3,8.92-1.9,1.56-4.52,1.93-6.82,1.05Z"/>
            <path class="cls-15" d="M283.8,244.7l-12.38,2.18c-2.69,.47-4.9,2.05-6.28,4.18l.5,2.27c1.38-1.77,3.39-3.05,5.77-3.47l12.38-2.18c2.38-.42,4.71,.1,6.61,1.29l-.42-3.23c-1.82-1.01-3.99-1.43-6.2-1.04Z"/>
            <path class="cls-5" d="M330.34,265.3h0c2.69-1.03,5.73-.49,7.91,1.39h0c1.86,1.61,4.44,2.16,6.76,1.35,3.1-1.09,5.54-3.79,6.15-7.26h0c.9-5.13-2.52-10.02-7.65-10.92l-12.38-2.18c-5.13-.9-10.02,2.52-10.92,7.65h0c-.61,3.47,.76,6.83,3.3,8.92,1.9,1.56,4.52,1.93,6.82,1.05Z"/>
            <path class="cls-15" d="M343.52,246.88l-12.38-2.18c-2.21-.39-4.37,.03-6.2,1.04l-.42,3.23c1.9-1.19,4.23-1.71,6.61-1.29l12.38,2.18c2.38,.42,4.39,1.71,5.77,3.47l.5-2.27c-1.37-2.13-3.59-3.71-6.28-4.18Z"/>
            <circle class="cls-5" cx="305.62" cy="121.8" r="52.15"/>
            <circle class="cls-15" cx="290.48" cy="66.64" r="66.09"/>
            <circle class="cls-15" cx="344.36" cy="58.22" r="46.59"/>
            <circle class="cls-15" cx="391.33" cy="109.86" r="66.09"/>
            <line class="cls-4" x1="286.97" y1="134.07" x2="301.73" y2="134.07"/>
            <line class="cls-4" x1="313.42" y1="134.07" x2="328.19" y2="134.07"/>
            <circle class="cls-15" cx="250.28" cy="121.31" r="52.07"/>
          </g>
          <path class="cls-13" d="M199.75,282.1c-.02-.22-.03-.45-.03-.68,0-5.51,5.75-9.97,12.84-9.97,4.96,0,9.26,2.18,11.4,5.37,1.87-.83,4.04-1.3,6.35-1.3,.82,0,1.62,.06,2.39,.17,2.32-2.57,6.16-4.25,10.51-4.25,7.09,0,12.84,4.46,12.84,9.97,0,.23-.01,.45-.03,.68h-56.27Z"/>
          <path class="cls-13" d="M364.53,282.13c-.03-.29-.04-.58-.04-.88,0-7.12,7.43-12.9,16.61-12.9,6.41,0,11.97,2.82,14.74,6.95,2.42-1.07,5.23-1.69,8.21-1.69,1.06,0,2.09,.08,3.1,.22,3-3.32,7.97-5.49,13.6-5.49,9.17,0,16.61,5.77,16.61,12.9,0,.3-.01,.59-.04,.88h-72.78Z"/>
          <circle class="cls-13" cx="433.15" cy="173.09" r="5.88"/>
          <circle class="cls-13" cx="404.57" cy="221.85" r="5.88"/>
          <circle class="cls-13" cx="444.92" cy="277.34" r="5.88"/>
          <circle class="cls-13" cx="392.8" cy="335.06" r="5.88"/>
          <circle class="cls-13" cx="225.22" cy="240.91" r="5.88"/>
          <circle class="cls-13" cx="191.59" cy="201.11" r="5.88"/>
          <circle class="cls-13" cx="221.86" cy="166.93" r="5.88"/>
          <circle class="cls-13" cx="163.03" cy="283.3" r="5.88"/>
          <circle class="cls-13" cx="481.12" cy="240.94" r="5.88"/>
          <circle class="cls-13" cx="215.12" cy="327.41" r="5.88"/>
          <circle cx="305.33" cy="156.12" r="2.53"/>
        </g>
      </g>
    </g>
  </g>
</svg>