<?xml version="1.0" encoding="UTF-8"?>
<svg id="_레이어_2" data-name="레이어 2" xmlns="http://www.w3.org/2000/svg" viewBox="0 0 640 400">
  <defs>
    <style>
      .cls-1 {
        fill: #fff;
      }

      .cls-2 {
        stroke: #57addd;
        stroke-linecap: round;
        stroke-linejoin: round;
        stroke-width: 3px;
      }

      .cls-2, .cls-3 {
        fill: none;
      }

      .cls-4 {
        fill: #e87813;
      }

      .cls-5 {
        fill: #e0e2e2;
      }

      .cls-6 {
        fill: #99e5ff;
      }

      .cls-7 {
        fill: #e56915;
      }

      .cls-8 {
        fill: #5590e5;
      }

      .cls-9 {
        fill: #edefef;
      }

      .cls-10 {
        fill: #86dbf2;
      }

      .cls-11 {
        fill: #275ead;
      }

      .cls-12 {
        fill: #396bc4;
      }

      .cls-13 {
        fill: #959999;
      }

      .cls-14 {
        fill: #adb6bc;
      }
    </style>
  </defs>
  <g id="_레이어_1-2" data-name="레이어 1">
    <g>
      <rect class="cls-3" width="640" height="400"/>
      <g>
        <path class="cls-13" d="M294.95,279.92h123.79v.81c0,4.16-3.38,7.54-7.54,7.54h-108.71c-4.16,0-7.54-3.38-7.54-7.54v-.81h0Z"/>
        <g>
          <path class="cls-12" d="M390.73,219.85h-68.54c-5.43,0-10.1,3.81-11.1,9.06l-9.46,49.65,40.55,12.03c9.38,2.78,19.17,2.78,28.55,0l40.55-12.03-9.46-49.65c-1-5.25-5.67-9.06-11.1-9.06Z"/>
          <path class="cls-8" d="M353.85,278.79c0-14.42-11.69-26.11-26.11-26.11h0c-14.42,0-26.11,11.69-26.11,26.11v4.6c0,.07,0,.14,.01,.21,.22-14.23,11.82-25.7,26.1-25.7h0c14.28,0,25.88,13.24,26.1,27.46,0-.07,.01-1.91,.01-1.98v-4.6Z"/>
          <path class="cls-12" d="M327.74,253.42h0c14.41,0,26.11,11.7,26.11,26.11v4.6c0,3.64-2.95,6.59-6.59,6.59h-39.04c-3.64,0-6.59-2.95-6.59-6.59v-4.6c0-14.41,11.7-26.11,26.11-26.11Z"/>
          <path class="cls-4" d="M327.74,257.73c-12.36,0-22.38,9.21-22.38,22.38l.67,14.59,3.85,56.25c4.72,1.54,9,2.55,17.86,2.55s13.14-1.01,17.86-2.55l3.85-56.25,.67-14.59c0-12.36-10.02-22.38-22.38-22.38Z"/>
          <path class="cls-7" d="M327.89,350.49c6.72,0,12.91-.34,17.81-.91l1.45-21.27c-4.88-.56-11.1,1.87-17.88,1.87h-3.24c-6.7,0-12.85-2.62-17.71-2.07l1.47,21.43c4.95,.59,11.24,.95,18.1,.95Z"/>
          <path class="cls-6" d="M327.89,354.19c9.77,0,18.39-.72,23.6-1.81l.1-18.58c-5.2-4.25-13.26,.09-22.32,.09h-3.24c-8.78,0-16.63-4.5-21.84-.47l.1,18.96c5.21,1.1,13.83,1.81,23.6,1.81Z"/>
          <path class="cls-10" d="M304.22,339.82l.07,12.56c5.21,1.1,13.83,1.81,23.6,1.81s18.39-.72,23.6-1.81l.06-11.55c-2.74-4.09-6.89-7.04-11.67-8.25-3.28,.57-6.85,1.31-10.6,1.31h-3.24c-3.68,0-7.2-.79-10.43-1.41-4.55,1.05-8.57,3.67-11.38,7.35Z"/>
          <path class="cls-7" d="M436.99,133.91c4.78-12.83,14.25-21.25,31.01-21.25-16.75,0-26.22-8.42-31.01-21.25-2.26-13.49,1.74-25.5,16.24-33.87-14.5,8.37-26.91,5.83-37.46-2.88-8.71-10.56-11.26-22.96-2.88-37.46-8.37,14.5-20.38,18.5-33.87,16.24-12.83-4.78-21.25-14.25-21.25-31.01,0,16.75-8.42,26.22-21.25,31.01-13.49,2.26-25.5-1.74-33.87-16.24,8.37,14.5,5.83,26.91-2.88,37.46-10.56,8.71-22.96,11.26-37.46,2.88,14.5,8.37,18.5,20.38,16.24,33.87-4.78,12.83-14.25,21.25-31.01,21.25,16.75,0,26.22,8.42,31.01,21.25,2.26,13.49-1.74,25.5-16.24,33.87,14.5-8.37,26.91-5.83,37.46,2.88,8.71,10.56,11.26,22.96,2.88,37.46,8.37-14.5,20.38-18.5,33.87-16.24,12.83,4.78,21.25,14.25,21.25,31.01,0-16.75,8.42-26.22,21.25-31.01,13.49-2.26,25.5,1.74,33.87,16.24-8.37-14.5-5.83-26.91,2.88-37.46,10.56-8.71,22.96-11.26,37.46-2.88-14.5-8.37-18.5-20.38-16.24-33.87Z"/>
          <path class="cls-11" d="M390.73,219.85h-68.54c-5.43,0-10.1,3.81-11.1,9.06l-3.66,19.22c4.58,1.94,10.17,2.78,15.94,2.02l9.54-1.26c8.15-1.07,16.41,2.87,24.66,2.87s16.51-3.94,24.66-2.87l9.54,1.26c4.92,.65,9.71,.13,13.85-1.24l-3.81-20.01c-1-5.25-5.67-9.06-11.1-9.06Z"/>
          <path class="cls-8" d="M411.29,278.79c0-14.42-11.69-26.11-26.11-26.11h0c-14.42,0-26.11,11.69-26.11,26.11v4.6c0,.07,0,.14,.01,.21,.22-14.23,11.82-25.7,26.1-25.7h0c14.28,0,25.88,11.47,26.1,25.7,0-.07,.01-.14,.01-.21v-4.6Z"/>
          <path class="cls-1" d="M391.79,247.92l-9.54-1.26c-8.15-1.07-16.41,2.87-24.66,2.87-8.26,0-16.51-3.94-24.66-2.87l-9.54,1.26c-14.01,1.85-26.96-5.7-26.96-15.72v-45.18h122.34v45.18c0,10.01-12.95,17.56-26.96,15.72Z"/>
          <path class="cls-12" d="M385.18,253.42h0c14.41,0,26.11,11.7,26.11,26.11v4.6c0,3.64-2.95,6.59-6.59,6.59h-39.04c-3.64,0-6.59-2.95-6.59-6.59v-4.6c0-14.41,11.7-26.11,26.11-26.11Z"/>
          <path class="cls-1" d="M366.14,138.01h-17.13c-29.05,0-52.61,23.55-52.61,52.61v29.68c0,2.56,.26,5.02,.74,7.37,1.72-.18,3.56-.28,5.55-.28,28.07,0,28.07,19.33,56.14,19.33s28.07-19.33,56.13-19.33c1.07,0,2.09,.03,3.08,.08,.45-2.29,.7-4.69,.7-7.17v-29.68c0-29.05-23.55-52.61-52.61-52.61Z"/>
          <ellipse class="cls-14" cx="312.34" cy="199.65" rx="23" ry="6.57" transform="translate(-29.92 57.27) rotate(-10)"/>
          <path class="cls-4" d="M328.94,186.94l7.48,57.94c-2.26-1.41-5.02-2.03-7.85-1.53l-14.69,2.59c-2.83,.5-5.21,2.03-6.85,4.12l-12.27-55.46,34.19-7.66Z"/>
          <path class="cls-7" d="M337.61,267.73c1.72-1.42,2.99-3.32,3.63-5.47-3.75-2.84-8.43-4.53-13.5-4.53-8.67,0-16.18,4.53-19.9,11.79,1.19,1.21,2.65,2.14,4.26,2.71,2.75,.97,5.82,.32,8.03-1.6h0c2.58-2.24,6.19-2.88,9.39-1.66,2.73,1.04,5.84,.61,8.09-1.25Z"/>
          <path class="cls-7" d="M330.06,195.58l-1.11-8.64-34.19,7.66,1.32,5.98c3.86-1.79,9.16-3.4,15.12-4.45,7.57-1.34,14.46-1.45,18.86-.55Z"/>
          <ellipse class="cls-14" cx="401.01" cy="199.65" rx="6.57" ry="23" transform="translate(134.75 559.9) rotate(-80)"/>
          <path class="cls-4" d="M384.4,186.94l-7.48,57.94c2.26-1.41,5.02-2.03,7.85-1.53l14.69,2.59c2.83,.5,5.21,2.03,6.85,4.12l12.27-55.46-34.19-7.66Z"/>
          <path class="cls-1" d="M289.68,203.65c-.63-3.57,9-8.26,21.51-10.47,12.51-2.21,23.17-1.1,23.8,2.48,0,.05,0,.11,.01,.17l.16-.03-6.87-32.62-8.94-16.95c-16.99,1.23-25.58,10.65-29.92,19.77-3.68,7.74-4.68,16.49-3.19,24.94l3.39,12.89,.09-.02c-.01-.05-.03-.11-.04-.16Z"/>
          <path class="cls-7" d="M383.17,195.58l1.11-8.64,34.19,7.66-1.32,5.98c-3.86-1.79-9.16-3.4-15.12-4.45-7.57-1.34-14.46-1.45-18.86-.55Z"/>
          <path class="cls-1" d="M423.66,203.65c.63-3.57-9-8.26-21.51-10.47-12.51-2.21-23.17-1.1-23.8,2.48,0,.05,0,.11-.01,.17l-.16-.03,6.87-32.62,8.94-16.95c16.99,1.23,25.58,10.65,29.92,19.77,3.68,7.74,4.68,16.49,3.19,24.94l-3.39,12.89-.09-.02c.01-.05,.03-.11,.04-.16Z"/>
          <circle class="cls-4" cx="356.65" cy="114.43" r="50.11"/>
          <path class="cls-5" d="M315.97,348.26c3.54,.29,7.53,.46,11.77,.46s8.26-.17,11.81-.46v-17.62c0-.37-.31-.71-.79-.85-3.01-.88-6.31-1.37-9.77-1.37h-2.94c-3.27,0-6.39,.44-9.26,1.23-.5,.14-.82,.48-.82,.86v17.76Z"/>
          <path class="cls-14" d="M334.95,331.95h-14.85c-1.41,0-2.79,.16-4.13,.44v12.33c3.54,.29,7.53,.46,11.77,.46s8.26-.17,11.81-.46v-12.23c-1.49-.35-3.03-.54-4.6-.54Z"/>
          <path class="cls-14" d="M345.47,363.38h-35.89c-1.71,0-3.32-.54-4.7-1.48-3.58-2.44-5.07-7.58-3.78-12.17h0c2.68-9.55,10.35-16.01,19-16.01h14.85c8.65,0,16.31,6.46,19,16.01h0c1.29,4.58-.2,9.73-3.78,12.17-1.38,.94-2.98,1.48-4.7,1.48Z"/>
          <path class="cls-1" d="M345.47,359.25h-35.89c-1.71,0-3.32-.46-4.7-1.27-3.58-2.1-5.07-6.53-3.78-10.48h0c2.68-8.22,10.35-13.78,19-13.78h14.85c8.65,0,16.31,5.56,19,13.78h0c1.29,3.95-.2,8.37-3.78,10.48-1.38,.81-2.98,1.27-4.7,1.27Z"/>
          <path class="cls-9" d="M334.95,333.72h-14.85c-1.41,0-2.79,.16-4.13,.44v1.07c0,5.35,4.33,9.68,9.68,9.68h4.22c5.35,0,9.68-4.33,9.68-9.68v-.98c-1.49-.35-3.03-.54-4.6-.54Z"/>
          <line class="cls-2" x1="315.97" y1="334.16" x2="338.48" y2="339.66"/>
          <line class="cls-2" x1="339.66" y1="334.16" x2="317.15" y2="339.66"/>
          <path class="cls-7" d="M327.74,265.21h0c9.4,0,17.64,4.97,22.24,12.43-1.23-11.2-10.72-19.91-22.24-19.91s-21.11,8.09-22.26,19.95c4.59-7.48,12.84-12.47,22.26-12.47Z"/>
          <path class="cls-4" d="M385.67,257.73c12.36,0,22.38,9.21,22.38,22.38l-.67,14.59-3.85,56.25c-4.72,1.54-9,2.55-17.86,2.55-8.85,0-13.14-1.01-17.86-2.55l-3.85-56.25-.67-14.59c0-12.36,10.02-22.38,22.38-22.38Z"/>
          <path class="cls-7" d="M385.52,350.49c-6.72,0-12.91-.34-17.81-.91l-1.45-21.27c4.88-.56,11.1,1.87,17.88,1.87h3.24c6.7,0,12.85-2.62,17.71-2.07l-1.47,21.43c-4.95,.59-11.24,.95-18.1,.95Z"/>
          <path class="cls-6" d="M385.52,354.19c-9.77,0-18.39-.72-23.6-1.81l-.1-18.58c5.2-4.25,13.26,.09,22.32,.09h3.24c8.78,0,16.63-4.5,21.84-.47l-.1,18.96c-5.21,1.1-13.83,1.81-23.6,1.81Z"/>
          <path class="cls-10" d="M409.19,339.82l-.07,12.56c-5.21,1.1-13.83,1.81-23.6,1.81s-18.39-.72-23.6-1.81l-.06-11.55c2.74-4.09,6.89-7.04,11.67-8.25,3.28,.57,6.85,1.31,10.6,1.31h3.24c3.68,0,7.2-.79,10.43-1.41,4.55,1.05,8.57,3.67,11.38,7.35Z"/>
          <path class="cls-7" d="M375.79,267.73c-1.72-1.42-2.99-3.32-3.63-5.47,3.75-2.84,8.43-4.53,13.5-4.53,8.67,0,16.18,4.53,19.9,11.79-1.19,1.21-2.65,2.14-4.26,2.71-2.75,.97-5.82,.32-8.03-1.6h0c-2.58-2.24-6.19-2.88-9.39-1.66-2.73,1.04-5.84,.61-8.09-1.25Z"/>
          <path class="cls-5" d="M397.43,348.26c-3.54,.29-7.53,.46-11.77,.46-4.25,0-8.26-.17-11.81-.46v-17.62c0-.37,.31-.71,.79-.85,3.01-.88,6.31-1.37,9.77-1.37h2.94c3.27,0,6.39,.44,9.26,1.23,.5,.14,.82,.48,.82,.86v17.76Z"/>
          <path class="cls-14" d="M378.46,331.95h14.85c1.41,0,2.79,.16,4.13,.44v12.33c-3.54,.29-7.53,.46-11.77,.46s-8.26-.17-11.81-.46v-12.23c1.49-.35,3.03-.54,4.6-.54Z"/>
          <path class="cls-14" d="M367.94,363.38h35.89c1.71,0,3.32-.54,4.7-1.48,3.58-2.44,5.07-7.58,3.78-12.17h0c-2.68-9.55-10.35-16.01-19-16.01h-14.85c-8.65,0-16.31,6.46-19,16.01h0c-1.29,4.58,.2,9.73,3.78,12.17,1.38,.94,2.98,1.48,4.7,1.48Z"/>
          <path class="cls-1" d="M367.94,359.25h35.89c1.71,0,3.32-.46,4.7-1.27,3.58-2.1,5.07-6.53,3.78-10.48h0c-2.68-8.22-10.35-13.78-19-13.78h-14.85c-8.65,0-16.31,5.56-19,13.78h0c-1.29,3.95,.2,8.37,3.78,10.48,1.38,.81,2.98,1.27,4.7,1.27Z"/>
          <path class="cls-9" d="M378.46,333.72h14.85c1.41,0,2.79,.16,4.13,.44v1.07c0,5.35-4.33,9.68-9.68,9.68h-4.22c-5.35,0-9.68-4.33-9.68-9.68v-.98c1.49-.35,3.03-.54,4.6-.54Z"/>
          <line class="cls-2" x1="397.43" y1="334.16" x2="374.92" y2="339.66"/>
          <line class="cls-2" x1="373.74" y1="334.16" x2="396.25" y2="339.66"/>
          <path class="cls-7" d="M385.67,265.21h0c-9.4,0-17.64,4.97-22.24,12.43,1.23-11.2,10.72-19.91,22.24-19.91,11.58,0,21.11,8.09,22.26,19.95-4.59-7.48-12.84-12.47-22.26-12.47Z"/>
          <path class="cls-4" d="M329.52,264.26h0c-3.19-1.22-6.8-.59-9.39,1.66h0c-2.21,1.91-5.28,2.57-8.03,1.6-3.68-1.3-6.58-4.49-7.31-8.61h0c-1.07-6.09,2.99-11.89,9.08-12.96l14.69-2.59c6.09-1.07,11.89,2.99,12.96,9.08h0c.73,4.12-.9,8.11-3.92,10.59-2.26,1.85-5.36,2.29-8.09,1.25Z"/>
          <path class="cls-7" d="M328.57,239.81l-14.69,2.59c-3.19,.56-5.82,2.44-7.45,4.96l.6,2.7c1.64-2.1,4.02-3.63,6.85-4.12l14.69-2.59c2.83-.5,5.59,.12,7.85,1.53l-.5-3.84c-2.16-1.2-4.73-1.69-7.36-1.23Z"/>
          <path class="cls-4" d="M383.82,264.26h0c3.19-1.22,6.8-.59,9.39,1.66h0c2.21,1.91,5.28,2.57,8.03,1.6,3.68-1.3,6.58-4.49,7.31-8.61h0c1.07-6.09-2.99-11.89-9.08-12.96l-14.69-2.59c-6.09-1.07-11.89,2.99-12.96,9.08h0c-.73,4.12,.9,8.11,3.92,10.59,2.26,1.85,5.36,2.29,8.09,1.25Z"/>
          <path class="cls-7" d="M399.47,242.4l-14.69-2.59c-2.62-.46-5.19,.03-7.36,1.23l-.5,3.84c2.26-1.41,5.02-2.03,7.85-1.53l14.69,2.59c2.83,.5,5.21,2.03,6.85,4.12l.6-2.7c-1.63-2.53-4.26-4.4-7.45-4.96Z"/>
        </g>
        <g>
          <circle cx="338.59" cy="113.41" r="7.62"/>
          <circle cx="374.63" cy="113.41" r="7.62"/>
          <circle cx="357.28" cy="138.21" r="2.86"/>
          <circle class="cls-1" cx="337.16" cy="111.03" r="3.33"/>
          <circle class="cls-1" cx="373.2" cy="111.03" r="3.33"/>
        </g>
      </g>
    </g>
  </g>
</svg>